<svg width="100" height="81" viewBox="0 0 100 81" fill="none" xmlns="http://www.w3.org/2000/svg">
<path d="M88.7622 30.4535H88.7307L70.6796 38.1614L45.9818 48.7075C45.8853 48.7481 45.7818 48.7693 45.6771 48.7698C45.5724 48.7704 45.4686 48.7503 45.3717 48.7107L19.8909 38.1394L1.39625 30.4661L1.368 30.4535H1.33653C1.04471 30.4538 0.764932 30.5699 0.558584 30.7762C0.352235 30.9826 0.236163 31.2624 0.23584 31.5542V79.3553C0.236163 79.6471 0.352235 79.9269 0.558584 80.1332C0.764932 80.3396 1.04471 80.4556 1.33653 80.4559H88.7622C89.054 80.4556 89.3338 80.3396 89.5402 80.1332C89.7465 79.9269 89.8626 79.6471 89.8629 79.3553V31.5542C89.8626 31.2624 89.7465 30.9826 89.5402 30.7762C89.3338 30.5699 89.054 30.4538 88.7622 30.4535Z" fill="white"/>
<path d="M88.8407 30.768C88.8086 30.768 88.7772 30.7582 88.7509 30.7398L45.2647 0.454743C45.1323 0.363009 44.9751 0.313983 44.8141 0.314257C44.653 0.314532 44.496 0.364091 44.3639 0.456277L1.19095 30.7395C1.15679 30.7633 1.1146 30.7725 1.07363 30.7653C1.03266 30.758 0.996245 30.7348 0.972351 30.7007C0.948458 30.6666 0.93905 30.6245 0.946168 30.5835C0.953285 30.5425 0.976347 30.506 1.01032 30.482L44.1833 0.198777C44.3682 0.0697381 44.5881 0.000372077 44.8136 1.49263e-06C45.039 -0.000369091 45.2591 0.0682737 45.4444 0.196704L88.9306 30.4817C88.9581 30.5008 88.9788 30.5282 88.9896 30.5599C89.0004 30.5916 89.0008 30.6259 88.9908 30.6579C88.9807 30.6898 88.9608 30.7177 88.9338 30.7375C88.9068 30.7573 88.8741 30.768 88.8407 30.768H88.8407Z" fill="#3F3D56"/>
<path d="M3.65796 31.8416L44.8567 1.30817L86.3683 34.0141L46.9795 57.3642L25.5948 52.4899L3.65796 31.8416Z" fill="#E6E6E6"/>
<path d="M27.4 71.7867H7.04678C6.79459 71.7871 6.55257 71.6873 6.37398 71.5092C6.19539 71.3312 6.09486 71.0894 6.09448 70.8373C6.09411 70.5851 6.19393 70.343 6.37199 70.1645C6.55006 69.9859 6.79178 69.8853 7.04397 69.8849H27.4C27.6522 69.8846 27.8942 69.9844 28.0728 70.1625C28.2514 70.3405 28.352 70.5822 28.3523 70.8344C28.3527 71.0866 28.2529 71.3286 28.0748 71.5072C27.8968 71.6858 27.655 71.7864 27.4028 71.7867H27.4Z" fill="#5EAAA8"/>
<path d="M14.349 67.6985H7.04673C6.79465 67.6987 6.55281 67.5988 6.37436 67.4207C6.19591 67.2427 6.09547 67.0011 6.09509 66.749C6.09472 66.4969 6.19445 66.255 6.37237 66.0764C6.5503 65.8979 6.79184 65.7972 7.04392 65.7967H14.349C14.4739 65.7964 14.5977 65.8208 14.7132 65.8683C14.8287 65.9159 14.9337 65.9858 15.0222 66.074C15.1107 66.1622 15.181 66.2669 15.229 66.3822C15.277 66.4976 15.3018 66.6213 15.302 66.7462C15.3022 66.8711 15.2777 66.9949 15.2301 67.1103C15.1824 67.2258 15.1125 67.3308 15.0242 67.4192C14.936 67.5076 14.8312 67.5778 14.7158 67.6258C14.6005 67.6737 14.4768 67.6984 14.3518 67.6985H14.349Z" fill="#5EAAA8"/>
<path d="M45.4362 48.8482C45.2815 48.8483 45.1282 48.8183 44.985 48.7598L19.5764 38.217V5.21634C19.5768 4.92453 19.6928 4.64477 19.8992 4.43842C20.1055 4.23208 20.3853 4.116 20.6771 4.11566H69.4216C69.7134 4.116 69.9932 4.23208 70.1995 4.43842C70.4059 4.64476 70.522 4.92453 70.5223 5.21634V38.2401L70.4745 38.2605L45.901 48.7547C45.7538 48.8165 45.5958 48.8483 45.4362 48.8482Z" fill="white"/>
<path d="M45.4362 48.9268C45.2712 48.927 45.1078 48.895 44.9551 48.8327L19.4978 38.2696V5.21641C19.4982 4.90375 19.6225 4.60399 19.8436 4.38291C20.0647 4.16182 20.3644 4.03746 20.6771 4.03711H69.4216C69.7343 4.03746 70.034 4.16182 70.2551 4.38291C70.4762 4.60399 70.6006 4.90375 70.6009 5.21641V38.292L45.9319 48.827C45.7749 48.893 45.6064 48.9269 45.4362 48.9268ZM19.8123 38.0595L45.075 48.5419C45.3106 48.6375 45.5745 48.6359 45.809 48.5375L70.2865 38.0844V5.21641C70.2862 4.98713 70.195 4.76732 70.0329 4.6052C69.8707 4.44307 69.6509 4.35188 69.4216 4.3516H20.6771C20.4478 4.35188 20.228 4.44307 20.0659 4.6052C19.9038 4.76732 19.8126 4.98713 19.8123 5.21641L19.8123 38.0595Z" fill="#3F3D56"/>
<path d="M88.5264 30.4535H88.4949L70.4437 38.1614L45.746 48.7075C45.6495 48.7481 45.5459 48.7693 45.4412 48.7698C45.3365 48.7704 45.2327 48.7503 45.1358 48.7107L19.6551 38.1394L1.16043 30.4661L1.13216 30.4535H1.10068C0.808856 30.4538 0.529092 30.5699 0.322744 30.7762C0.116396 30.9826 0.000323471 31.2624 0 31.5542V79.3553C0.000323471 79.6471 0.116396 79.9269 0.322744 80.1332C0.529092 80.3396 0.808856 80.4556 1.10068 80.4559H88.5264C88.8182 80.4556 89.0979 80.3396 89.3043 80.1332C89.5106 79.9269 89.6267 79.6471 89.627 79.3553V31.5542C89.6267 31.2624 89.5106 30.9826 89.3043 30.7762C89.0979 30.5699 88.8182 30.4538 88.5264 30.4535ZM89.3126 79.3553C89.3125 79.5638 89.2296 79.7637 89.0822 79.9111C88.9348 80.0585 88.7349 80.1414 88.5264 80.1415H1.10068C0.892187 80.1414 0.69226 80.0585 0.544836 79.9111C0.397412 79.7637 0.314567 79.5638 0.314483 79.3553V31.5542C0.314769 31.3509 0.393618 31.1555 0.534572 31.009C0.675526 30.8625 0.86766 30.7761 1.07081 30.768L19.6551 38.479L45.0148 49.0016C45.2894 49.1133 45.5969 49.1116 45.8702 48.9969L70.4437 38.5026L88.5578 30.768C88.7606 30.7767 88.9523 30.8633 89.0928 31.0098C89.2334 31.1562 89.3121 31.3512 89.3126 31.5542V79.3553Z" fill="#3F3D56"/>
<path d="M41.4805 16.4515H24.184C23.8507 16.451 23.5312 16.3182 23.2957 16.0824C23.0602 15.8465 22.9279 15.5268 22.9279 15.1935C22.9279 14.8602 23.0602 14.5405 23.2957 14.3047C23.5312 14.0688 23.8507 13.9361 24.184 13.9356H41.4805C41.8138 13.9361 42.1333 14.0688 42.3688 14.3047C42.6043 14.5405 42.7366 14.8602 42.7366 15.1935C42.7366 15.5268 42.6043 15.8465 42.3688 16.0824C42.1333 16.3182 41.8138 16.451 41.4805 16.4515Z" fill="#5EAAA8"/>
<path d="M32.5178 11.1053H24.1841C23.8504 11.1053 23.5305 10.9728 23.2946 10.7369C23.0587 10.501 22.9261 10.181 22.9261 9.8474C22.9261 9.51378 23.0587 9.19382 23.2946 8.95791C23.5305 8.72201 23.8504 8.58948 24.1841 8.58948H32.5178C32.8514 8.58948 33.1714 8.72201 33.4073 8.95791C33.6432 9.19382 33.7757 9.51378 33.7757 9.8474C33.7757 10.181 33.6432 10.501 33.4073 10.7369C33.1714 10.9728 32.8514 11.1053 32.5178 11.1053Z" fill="#5EAAA8"/>
<path d="M57.9858 29.0307H31.5694C31.236 29.0302 30.9166 28.8975 30.681 28.6616C30.4455 28.4258 30.3132 28.1061 30.3132 27.7728C30.3132 27.4394 30.4455 27.1198 30.681 26.8839C30.9166 26.648 31.236 26.5153 31.5694 26.5148H57.9858C58.3191 26.5153 58.6386 26.648 58.8741 26.8839C59.1096 27.1198 59.2419 27.4394 59.2419 27.7728C59.2419 28.1061 59.1096 28.4258 58.8741 28.6616C58.6386 28.8975 58.3191 29.0302 57.9858 29.0307Z" fill="#CCCCCC"/>
<path d="M57.9857 34.8486H31.5693C31.2357 34.8486 30.9157 34.7161 30.6798 34.4802C30.4439 34.2443 30.3114 33.9243 30.3114 33.5907C30.3114 33.2571 30.4439 32.9371 30.6798 32.7012C30.9157 32.4653 31.2357 32.3328 31.5693 32.3328H57.9857C58.3194 32.3328 58.6393 32.4653 58.8752 32.7012C59.1111 32.9371 59.2436 33.2571 59.2436 33.5907C59.2436 33.9243 59.1111 34.2443 58.8752 34.4802C58.6393 34.7161 58.3194 34.8486 57.9857 34.8486Z" fill="#CCCCCC"/>
<path d="M88.0387 42.8705C94.6447 42.8705 100 37.5153 100 30.9093C100 24.3033 94.6447 18.9481 88.0387 18.9481C81.4327 18.9481 76.0775 24.3033 76.0775 30.9093C76.0775 37.5153 81.4327 42.8705 88.0387 42.8705Z" fill="#5EAAA8"/>
<path d="M86.899 35.9586L83.3191 31.3553L85.4009 29.736L87.096 31.9156L92.8224 25.8705L94.7373 27.6847L86.899 35.9586Z" fill="white"/>
</svg>
