<svg width="491" height="494" viewBox="0 0 491 494" fill="none" xmlns="http://www.w3.org/2000/svg">
<g opacity="0.5">
<path opacity="0.5" d="M138.656 158.246C165.439 158.246 177.825 143.863 177.825 124.586C177.825 90.9269 150.713 66.7468 117.07 66.7468C101.011 66.9584 85.6811 73.4895 74.3995 84.9263C63.1178 96.363 56.7922 111.785 56.7922 127.854C56.7922 143.922 63.1178 159.344 74.3995 170.781C85.6811 182.218 101.011 188.749 117.07 188.961C129.488 188.853 141.567 184.897 151.645 177.638C152.144 177.284 152.568 176.833 152.891 176.313C153.215 175.793 153.432 175.214 153.529 174.609C153.628 174.098 153.594 173.57 153.429 173.077C153.263 172.583 152.974 172.14 152.587 171.792C152.186 171.45 151.718 171.194 151.213 171.042C150.709 170.889 150.178 170.841 149.654 170.903C149.131 170.965 148.626 171.134 148.17 171.4C147.715 171.666 147.319 172.023 147.008 172.449C144.785 175.372 138.147 180.318 118.51 180.763C88.7947 181.441 63.9277 157.769 63.8325 128.029C63.7372 98.5315 87.9478 75.2411 117.07 74.9128C146.193 74.5844 169.652 95.174 169.652 123.93C169.652 142.231 156.949 150.726 141.567 150.408C136.665 150.736 135.692 148.777 136.337 141.935C136.877 136.3 142.255 112.809 144.16 104.59C144.326 103.908 144.331 103.197 144.177 102.513C144.022 101.829 143.711 101.19 143.268 100.647C142.825 100.103 142.262 99.6691 141.623 99.3793C140.985 99.0896 140.288 98.9516 139.587 98.9764H139.259C138.249 99.0978 137.31 99.5555 136.592 100.276C135.874 100.996 135.419 101.938 135.3 102.948C135.131 104.269 135.04 105.599 135.025 106.93C132.082 101.052 125.222 96.4768 117.028 96.1485C99.7197 96.4768 84.6978 112.163 84.0415 135.04C84.0415 150.397 92.2034 159.22 106.272 159.22C116.075 159.22 123.21 153.342 127.18 147.781C127.201 147.792 126.873 157.589 138.656 158.246ZM107.628 151.382C98.8092 151.382 93.5796 144.848 93.5796 134.436C93.5796 116.431 105.669 105.024 117.092 105.024C127.212 105.024 131.139 111.887 131.468 121.038C131.446 135.728 121.972 151.382 107.606 151.382H107.628Z" fill="url(#paint0_linear)"/>
</g>
<path d="M137.671 156.911C163.269 156.911 175.125 143.143 175.125 124.745C175.125 92.5794 149.221 69.469 117.07 69.469C101.589 69.469 86.7419 75.6219 75.795 86.5742C64.8481 97.5265 58.6981 112.381 58.6981 127.87C58.6981 143.359 64.8481 158.213 75.795 169.165C86.7419 180.118 101.589 186.271 117.07 186.271C128.936 186.169 140.479 182.392 150.11 175.457C150.589 175.119 150.995 174.69 151.306 174.194C151.617 173.697 151.826 173.144 151.92 172.565C152.015 172.077 151.982 171.573 151.824 171.102C151.666 170.63 151.39 170.208 151.02 169.875C150.638 169.554 150.194 169.315 149.715 169.173C149.237 169.03 148.735 168.987 148.239 169.045C147.743 169.104 147.265 169.263 146.833 169.513C146.401 169.763 146.025 170.099 145.727 170.5C143.61 173.286 137.258 178.02 118.489 178.444C90.0862 179.09 66.3308 156.466 66.2355 128.039C66.1403 99.8556 89.2817 77.5926 117.113 77.2854C144.944 76.9783 167.365 96.6464 167.365 124.131C167.365 141.617 155.191 149.741 140.519 149.423C135.84 149.73 134.898 147.866 135.522 141.3C136.03 135.909 141.175 113.466 143.007 105.617C143.164 104.966 143.168 104.287 143.02 103.634C142.871 102.981 142.573 102.371 142.15 101.852C141.727 101.333 141.189 100.919 140.579 100.643C139.969 100.366 139.304 100.234 138.634 100.258H138.317C137.352 100.375 136.454 100.814 135.769 101.504C135.083 102.194 134.649 103.094 134.538 104.06C134.376 105.325 134.287 106.598 134.273 107.873C131.468 102.249 124.904 97.875 117.102 97.5679C100.556 97.875 86.2011 112.872 85.5765 134.733C85.5765 149.413 93.3785 157.843 106.802 157.843C116.171 157.843 123.03 152.219 126.778 146.913C126.746 146.902 126.439 156.276 137.671 156.911ZM108.03 150.355C99.5609 150.355 94.6065 144.106 94.6065 134.119C94.6065 116.94 106.156 106.009 117.081 106.009C126.757 106.009 130.504 112.565 130.843 121.314C130.811 135.347 121.718 150.345 108.019 150.345L108.03 150.355Z" fill="#00BFA6" fill-opacity="0.5"/>
<path d="M340.168 134.443C349.617 134.443 354 129.501 354 122.874C354 111.305 344.43 103 332.555 103C326.838 103 321.356 105.213 317.313 109.151C313.271 113.089 311 118.43 311 124C311 129.57 313.271 134.911 317.313 138.849C321.356 142.787 326.838 145 332.555 145C336.941 144.956 341.205 143.587 344.759 141.083C344.935 140.962 345.086 140.808 345.201 140.629C345.316 140.451 345.393 140.252 345.429 140.045C345.464 139.87 345.452 139.689 345.395 139.52C345.337 139.35 345.236 139.198 345.1 139.078C344.959 138.959 344.794 138.87 344.616 138.816C344.437 138.763 344.249 138.746 344.063 138.768C343.878 138.789 343.699 138.848 343.538 138.941C343.378 139.034 343.239 139.159 343.13 139.307C342.346 140.312 340.001 142.01 333.078 142.166C330.583 142.235 328.099 141.818 325.772 140.94C323.444 140.062 321.32 138.74 319.524 137.053C317.727 135.365 316.294 133.345 315.308 131.111C314.323 128.877 313.805 126.474 313.784 124.042C313.751 113.91 322.295 105.905 332.549 105.762C342.802 105.618 351.105 112.787 351.105 122.691C351.105 128.978 346.608 131.897 341.193 131.786C339.465 131.897 339.116 131.224 339.351 128.867C339.538 126.909 341.441 118.859 342.112 116.038C342.176 115.802 342.182 115.554 342.13 115.315C342.078 115.076 341.969 114.852 341.812 114.661C341.655 114.471 341.454 114.319 341.225 114.218C340.997 114.117 340.747 114.069 340.497 114.079H340.383C340.027 114.121 339.696 114.278 339.443 114.526C339.19 114.774 339.03 115.097 338.989 115.444C338.928 115.899 338.894 116.356 338.888 116.815C338.26 115.708 337.343 114.782 336.23 114.13C335.117 113.479 333.847 113.126 332.549 113.107C326.437 113.218 321.156 118.61 320.908 126.471C320.908 131.746 323.79 134.782 328.749 134.782C330.209 134.751 331.641 134.379 332.924 133.697C334.206 133.016 335.302 132.044 336.12 130.865C336.12 130.865 336.02 134.234 340.168 134.443ZM329.218 132.086C326.108 132.086 324.259 129.84 324.259 126.249C324.259 120.073 328.521 116.143 332.555 116.143C336.127 116.143 337.514 118.499 337.628 121.646C337.635 126.713 334.291 132.099 329.218 132.099V132.086Z" fill="#00BFA6" fill-opacity="0.5"/>
<g opacity="0.5">
<path opacity="0.5" d="M257.221 239.27C272.645 239.27 279.791 230.987 279.791 219.887C279.791 200.505 264.176 186.578 244.803 186.578C235.474 186.578 226.526 190.286 219.929 196.886C213.332 203.486 209.625 212.438 209.625 221.773C209.625 231.107 213.332 240.059 219.929 246.659C226.526 253.26 235.474 256.968 244.803 256.968C251.955 256.905 258.912 254.625 264.716 250.444C264.999 250.237 265.238 249.976 265.42 249.676C265.602 249.376 265.722 249.043 265.775 248.696C265.832 248.402 265.812 248.099 265.718 247.815C265.623 247.531 265.457 247.276 265.235 247.076C265.004 246.885 264.737 246.744 264.45 246.66C264.163 246.576 263.862 246.551 263.565 246.587C263.269 246.623 262.982 246.718 262.723 246.868C262.464 247.017 262.238 247.218 262.059 247.457C260.778 249.141 256.956 251.99 245.64 252.244C241.57 252.35 237.52 251.644 233.726 250.169C229.931 248.694 226.468 246.479 223.537 243.652C220.606 240.825 218.267 237.444 216.654 233.704C215.042 229.964 214.189 225.941 214.146 221.868C214.093 204.922 228.035 191.46 244.846 191.28C261.657 191.1 275.133 202.931 275.133 219.517C275.133 230.108 267.797 234.948 258.957 234.758C256.131 234.948 255.57 233.815 255.951 229.865C256.162 226.613 259.338 213.045 260.397 208.353C260.492 207.961 260.495 207.552 260.405 207.158C260.316 206.764 260.136 206.396 259.881 206.083C259.626 205.77 259.301 205.521 258.934 205.354C258.566 205.188 258.164 205.108 257.761 205.123H257.57C256.989 205.193 256.449 205.457 256.036 205.872C255.623 206.287 255.362 206.829 255.294 207.411C255.197 208.173 255.144 208.941 255.136 209.709C254.106 207.859 252.609 206.311 250.794 205.222C248.979 204.133 246.909 203.54 244.793 203.503C234.821 203.693 226.172 212.728 225.791 225.903C225.791 234.747 230.491 239.831 238.579 239.831C240.966 239.777 243.304 239.15 245.399 238.004C247.493 236.857 249.282 235.225 250.615 233.243C250.615 233.243 250.446 238.888 257.221 239.27ZM239.341 235.287C234.26 235.287 231.253 231.527 231.253 225.501C231.253 215.153 238.219 208.555 244.793 208.555C250.626 208.555 252.881 212.505 253.071 217.78C253.082 226.285 247.619 235.287 239.341 235.287Z" fill="url(#paint1_linear)"/>
</g>
<path d="M256.819 238.708C271.745 238.708 278.669 230.691 278.669 219.941C278.669 201.173 263.552 187.7 244.793 187.7C235.762 187.7 227.101 191.29 220.716 197.678C214.33 204.067 210.742 212.732 210.742 221.768C210.742 230.803 214.33 239.468 220.716 245.857C227.101 252.246 235.762 255.835 244.793 255.835C251.721 255.763 258.456 253.543 264.07 249.48C264.35 249.284 264.587 249.033 264.769 248.744C264.951 248.455 265.073 248.133 265.129 247.796C265.184 247.512 265.166 247.219 265.075 246.944C264.984 246.67 264.824 246.423 264.61 246.228C264.387 246.035 264.127 245.89 263.844 245.803C263.562 245.716 263.265 245.69 262.972 245.725C262.679 245.76 262.397 245.855 262.143 246.006C261.889 246.156 261.669 246.359 261.498 246.599C260.259 248.23 256.554 250.984 245.619 251.238C241.678 251.349 237.754 250.673 234.077 249.249C230.401 247.824 227.045 245.68 224.207 242.942C221.369 240.204 219.105 236.927 217.548 233.303C215.992 229.679 215.173 225.781 215.141 221.836C215.088 205.399 228.585 192.414 244.782 192.181C260.979 191.948 274.159 203.513 274.159 219.58C274.159 229.78 267.056 234.514 258.502 234.334C255.771 234.514 255.22 233.423 255.591 229.6C255.887 226.422 258.894 213.363 259.952 208.788C260.054 208.404 260.064 208.003 259.982 207.615C259.9 207.227 259.727 206.863 259.479 206.554C259.231 206.245 258.913 205.999 258.552 205.835C258.192 205.671 257.797 205.594 257.401 205.61H257.221C256.659 205.678 256.136 205.933 255.736 206.335C255.337 206.737 255.084 207.261 255.019 207.824C254.923 208.562 254.87 209.304 254.86 210.048C253.869 208.252 252.42 206.749 250.662 205.693C248.903 204.637 246.897 204.064 244.846 204.032C235.191 204.212 226.849 212.961 226.458 225.713C226.458 234.271 231.01 239.196 238.844 239.196C241.151 239.145 243.412 238.541 245.438 237.435C247.465 236.33 249.196 234.754 250.488 232.841C250.488 232.841 250.266 238.338 256.819 238.708ZM239.521 234.885C234.609 234.885 231.687 231.242 231.687 225.416C231.687 215.397 238.42 209.021 244.793 209.021C250.435 209.021 252.627 212.844 252.807 217.949C252.817 226.137 247.535 234.874 239.521 234.874V234.885Z" fill="#00BFA6" fill-opacity="0.5"/>
<g opacity="0.5">
<path opacity="0.5" d="M163.861 268.057C179.91 268.057 187.352 259.435 187.352 247.933C187.352 227.81 171.102 213.268 150.936 213.268C141.227 213.268 131.916 217.126 125.051 223.995C118.185 230.863 114.329 240.179 114.329 249.893C114.329 259.606 118.185 268.922 125.051 275.79C131.916 282.659 141.227 286.517 150.936 286.517C158.377 286.452 165.615 284.08 171.653 279.728C171.952 279.517 172.207 279.248 172.401 278.937C172.596 278.626 172.726 278.279 172.786 277.917C172.844 277.612 172.824 277.297 172.725 277.002C172.627 276.707 172.455 276.442 172.224 276.233C171.984 276.028 171.704 275.875 171.401 275.783C171.099 275.691 170.78 275.662 170.466 275.699C170.152 275.736 169.849 275.837 169.576 275.996C169.303 276.156 169.066 276.37 168.879 276.625C167.545 278.373 163.586 281.338 151.793 281.603C147.554 281.723 143.334 280.996 139.378 279.466C135.423 277.935 131.812 275.632 128.757 272.689C125.702 269.747 123.263 266.225 121.584 262.329C119.904 258.433 119.018 254.241 118.976 249.998C118.923 232.321 133.426 218.362 150.883 218.161C168.339 217.96 182.398 230.309 182.398 247.541C182.398 258.514 174.765 263.598 165.566 263.428C162.633 263.619 162.041 262.454 162.39 258.334C162.707 254.955 165.936 240.879 167.08 235.954C167.18 235.545 167.184 235.119 167.091 234.708C166.999 234.297 166.812 233.914 166.547 233.587C166.281 233.261 165.943 233.001 165.56 232.827C165.177 232.653 164.758 232.571 164.338 232.586H164.137C163.531 232.659 162.967 232.933 162.537 233.366C162.107 233.798 161.835 234.363 161.765 234.969C161.663 235.763 161.606 236.562 161.596 237.363C160.524 235.437 158.966 233.826 157.076 232.692C155.187 231.559 153.033 230.941 150.83 230.902C140.455 231.093 131.446 240.498 131.055 254.203C131.055 263.407 135.946 268.692 144.362 268.692C146.873 268.647 149.336 267.993 151.539 266.787C153.743 265.581 155.621 263.857 157.012 261.765C157.012 261.765 156.811 267.665 163.861 268.057ZM145.261 263.947C139.968 263.947 136.792 260.028 136.792 253.758C136.792 242.987 144.033 236.134 150.883 236.134C156.949 236.134 159.352 240.244 159.5 245.73C159.553 254.542 153.879 263.937 145.261 263.937V263.947Z" fill="url(#paint2_linear)"/>
</g>
<path d="M163.004 266.776C177.93 266.776 184.854 258.758 184.854 248.008C184.854 229.24 169.737 215.768 150.978 215.768C141.947 215.768 133.286 219.357 126.901 225.746C120.515 232.134 116.927 240.8 116.927 249.835C116.927 258.87 120.515 267.535 126.901 273.924C133.286 280.313 141.947 283.902 150.978 283.902C157.906 283.83 164.642 281.61 170.255 277.547C170.535 277.351 170.772 277.101 170.954 276.811C171.136 276.522 171.258 276.2 171.314 275.863C171.369 275.579 171.351 275.286 171.26 275.011C171.169 274.737 171.009 274.49 170.795 274.295C170.572 274.102 170.312 273.957 170.029 273.87C169.747 273.784 169.45 273.757 169.157 273.792C168.864 273.827 168.582 273.922 168.328 274.073C168.074 274.224 167.854 274.426 167.683 274.666C166.444 276.297 162.739 279.051 151.804 279.305C147.863 279.417 143.939 278.74 140.262 277.316C136.586 275.891 133.23 273.747 130.392 271.009C127.554 268.271 125.29 264.994 123.733 261.37C122.177 257.746 121.358 253.848 121.326 249.904C121.273 233.466 134.771 220.481 150.967 220.248C167.164 220.015 180.281 231.538 180.281 247.573C180.281 257.773 173.177 262.507 164.624 262.327C161.892 262.507 161.342 261.416 161.712 257.593C162.009 254.415 165.015 241.356 166.074 236.781C166.175 236.397 166.185 235.996 166.103 235.608C166.021 235.22 165.849 234.856 165.601 234.547C165.352 234.238 165.035 233.992 164.674 233.828C164.313 233.664 163.919 233.587 163.523 233.603H163.343C162.78 233.671 162.257 233.926 161.858 234.328C161.458 234.73 161.206 235.254 161.141 235.817C161.045 236.555 160.992 237.297 160.982 238.041C159.99 236.245 158.542 234.742 156.783 233.686C155.025 232.63 153.018 232.057 150.967 232.025C141.313 232.205 132.971 240.954 132.579 253.706C132.579 262.264 137.131 267.189 144.965 267.189C147.272 267.138 149.534 266.534 151.56 265.428C153.586 264.323 155.318 262.747 156.61 260.834C156.61 260.834 156.398 266.416 163.004 266.776ZM145.706 262.952C140.794 262.952 137.872 259.309 137.872 253.483C137.872 243.464 144.605 237.088 150.978 237.088C156.62 237.088 158.812 240.911 158.992 246.017C158.949 254.214 153.667 262.952 145.664 262.952H145.706Z" fill="#00BFA6" fill-opacity="0.5"/>
<g opacity="0.5">
<path opacity="0.5" d="M163.861 381.321C179.91 381.321 187.352 372.699 187.352 361.197C187.352 341.074 171.102 326.532 150.936 326.532C141.227 326.532 131.916 330.39 125.051 337.259C118.185 344.127 114.329 353.443 114.329 363.157C114.329 372.87 118.185 382.186 125.051 389.054C131.916 395.923 141.227 399.782 150.936 399.782C158.377 399.716 165.615 397.344 171.653 392.993C171.952 392.781 172.207 392.512 172.401 392.201C172.596 391.89 172.726 391.543 172.786 391.181C172.844 390.876 172.824 390.561 172.725 390.266C172.627 389.971 172.455 389.706 172.224 389.497C171.984 389.292 171.704 389.139 171.401 389.047C171.099 388.955 170.78 388.926 170.466 388.963C170.152 389 169.849 389.101 169.576 389.261C169.303 389.42 169.066 389.634 168.879 389.889C167.545 391.637 163.586 394.602 151.793 394.867C147.554 394.987 143.334 394.26 139.378 392.73C135.423 391.199 131.812 388.896 128.757 385.953C125.702 383.011 123.263 379.489 121.584 375.593C119.904 371.697 119.018 367.505 118.976 363.263C118.923 345.586 133.426 331.626 150.883 331.425C168.339 331.224 182.398 343.573 182.398 360.805C182.398 371.778 174.765 376.862 165.566 376.692C162.633 376.883 162.041 375.718 162.39 371.598C162.707 368.219 165.936 354.143 167.08 349.218C167.18 348.81 167.184 348.383 167.091 347.972C166.999 347.562 166.812 347.178 166.547 346.852C166.281 346.525 165.943 346.265 165.56 346.091C165.177 345.917 164.758 345.835 164.338 345.85H164.137C163.531 345.923 162.967 346.197 162.537 346.63C162.107 347.062 161.835 347.627 161.765 348.233C161.663 349.027 161.606 349.827 161.596 350.627C160.524 348.701 158.966 347.09 157.076 345.957C155.187 344.823 153.033 344.205 150.83 344.166C140.455 344.357 131.446 353.762 131.055 367.467C131.055 376.671 135.946 381.956 144.362 381.956C146.867 381.918 149.327 381.274 151.529 380.079C153.732 378.884 155.613 377.173 157.012 375.093C157.012 375.093 156.811 380.929 163.861 381.321ZM145.261 377.211C139.968 377.211 136.792 373.293 136.792 367.023C136.792 356.251 144.033 349.398 150.883 349.398C156.949 349.398 159.352 353.508 159.5 358.994C159.553 367.806 153.879 377.211 145.261 377.211Z" fill="url(#paint3_linear)"/>
</g>
<path d="M163.004 380.05C177.93 380.05 184.854 372.032 184.854 361.282C184.854 342.514 169.737 329.042 150.978 329.042C141.947 329.042 133.286 332.631 126.901 339.02C120.515 345.409 116.927 354.074 116.927 363.109C116.927 372.144 120.515 380.809 126.901 387.198C133.286 393.587 141.947 397.176 150.978 397.176C157.906 397.104 164.642 394.884 170.255 390.821C170.535 390.625 170.772 390.375 170.954 390.086C171.136 389.797 171.258 389.474 171.314 389.137C171.369 388.854 171.351 388.56 171.26 388.286C171.169 388.011 171.009 387.765 170.795 387.57C170.572 387.376 170.312 387.232 170.029 387.145C169.747 387.058 169.45 387.031 169.157 387.066C168.864 387.101 168.582 387.197 168.328 387.347C168.074 387.498 167.854 387.7 167.683 387.941C166.444 389.572 162.739 392.325 151.804 392.58C147.863 392.691 143.939 392.015 140.262 390.59C136.586 389.166 133.23 387.022 130.392 384.284C127.554 381.546 125.29 378.269 123.733 374.645C122.177 371.021 121.358 367.122 121.326 363.178C121.273 346.74 134.771 333.755 150.967 333.522C167.164 333.289 180.281 344.813 180.281 360.848C180.281 371.047 173.177 375.782 164.624 375.602C161.892 375.782 161.342 374.691 161.712 370.867C162.009 367.69 165.015 354.631 166.074 350.055C166.175 349.672 166.185 349.27 166.103 348.882C166.021 348.494 165.849 348.131 165.601 347.822C165.352 347.512 165.035 347.266 164.674 347.102C164.313 346.938 163.919 346.861 163.523 346.878H163.343C162.78 346.946 162.257 347.201 161.858 347.602C161.458 348.004 161.206 348.529 161.141 349.091C161.045 349.829 160.992 350.572 160.982 351.316C159.97 349.54 158.509 348.063 156.745 347.031C154.982 345.999 152.978 345.45 150.936 345.437C141.281 345.617 132.939 354.366 132.547 367.118C132.547 375.676 137.099 380.601 144.933 380.601C147.241 380.55 149.502 379.946 151.528 378.84C153.554 377.735 155.286 376.159 156.578 374.246C156.578 374.246 156.398 379.679 163.004 380.05ZM145.706 376.227C140.794 376.227 137.872 372.583 137.872 366.758C137.872 356.738 144.605 350.362 150.978 350.362C156.62 350.362 158.812 354.186 158.992 359.291C158.949 367.478 153.667 376.227 145.664 376.227H145.706Z" fill="#00BFA6" fill-opacity="0.5"/>
<g opacity="0.5">
<path opacity="0.5" d="M291.914 475.276C308.09 475.276 315.585 466.591 315.585 454.952C315.585 434.627 299.208 420 278.893 420C269.108 420 259.724 423.889 252.806 430.811C245.887 437.733 242 447.122 242 456.911C242 466.7 245.887 476.089 252.806 483.011C259.724 489.933 269.108 493.822 278.893 493.822C286.395 493.757 293.692 491.366 299.779 486.98C300.082 486.766 300.34 486.494 300.536 486.179C300.732 485.864 300.864 485.514 300.923 485.148C300.983 484.838 300.962 484.518 300.862 484.219C300.762 483.921 300.586 483.653 300.351 483.442C300.108 483.237 299.826 483.084 299.521 482.993C299.216 482.901 298.896 482.874 298.58 482.912C298.265 482.949 297.96 483.052 297.686 483.212C297.411 483.373 297.172 483.588 296.985 483.845C295.64 485.603 291.628 488.6 279.772 488.865C275.507 488.975 271.263 488.235 267.287 486.689C263.311 485.142 259.682 482.82 256.611 479.857C253.541 476.894 251.09 473.35 249.401 469.431C247.712 465.512 246.819 461.295 246.774 457.027C246.711 439.213 261.341 425.147 278.935 424.946C296.529 424.745 310.694 437.179 310.694 454.602C310.694 465.659 302.998 470.786 293.756 470.584C290.792 470.786 290.21 469.599 290.58 465.448C290.908 462.048 294.158 447.855 295.312 442.899C295.412 442.487 295.415 442.058 295.322 441.644C295.228 441.231 295.04 440.845 294.773 440.517C294.505 440.189 294.165 439.927 293.779 439.752C293.393 439.577 292.972 439.494 292.549 439.509H292.348C291.737 439.582 291.168 439.859 290.734 440.295C290.299 440.731 290.025 441.302 289.955 441.914C289.853 442.711 289.796 443.514 289.786 444.318C288.704 442.378 287.133 440.756 285.229 439.613C283.325 438.47 281.155 437.846 278.935 437.804C268.476 438.005 259.404 447.474 259.012 461.296C259.012 470.574 263.945 475.901 272.425 475.901C274.929 475.846 277.382 475.189 279.58 473.988C281.778 472.786 283.655 471.074 285.054 468.996C285.054 468.996 284.811 474.884 291.914 475.276ZM273.176 471.135C267.883 471.135 264.707 467.185 264.707 460.872C264.707 450.016 272.012 443.11 278.914 443.11C285.033 443.11 287.383 447.252 287.595 452.78C287.574 461.656 281.846 471.135 273.166 471.135H273.176Z" fill="url(#paint4_linear)"/>
</g>
<path d="M292.076 471.008C307.003 471.008 313.926 462.99 313.926 452.24C313.926 433.472 298.809 420 280.051 420C271.02 420 262.359 423.589 255.973 429.978C249.588 436.367 246 445.032 246 454.067C246 463.102 249.588 471.767 255.973 478.156C262.359 484.545 271.02 488.134 280.051 488.134C286.979 488.062 293.714 485.842 299.328 481.779C299.607 481.583 299.845 481.333 300.026 481.044C300.208 480.755 300.331 480.432 300.387 480.095C300.442 479.812 300.423 479.518 300.332 479.244C300.242 478.969 300.082 478.723 299.868 478.528C299.645 478.334 299.384 478.19 299.102 478.103C298.82 478.016 298.523 477.989 298.23 478.024C297.937 478.059 297.654 478.155 297.4 478.306C297.146 478.456 296.927 478.658 296.756 478.899C295.517 480.53 291.812 483.283 280.876 483.538C276.935 483.649 273.012 482.973 269.335 481.548C265.658 480.124 262.303 477.98 259.465 475.242C256.626 472.504 254.363 469.227 252.806 465.603C251.249 461.979 250.431 458.08 250.399 454.136C250.346 437.698 263.843 424.713 280.04 424.48C296.237 424.247 309.343 435.855 309.343 451.88C309.343 462.08 302.239 466.814 293.686 466.634C290.954 466.814 290.404 465.723 290.774 461.899C291.071 458.722 294.077 445.663 295.136 441.087C295.237 440.704 295.247 440.302 295.165 439.914C295.083 439.526 294.911 439.163 294.663 438.854C294.414 438.545 294.097 438.298 293.736 438.134C293.375 437.97 292.981 437.893 292.585 437.91H292.405C291.842 437.978 291.319 438.233 290.92 438.635C290.52 439.036 290.268 439.561 290.203 440.124C290.107 440.861 290.054 441.604 290.044 442.348C289.052 440.551 287.604 439.049 285.845 437.993C284.087 436.936 282.08 436.363 280.029 436.332C270.375 436.512 262.033 445.26 261.641 458.012C261.641 466.57 266.193 471.495 274.027 471.495C276.334 471.444 278.596 470.841 280.622 469.735C282.648 468.629 284.38 467.054 285.672 465.14C285.672 465.14 285.524 470.648 292.076 471.008ZM274.779 467.185C269.867 467.185 266.945 463.541 266.945 457.716C266.945 447.696 273.678 441.32 280.051 441.32C285.693 441.32 287.884 445.144 288.064 450.249C288.075 458.447 282.792 467.185 274.779 467.185Z" fill="#00BFA6" fill-opacity="0.5"/>
<path opacity="0.5" d="M262.091 334.55C272.751 334.55 277.695 328.82 277.695 321.152C277.695 307.754 266.897 298.115 253.505 298.115C247.251 298.407 241.35 301.099 237.027 305.63C232.704 310.162 230.292 316.185 230.292 322.449C230.292 328.713 232.704 334.737 237.027 339.268C241.35 343.8 247.251 346.491 253.505 346.783C258.448 346.738 263.256 345.162 267.267 342.271C267.467 342.13 267.636 341.95 267.765 341.743C267.894 341.536 267.98 341.305 268.019 341.063C268.06 340.86 268.047 340.65 267.982 340.453C267.917 340.256 267.802 340.08 267.648 339.941C267.488 339.804 267.302 339.702 267.101 339.641C266.9 339.58 266.688 339.562 266.479 339.587C266.27 339.612 266.069 339.679 265.888 339.786C265.706 339.892 265.549 340.035 265.425 340.206C264.547 341.371 261.9 343.383 254.077 343.521C251.311 343.558 248.564 343.05 245.993 342.026C243.423 341.001 241.08 339.48 239.097 337.55C235.093 333.651 232.8 328.32 232.725 322.73C232.649 317.14 234.796 311.749 238.693 307.742C242.59 303.736 247.918 301.443 253.505 301.367C265.076 301.24 274.445 309.438 274.445 320.887C274.445 328.174 269.374 331.552 263.255 331.478C261.307 331.605 260.916 330.832 261.138 328.1C261.35 325.854 263.499 316.502 264.25 313.272C264.316 313 264.318 312.718 264.256 312.445C264.194 312.173 264.07 311.919 263.894 311.703C263.717 311.486 263.493 311.314 263.24 311.198C262.986 311.083 262.708 311.028 262.429 311.037H262.302C261.9 311.084 261.526 311.266 261.24 311.552C260.954 311.838 260.772 312.213 260.725 312.615C260.659 313.142 260.624 313.673 260.619 314.204C259.907 312.924 258.871 311.854 257.615 311.101C256.359 310.348 254.927 309.939 253.463 309.914C246.571 310.041 240.59 316.269 240.325 325.399C240.325 331.51 243.575 335.026 249.165 335.026C250.815 334.989 252.432 334.556 253.88 333.763C255.328 332.971 256.564 331.842 257.486 330.472C257.486 330.472 257.412 334.285 262.091 334.55ZM249.737 331.817C246.222 331.817 244.147 329.212 244.147 325.049C244.147 317.89 248.964 313.335 253.516 313.335C257.549 313.335 259.105 316.068 259.243 319.69C259.232 325.568 255.464 331.817 249.737 331.817Z" fill="#00BFA6" fill-opacity="0.5"/>
<path opacity="0.5" d="M56.9515 375.21C67.6118 375.21 72.5556 369.48 72.5556 361.812C72.5556 348.414 61.7577 338.775 48.3661 338.775C42.1119 339.067 36.2104 341.759 31.8876 346.29C27.5647 350.822 25.1528 356.845 25.1528 363.109C25.1528 369.373 27.5647 375.397 31.8876 379.928C36.2104 384.459 42.1119 387.151 48.3661 387.443C53.3093 387.398 58.1172 385.822 62.1282 382.931C62.3276 382.79 62.4968 382.61 62.6258 382.403C62.7549 382.196 62.8413 381.965 62.8798 381.723C62.9204 381.52 62.9077 381.31 62.8427 381.113C62.7778 380.916 62.6629 380.74 62.5093 380.601C62.3493 380.464 62.1628 380.362 61.9615 380.301C61.7603 380.24 61.5486 380.222 61.3398 380.247C61.1311 380.271 60.9296 380.339 60.7483 380.446C60.567 380.552 60.4096 380.695 60.2861 380.865C59.4075 382.031 56.761 384.043 48.9378 384.181C46.1713 384.218 43.4245 383.71 40.8542 382.686C38.284 381.661 35.9405 380.14 33.9578 378.209C29.9534 374.31 27.6613 368.98 27.5854 363.39C27.5096 357.8 29.6564 352.409 33.5536 348.402C37.4507 344.396 42.779 342.103 48.3661 342.027C59.9368 341.9 69.3056 350.098 69.3056 361.547C69.3056 368.834 64.2348 372.212 58.116 372.138C56.1681 372.265 55.7764 371.492 55.9987 368.76C56.2105 366.514 58.3595 357.162 59.1111 353.932C59.1765 353.66 59.1784 353.377 59.1165 353.105C59.0546 352.833 58.9307 352.579 58.7544 352.363C58.5781 352.146 58.3543 351.974 58.1003 351.858C57.8464 351.743 57.5691 351.687 57.2903 351.697H57.1633C56.7613 351.744 56.3869 351.926 56.1007 352.212C55.8145 352.498 55.6332 352.873 55.5859 353.275C55.52 353.802 55.4847 354.333 55.48 354.864C54.7676 353.584 53.7315 352.514 52.4755 351.761C51.2195 351.008 49.7877 350.599 48.3238 350.574C41.4321 350.701 35.451 356.929 35.1863 366.059C35.1863 372.17 38.4363 375.686 44.0258 375.686C45.6758 375.649 47.2927 375.216 48.7406 374.423C50.1886 373.631 51.4251 372.502 52.3465 371.132C52.3465 371.132 52.2724 374.945 56.9515 375.21ZM44.5975 372.477C41.0828 372.477 39.0079 369.872 39.0079 365.709C39.0079 358.549 43.8246 353.995 48.3767 353.995C52.41 353.995 53.9662 356.728 54.1038 360.35C54.0933 366.228 50.3246 372.477 44.5975 372.477Z" fill="#00BFA6" fill-opacity="0.5"/>
<path opacity="0.5" d="M31.7987 194.172C42.459 194.172 47.4027 188.442 47.4027 180.774C47.4027 167.376 36.6048 157.738 23.2133 157.738C16.959 158.03 11.0576 160.721 6.73474 165.252C2.41191 169.784 0 175.807 0 182.071C0 188.335 2.41191 194.359 6.73474 198.89C11.0576 203.422 16.959 206.113 23.2133 206.405C28.1565 206.36 32.9644 204.784 36.9754 201.893C37.1748 201.752 37.344 201.573 37.4731 201.365C37.6021 201.158 37.6884 200.927 37.7269 200.686C37.7676 200.482 37.7549 200.272 37.6899 200.075C37.625 199.878 37.5101 199.702 37.3564 199.563C37.1965 199.426 37.01 199.324 36.8087 199.263C36.6075 199.203 36.3958 199.184 36.187 199.209C35.9782 199.234 35.7768 199.302 35.5955 199.408C35.4142 199.514 35.2568 199.657 35.1334 199.828C34.2547 200.993 31.6081 203.005 23.7849 203.143C21.0184 203.18 18.2717 202.672 15.7014 201.648C13.1311 200.623 10.7877 199.102 8.80494 197.172C6.82219 195.241 5.23894 192.939 4.14557 190.396C3.0522 187.853 2.47015 185.12 2.43261 182.352C2.39508 179.584 2.90278 176.836 3.92679 174.264C4.9508 171.693 6.47106 169.348 8.40072 167.365C10.3304 165.381 12.6317 163.797 15.1733 162.703C17.7148 161.609 20.4468 161.027 23.2133 160.989C34.784 160.862 44.1528 169.06 44.1528 180.509C44.1528 187.796 39.082 191.175 32.9632 191.1C31.0153 191.227 30.6236 190.454 30.8459 187.722C31.0576 185.476 33.2066 176.124 33.9583 172.894C34.0237 172.622 34.0256 172.34 33.9637 172.067C33.9018 171.795 33.7779 171.541 33.6017 171.325C33.4254 171.108 33.2015 170.936 32.9475 170.82C32.6935 170.705 32.4163 170.65 32.1375 170.659H32.0104C31.6084 170.706 31.2341 170.888 30.9479 171.174C30.6617 171.46 30.4803 171.835 30.4331 172.237C30.3672 172.764 30.3318 173.295 30.3272 173.826C29.6148 172.546 28.5787 171.476 27.3227 170.723C26.0667 169.97 24.6349 169.561 23.1709 169.536C16.2793 169.663 10.2981 175.891 10.0335 185.021C10.0335 191.132 13.2834 194.648 18.8729 194.648C20.5229 194.611 22.1399 194.178 23.5878 193.385C25.0357 192.593 26.2724 191.464 27.1937 190.094C27.1937 190.094 27.1196 193.907 31.7987 194.172ZM19.4446 191.439C15.93 191.439 13.8551 188.834 13.8551 184.671C13.8551 177.512 18.6718 172.957 23.2239 172.957C27.2572 172.957 28.8134 175.69 28.951 179.312C28.9404 185.19 25.1612 191.439 19.4446 191.439Z" fill="#00BFA6" fill-opacity="0.5"/>
<path opacity="0.5" d="M438.245 199.976C448.905 199.976 453.849 194.246 453.849 186.578C453.849 173.18 443.051 163.542 429.66 163.542C423.405 163.833 417.504 166.525 413.181 171.056C408.858 175.588 406.446 181.611 406.446 187.875C406.446 194.139 408.858 200.163 413.181 204.694C417.504 209.226 423.405 211.917 429.66 212.209C434.603 212.164 439.411 210.588 443.422 207.697C443.621 207.556 443.79 207.377 443.919 207.169C444.048 206.962 444.135 206.731 444.173 206.489C444.214 206.286 444.201 206.076 444.136 205.879C444.071 205.682 443.956 205.506 443.803 205.367C443.643 205.23 443.456 205.128 443.255 205.067C443.054 205.007 442.842 204.988 442.633 205.013C442.424 205.038 442.223 205.105 442.042 205.212C441.86 205.318 441.703 205.461 441.58 205.632C440.701 206.797 438.054 208.809 430.231 208.947C424.644 209.023 419.256 206.875 415.251 202.976C411.247 199.077 408.955 193.746 408.879 188.156C408.803 182.566 410.95 177.175 414.847 173.169C418.744 169.162 424.072 166.869 429.66 166.793C441.23 166.666 450.599 174.864 450.599 186.313C450.599 193.6 445.528 196.978 439.409 196.904C437.462 197.031 437.07 196.258 437.292 193.526C437.504 191.28 439.653 181.928 440.405 178.698C440.47 178.426 440.472 178.144 440.41 177.871C440.348 177.599 440.224 177.345 440.048 177.129C439.872 176.912 439.648 176.74 439.394 176.624C439.14 176.509 438.863 176.454 438.584 176.463H438.457C438.055 176.51 437.68 176.692 437.394 176.978C437.108 177.264 436.927 177.639 436.879 178.041C436.813 178.568 436.778 179.099 436.773 179.63C436.061 178.35 435.025 177.28 433.769 176.527C432.513 175.774 431.081 175.365 429.617 175.34C422.726 175.467 416.744 181.695 416.48 190.825C416.48 196.936 419.73 200.452 425.319 200.452C426.969 200.415 428.586 199.982 430.034 199.189C431.482 198.397 432.719 197.268 433.64 195.898C433.64 195.898 433.524 199.722 438.245 199.976ZM425.891 197.243C422.376 197.243 420.301 194.638 420.301 190.475C420.301 183.316 425.118 178.761 429.67 178.761C433.704 178.761 435.26 181.494 435.397 185.116C435.344 191.005 431.565 197.243 425.849 197.243H425.891Z" fill="#00BFA6" fill-opacity="0.5"/>
<path opacity="0.3" d="M52.2089 247.901C58.1796 247.901 60.9531 244.724 60.9531 240.392C60.9531 232.883 54.9084 227.492 47.4028 227.492C43.8565 227.591 40.4887 229.07 38.0153 231.614C35.5419 234.159 34.1581 237.568 34.1581 241.118C34.1581 244.667 35.5419 248.077 38.0153 250.621C40.4887 253.166 43.8565 254.645 47.4028 254.744C50.1703 254.72 52.8627 253.84 55.1096 252.223C55.3338 252.061 55.4857 251.818 55.533 251.545C55.5548 251.431 55.5468 251.314 55.5097 251.204C55.4726 251.095 55.4077 250.997 55.3213 250.92C55.2314 250.843 55.1266 250.786 55.0135 250.752C54.9005 250.718 54.7816 250.707 54.6643 250.721C54.547 250.735 54.4339 250.773 54.332 250.833C54.2301 250.893 54.1416 250.973 54.0721 251.068C53.5745 251.714 52.0924 252.826 47.7203 252.922C46.145 252.985 44.5729 252.732 43.0968 252.178C41.6208 251.623 40.2707 250.779 39.1264 249.694C37.982 248.608 37.0665 247.305 36.4339 245.86C35.8014 244.415 35.4645 242.858 35.4433 241.281C35.4221 239.704 35.7169 238.138 36.3104 236.677C36.9039 235.215 37.784 233.888 38.8987 232.772C40.0135 231.657 41.3404 230.776 42.801 230.182C44.2616 229.588 45.8263 229.293 47.4028 229.314C53.8815 229.239 59.1323 233.836 59.1323 240.244C59.1323 244.322 56.2952 246.217 52.8653 246.143C51.8067 246.217 51.5526 245.783 51.7008 244.247C51.8172 242.987 53.0241 237.755 53.4475 235.923C53.4757 235.769 53.4694 235.61 53.429 235.459C53.3886 235.307 53.3151 235.167 53.2138 235.047C53.1125 234.928 52.986 234.832 52.8434 234.767C52.7007 234.703 52.5455 234.67 52.3889 234.673H52.3148C52.0929 234.709 51.8881 234.814 51.7302 234.974C51.5722 235.134 51.4692 235.34 51.4361 235.563C51.3978 235.858 51.3766 236.155 51.3726 236.452C50.9743 235.736 50.3951 235.137 49.6929 234.715C48.9906 234.293 48.19 234.063 47.371 234.048C43.5071 234.122 40.1618 237.617 40.0136 242.722C40.0136 246.143 41.8344 248.113 44.968 248.113C45.8918 248.091 46.7968 247.848 47.6073 247.404C48.4177 246.96 49.11 246.328 49.6259 245.561C49.6274 245.889 49.6971 246.213 49.8307 246.512C49.9643 246.812 50.1588 247.08 50.4018 247.301C50.6448 247.521 50.931 247.688 51.2421 247.791C51.5533 247.895 51.8825 247.932 52.2089 247.901ZM45.2855 246.376C43.3165 246.376 42.1097 244.915 42.1097 242.585C42.1097 238.581 44.8092 236.029 47.4028 236.029C49.6576 236.029 50.5786 237.554 50.5786 239.598C50.6104 242.871 48.4932 246.376 45.2961 246.376H45.2855Z" fill="#00BFA6" fill-opacity="0.5"/>
<path opacity="0.3" d="M121.877 305.021C127.847 305.021 130.621 301.844 130.621 297.512C130.621 290.003 124.576 284.612 117.07 284.612C113.524 284.711 110.156 286.189 107.683 288.734C105.21 291.279 103.826 294.688 103.826 298.237C103.826 301.787 105.21 305.196 107.683 307.741C110.156 310.285 113.524 311.764 117.07 311.863C119.838 311.84 122.53 310.959 124.777 309.342C125.001 309.18 125.153 308.937 125.201 308.665C125.223 308.551 125.215 308.434 125.177 308.324C125.14 308.215 125.075 308.117 124.989 308.04C124.899 307.963 124.794 307.906 124.681 307.872C124.568 307.837 124.449 307.827 124.332 307.841C124.215 307.855 124.102 307.893 124 307.953C123.898 308.012 123.809 308.092 123.74 308.188C123.242 308.834 121.76 309.946 117.388 310.041C115.813 310.105 114.241 309.852 112.765 309.297C111.289 308.743 109.938 307.898 108.794 306.813C107.65 305.728 106.734 304.425 106.102 302.98C105.469 301.535 105.132 299.978 105.111 298.401C105.09 296.823 105.385 295.258 105.978 293.796C106.572 292.335 107.452 291.007 108.566 289.892C109.681 288.776 111.008 287.896 112.469 287.302C113.929 286.708 115.494 286.412 117.07 286.433C123.549 286.359 128.8 290.956 128.8 297.364C128.8 301.441 125.963 303.337 122.533 303.263C121.474 303.337 121.22 302.903 121.368 301.367C121.485 300.107 122.692 294.875 123.115 293.042C123.143 292.888 123.137 292.73 123.097 292.578C123.056 292.427 122.983 292.286 122.882 292.167C122.78 292.047 122.654 291.952 122.511 291.887C122.368 291.822 122.213 291.79 122.057 291.793H121.983C121.761 291.828 121.556 291.934 121.398 292.094C121.24 292.254 121.137 292.46 121.104 292.682C121.065 292.977 121.044 293.274 121.04 293.572C120.642 292.856 120.063 292.257 119.361 291.835C118.658 291.413 117.858 291.183 117.039 291.168C113.175 291.242 109.83 294.737 109.681 299.842C109.681 303.263 111.502 305.233 114.636 305.233C115.559 305.211 116.465 304.968 117.275 304.524C118.085 304.079 118.778 303.447 119.294 302.68C119.295 303.008 119.365 303.333 119.498 303.632C119.632 303.932 119.827 304.2 120.07 304.42C120.313 304.64 120.599 304.808 120.91 304.911C121.221 305.015 121.55 305.052 121.877 305.021ZM114.953 303.496C112.984 303.496 111.777 302.034 111.777 299.704C111.777 295.701 114.477 293.148 117.07 293.148C119.325 293.148 120.246 294.673 120.246 296.717C120.278 299.99 118.171 303.485 114.964 303.485L114.953 303.496Z" fill="#00BFA6" fill-opacity="0.5"/>
<path opacity="0.3" d="M329.917 235.287C335.887 235.287 338.661 232.11 338.661 227.778C338.661 220.269 332.616 214.878 325.11 214.878C321.564 214.977 318.196 216.456 315.723 219C313.249 221.545 311.866 224.954 311.866 228.503C311.866 232.053 313.249 235.462 315.723 238.007C318.196 240.551 321.564 242.03 325.11 242.129C327.878 242.106 330.57 241.225 332.817 239.609C333.041 239.447 333.193 239.203 333.241 238.931C333.262 238.817 333.254 238.7 333.217 238.59C333.18 238.481 333.115 238.383 333.029 238.306C332.939 238.229 332.834 238.172 332.721 238.138C332.608 238.104 332.489 238.093 332.372 238.107C332.255 238.121 332.141 238.159 332.04 238.219C331.938 238.278 331.849 238.359 331.78 238.454C331.282 239.1 329.8 240.212 325.428 240.308C323.853 240.371 322.281 240.118 320.804 239.564C319.328 239.009 317.978 238.164 316.834 237.079C315.69 235.994 314.774 234.691 314.142 233.246C313.509 231.801 313.172 230.244 313.151 228.667C313.13 227.089 313.425 225.524 314.018 224.062C314.612 222.601 315.492 221.273 316.606 220.158C317.721 219.042 319.048 218.162 320.509 217.568C321.969 216.974 323.534 216.678 325.11 216.699C331.589 216.625 336.84 221.222 336.84 227.63C336.84 231.707 334.003 233.603 330.573 233.529C329.514 233.603 329.26 233.169 329.408 231.633C329.525 230.373 330.732 225.141 331.155 223.308C331.183 223.154 331.177 222.996 331.137 222.844C331.096 222.693 331.023 222.552 330.921 222.433C330.82 222.313 330.694 222.218 330.551 222.153C330.408 222.088 330.253 222.056 330.097 222.059H330.022C329.801 222.094 329.596 222.2 329.438 222.36C329.28 222.52 329.177 222.726 329.144 222.948C329.105 223.243 329.084 223.54 329.08 223.838C328.682 223.122 328.103 222.523 327.4 222.101C326.698 221.679 325.898 221.449 325.079 221.434C321.215 221.508 317.869 225.003 317.721 230.108C317.721 233.529 319.542 235.499 322.676 235.499C323.599 235.477 324.504 235.234 325.315 234.79C326.125 234.346 326.818 233.714 327.333 232.947C327.335 233.275 327.405 233.599 327.538 233.898C327.672 234.198 327.866 234.466 328.109 234.686C328.352 234.907 328.639 235.074 328.95 235.177C329.261 235.281 329.59 235.318 329.917 235.287ZM322.993 233.762C321.024 233.762 319.817 232.3 319.817 229.97C319.817 225.967 322.517 223.414 325.11 223.414C327.365 223.414 328.286 224.939 328.286 226.984C328.318 230.288 326.211 233.783 323.004 233.783L322.993 233.762Z" fill="#00BFA6" fill-opacity="0.5"/>
<path opacity="0.3" d="M166.051 439.41C172.021 439.41 174.795 436.232 174.795 431.9C174.795 424.391 168.75 419 161.245 419C157.698 419.099 154.331 420.578 151.857 423.122C149.384 425.667 148 429.076 148 432.626C148 436.175 149.384 439.585 151.857 442.129C154.331 444.674 157.698 446.153 161.245 446.252C164.012 446.228 166.705 445.348 168.951 443.731C169.176 443.569 169.328 443.326 169.375 443.053C169.397 442.939 169.389 442.822 169.352 442.713C169.314 442.603 169.25 442.505 169.163 442.428C169.073 442.351 168.968 442.294 168.855 442.26C168.742 442.226 168.623 442.215 168.506 442.229C168.389 442.243 168.276 442.281 168.174 442.341C168.072 442.401 167.983 442.481 167.914 442.576C167.416 443.222 165.934 444.335 161.562 444.43C159.987 444.493 158.415 444.24 156.939 443.686C155.463 443.131 154.113 442.287 152.968 441.202C151.824 440.116 150.908 438.813 150.276 437.368C149.643 435.923 149.306 434.366 149.285 432.789C149.264 431.212 149.559 429.646 150.152 428.185C150.746 426.723 151.626 425.396 152.741 424.28C153.855 423.165 155.182 422.284 156.643 421.69C158.103 421.096 159.668 420.801 161.245 420.822C167.723 420.748 172.974 425.344 172.974 431.752C172.974 435.83 170.137 437.726 166.707 437.651C165.649 437.726 165.394 437.291 165.543 435.756C165.659 434.495 166.866 429.263 167.289 427.431C167.318 427.277 167.311 427.118 167.271 426.967C167.23 426.815 167.157 426.675 167.056 426.555C166.954 426.436 166.828 426.34 166.685 426.275C166.543 426.211 166.387 426.178 166.231 426.181H166.157C165.935 426.217 165.73 426.322 165.572 426.482C165.414 426.642 165.311 426.848 165.278 427.071C165.24 427.366 165.218 427.663 165.215 427.96C164.816 427.244 164.237 426.645 163.535 426.223C162.833 425.801 162.032 425.571 161.213 425.556C157.349 425.63 154.004 429.125 153.856 434.23C153.856 437.651 155.676 439.621 158.81 439.621C159.734 439.599 160.639 439.356 161.449 438.912C162.26 438.468 162.952 437.836 163.468 437.069C163.469 437.397 163.539 437.721 163.673 438.021C163.806 438.32 164.001 438.589 164.244 438.809C164.487 439.029 164.773 439.196 165.084 439.3C165.395 439.403 165.724 439.44 166.051 439.41ZM159.127 437.884C157.158 437.884 155.952 436.423 155.952 434.093C155.952 430.089 158.651 427.537 161.245 427.537C163.5 427.537 164.421 429.062 164.421 431.106C164.452 434.41 162.346 437.906 159.138 437.906L159.127 437.884Z" fill="#00BFA6" fill-opacity="0.5"/>
<path opacity="0.3" d="M189.618 175.298C195.588 175.298 198.362 172.121 198.362 167.789C198.362 160.279 192.317 154.888 184.812 154.888C181.265 154.987 177.897 156.466 175.424 159.011C172.951 161.555 171.567 164.965 171.567 168.514C171.567 172.064 172.951 175.473 175.424 178.018C177.897 180.562 181.265 182.041 184.812 182.14C187.579 182.117 190.272 181.236 192.518 179.619C192.743 179.457 192.895 179.214 192.942 178.941C192.964 178.828 192.956 178.711 192.919 178.601C192.881 178.491 192.816 178.393 192.73 178.317C192.64 178.24 192.535 178.183 192.422 178.149C192.309 178.114 192.19 178.104 192.073 178.118C191.956 178.132 191.843 178.17 191.741 178.229C191.639 178.289 191.55 178.369 191.481 178.465C190.983 179.111 189.501 180.223 185.129 180.318C183.554 180.382 181.982 180.129 180.506 179.574C179.03 179.02 177.68 178.175 176.535 177.09C175.391 176.005 174.475 174.701 173.843 173.257C173.21 171.812 172.873 170.255 172.852 168.677C172.831 167.1 173.126 165.535 173.719 164.073C174.313 162.612 175.193 161.284 176.308 160.169C177.422 159.053 178.749 158.172 180.21 157.578C181.67 156.984 183.235 156.689 184.812 156.71C191.29 156.636 196.541 161.233 196.541 167.64C196.541 171.718 193.704 173.614 190.274 173.54C189.215 173.614 188.961 173.18 189.11 171.644C189.226 170.384 190.433 165.151 190.856 163.319C190.885 163.165 190.878 163.007 190.838 162.855C190.797 162.704 190.724 162.563 190.623 162.444C190.521 162.324 190.395 162.228 190.252 162.164C190.11 162.099 189.954 162.067 189.798 162.069H189.724C189.502 162.105 189.297 162.211 189.139 162.371C188.981 162.531 188.878 162.737 188.845 162.959C188.807 163.254 188.785 163.551 188.781 163.849C188.383 163.133 187.804 162.534 187.102 162.112C186.399 161.69 185.599 161.46 184.78 161.444C180.916 161.519 177.571 165.014 177.422 170.119C177.422 173.54 179.243 175.51 182.377 175.51C183.301 175.488 184.206 175.245 185.016 174.8C185.827 174.356 186.519 173.724 187.035 172.957C187.036 173.285 187.106 173.609 187.24 173.909C187.373 174.209 187.568 174.477 187.811 174.697C188.054 174.917 188.34 175.085 188.651 175.188C188.962 175.291 189.291 175.329 189.618 175.298ZM182.694 173.773C180.725 173.773 179.518 172.311 179.518 169.981C179.518 165.978 182.218 163.425 184.812 163.425C187.066 163.425 187.987 164.95 187.987 166.994C188.009 170.267 185.902 173.762 182.694 173.762V173.773Z" fill="#00BFA6" fill-opacity="0.5"/>
<path opacity="0.5" d="M262.091 129.31C272.751 129.31 277.695 123.58 277.695 115.912C277.695 102.514 266.897 92.8757 253.505 92.8757C247.251 93.1677 241.35 95.8589 237.027 100.39C232.704 104.922 230.292 110.945 230.292 117.209C230.292 123.474 232.704 129.497 237.027 134.028C241.35 138.56 247.251 141.251 253.505 141.543C258.448 141.498 263.256 139.922 267.267 137.031C267.467 136.89 267.636 136.711 267.765 136.503C267.894 136.296 267.98 136.065 268.019 135.824C268.06 135.621 268.047 135.41 267.982 135.213C267.917 135.017 267.802 134.84 267.648 134.701C267.488 134.565 267.302 134.463 267.101 134.402C266.9 134.341 266.688 134.322 266.479 134.347C266.27 134.372 266.069 134.44 265.888 134.546C265.706 134.653 265.549 134.796 265.425 134.966C264.547 136.131 261.9 138.143 254.077 138.281C251.311 138.318 248.564 137.811 245.993 136.786C243.423 135.761 241.08 134.24 239.097 132.31C237.114 130.379 235.531 128.077 234.438 125.534C233.344 122.991 232.762 120.258 232.725 117.49C232.687 114.722 233.195 111.974 234.219 109.403C235.243 106.831 236.763 104.486 238.693 102.503C240.622 100.519 242.924 98.935 245.465 97.8411C248.007 96.7472 250.739 96.1648 253.505 96.1273C265.076 96.0002 274.445 104.198 274.445 115.647C274.445 122.934 269.374 126.313 263.255 126.239C261.307 126.366 260.916 125.592 261.138 122.86C261.35 120.615 263.499 111.262 264.25 108.032C264.316 107.761 264.318 107.478 264.256 107.206C264.194 106.933 264.07 106.679 263.894 106.463C263.717 106.247 263.493 106.074 263.24 105.958C262.986 105.843 262.708 105.788 262.429 105.797H262.302C261.9 105.844 261.526 106.026 261.24 106.312C260.954 106.599 260.772 106.973 260.725 107.375C260.659 107.902 260.624 108.433 260.619 108.964C259.907 107.684 258.871 106.614 257.615 105.861C256.359 105.109 254.927 104.699 253.463 104.675C246.571 104.802 240.59 111.029 240.325 120.159C240.325 126.27 243.575 129.787 249.165 129.787C250.815 129.749 252.432 129.316 253.88 128.524C255.328 127.731 256.564 126.602 257.486 125.232C257.486 125.232 257.412 129.045 262.091 129.31ZM249.737 126.577C246.222 126.577 244.147 123.972 244.147 119.81C244.147 112.65 248.964 108.096 253.516 108.096C257.549 108.096 259.105 110.828 259.243 114.45C259.232 120.329 255.464 126.577 249.737 126.577Z" fill="#00BFA6" fill-opacity="0.5"/>
<g opacity="0.5">
<path opacity="0.5" d="M442.395 384.703C475.381 384.703 490.668 366.994 490.668 343.248C490.668 301.794 457.279 272 415.834 272C374.389 272 341 305.808 341 347.273C341 388.738 374.389 422.546 415.834 422.546C431.13 422.413 446.009 417.539 458.422 408.597C459.038 408.161 459.561 407.607 459.961 406.967C460.361 406.327 460.629 405.614 460.751 404.869C460.873 404.241 460.83 403.592 460.628 402.986C460.426 402.379 460.071 401.835 459.597 401.405C459.102 400.985 458.526 400.671 457.904 400.483C457.283 400.296 456.629 400.238 455.984 400.315C455.339 400.391 454.717 400.6 454.157 400.928C453.596 401.256 453.109 401.696 452.727 402.221C449.995 405.811 441.812 411.912 417.623 412.463C381.016 413.289 350.39 384.131 350.274 347.506C350.157 311.177 379.978 282.485 415.855 282.083C451.732 281.681 480.632 307.036 480.632 342.454C480.632 364.992 464.943 375.456 446.036 375.054C440.002 375.456 438.795 373.042 439.6 364.59C440.256 357.652 446.894 328.717 449.244 318.591C449.447 317.752 449.453 316.877 449.262 316.035C449.071 315.192 448.687 314.406 448.142 313.736C447.597 313.066 446.904 312.532 446.118 312.175C445.333 311.817 444.475 311.646 443.612 311.675H443.21C441.967 311.826 440.811 312.391 439.928 313.278C439.045 314.166 438.485 315.325 438.34 316.568C438.133 318.195 438.02 319.833 438.001 321.472C434.381 314.228 425.933 308.593 415.876 308.191C394.556 308.593 376.051 327.912 375.246 356.085C375.246 375.001 385.303 385.868 402.601 385.868C414.669 385.868 423.519 378.623 428.347 371.781C428.304 371.824 427.902 383.898 442.395 384.703ZM404.178 376.23C393.317 376.23 386.881 368.18 386.881 355.301C386.881 333.165 401.765 319.079 415.844 319.079C428.315 319.079 433.142 327.552 433.544 338.8C433.502 356.922 421.857 376.251 404.168 376.251L404.178 376.23Z" fill="url(#paint5_linear)"/>
</g>
<path d="M441.795 382.72C473.617 382.72 488.374 365.637 488.374 342.727C488.374 302.734 456.161 274 416.187 274C376.214 274 344 306.611 344 346.604C344 386.597 376.214 419.208 416.187 419.208C430.939 419.079 445.289 414.38 457.262 405.757C457.856 405.336 458.361 404.8 458.746 404.182C459.131 403.564 459.39 402.875 459.506 402.156C459.625 401.549 459.585 400.922 459.391 400.336C459.196 399.749 458.853 399.223 458.394 398.809C457.917 398.403 457.362 398.099 456.762 397.918C456.163 397.737 455.532 397.681 454.91 397.754C454.288 397.828 453.688 398.029 453.147 398.346C452.606 398.662 452.137 399.086 451.767 399.592C449.132 403.056 441.234 408.945 417.892 409.474C382.576 410.279 353.041 382.148 352.924 346.816C352.808 311.769 381.57 284.094 416.187 283.702C450.804 283.31 478.646 307.776 478.646 341.954C478.646 363.698 463.508 373.792 445.268 373.4C439.445 373.792 438.281 371.462 439.053 363.306C439.689 356.613 446.083 328.704 448.348 318.939C448.543 318.13 448.548 317.287 448.363 316.476C448.178 315.664 447.809 314.907 447.283 314.262C446.757 313.617 446.09 313.102 445.332 312.758C444.575 312.414 443.749 312.249 442.917 312.277H442.526C441.326 312.422 440.209 312.966 439.356 313.823C438.504 314.68 437.964 315.8 437.825 317.001C437.625 318.571 437.515 320.152 437.497 321.735C434.004 314.745 425.852 309.312 416.155 308.92C395.586 309.312 377.738 327.984 376.987 355.13C376.987 373.379 386.683 383.864 403.378 383.864C415.023 383.864 423.555 376.874 428.213 370.276C428.213 370.297 427.821 381.937 441.795 382.72ZM404.924 374.565C394.443 374.565 388.24 366.802 388.24 354.378C388.24 333.026 402.595 319.426 416.187 319.426C428.213 319.426 432.871 327.582 433.263 338.491C433.252 355.924 421.999 374.565 404.924 374.565Z" fill="#00BFA6" fill-opacity="0.5"/>
<path opacity="0.5" d="M90.7987 473.434C101.459 473.434 106.403 467.704 106.403 460.036C106.403 446.638 95.6048 437 82.2133 437C75.9591 437.292 70.0576 439.983 65.7347 444.515C61.4119 449.046 59 455.07 59 461.334C59 467.598 61.4119 473.621 65.7347 478.153C70.0576 482.684 75.9591 485.375 82.2133 485.667C87.1565 485.623 91.9644 484.046 95.9754 481.155C96.1748 481.014 96.3439 480.835 96.473 480.628C96.6021 480.42 96.6884 480.189 96.7269 479.948C96.7676 479.745 96.7549 479.534 96.69 479.338C96.625 479.141 96.5101 478.964 96.3565 478.825C96.1965 478.689 96.01 478.587 95.8088 478.526C95.6075 478.465 95.3957 478.446 95.187 478.471C94.9782 478.496 94.7768 478.564 94.5955 478.67C94.4142 478.777 94.2569 478.92 94.1334 479.09C93.2547 480.255 90.6081 482.267 82.7849 482.405C77.1978 482.481 71.8093 480.333 67.8049 476.434C63.8006 472.535 61.5084 467.204 61.4326 461.614C61.3568 456.024 63.5036 450.633 67.4007 446.627C71.2979 442.621 76.6261 440.327 82.2133 440.252C93.784 440.124 103.153 448.322 103.153 459.771C103.153 467.058 98.082 470.437 91.9632 470.363C90.0153 470.49 89.6236 469.717 89.8459 466.984C90.0576 464.739 92.2067 455.387 92.9583 452.156C93.0237 451.885 93.0255 451.602 92.9636 451.33C92.9018 451.058 92.7779 450.804 92.6017 450.587C92.4254 450.371 92.2015 450.198 91.9475 450.083C91.6935 449.967 91.4162 449.912 91.1374 449.921H91.0104C90.6084 449.969 90.2341 450.15 89.9479 450.437C89.6617 450.723 89.4803 451.097 89.433 451.5C89.3672 452.027 89.3318 452.557 89.3272 453.088C88.6148 451.808 87.5787 450.739 86.3227 449.986C85.0667 449.233 83.6349 448.823 82.1709 448.799C75.2793 448.926 69.2981 455.154 69.0335 464.283C69.0335 470.395 72.2834 473.911 77.8729 473.911C79.5229 473.873 81.1399 473.44 82.5878 472.648C84.0357 471.855 85.2724 470.727 86.1937 469.357C86.1937 469.357 86.0773 473.18 90.7987 473.434ZM78.4446 470.702C74.93 470.702 72.8551 468.096 72.8551 463.934C72.8551 456.774 77.6718 452.22 82.2239 452.22C86.2573 452.22 87.8134 454.952 87.951 458.575C87.8981 464.463 84.1188 470.702 78.4022 470.702H78.4446Z" fill="#00BFA6" fill-opacity="0.5"/>
<defs>
<linearGradient id="paint0_linear" x1="87516" y1="50328.4" x2="87516" y2="36226.1" gradientUnits="userSpaceOnUse">
<stop stop-color="#808080" stop-opacity="0.25"/>
<stop offset="0.54" stop-color="#808080" stop-opacity="0.12"/>
<stop offset="1" stop-color="#808080" stop-opacity="0.1"/>
</linearGradient>
<linearGradient id="paint1_linear" x1="59377.9" y1="33654.3" x2="59377.9" y2="28976.2" gradientUnits="userSpaceOnUse">
<stop stop-color="#808080" stop-opacity="0.25"/>
<stop offset="0.54" stop-color="#808080" stop-opacity="0.12"/>
<stop offset="1" stop-color="#808080" stop-opacity="0.1"/>
</linearGradient>
<linearGradient id="paint2_linear" x1="55217.9" y1="37081.4" x2="55217.9" y2="32015.4" gradientUnits="userSpaceOnUse">
<stop stop-color="#808080" stop-opacity="0.25"/>
<stop offset="0.54" stop-color="#808080" stop-opacity="0.12"/>
<stop offset="1" stop-color="#808080" stop-opacity="0.1"/>
</linearGradient>
<linearGradient id="paint3_linear" x1="55217.9" y1="45028" x2="55217.9" y2="39962" gradientUnits="userSpaceOnUse">
<stop stop-color="#808080" stop-opacity="0.25"/>
<stop offset="0.54" stop-color="#808080" stop-opacity="0.12"/>
<stop offset="1" stop-color="#808080" stop-opacity="0.1"/>
</linearGradient>
<linearGradient id="paint4_linear" x1="66934.7" y1="49741.9" x2="66934.7" y2="44596.5" gradientUnits="userSpaceOnUse">
<stop stop-color="#808080" stop-opacity="0.25"/>
<stop offset="0.54" stop-color="#808080" stop-opacity="0.12"/>
<stop offset="1" stop-color="#808080" stop-opacity="0.1"/>
</linearGradient>
<linearGradient id="paint5_linear" x1="150354" y1="90206.5" x2="150354" y2="68809.5" gradientUnits="userSpaceOnUse">
<stop stop-color="#808080" stop-opacity="0.25"/>
<stop offset="0.54" stop-color="#808080" stop-opacity="0.12"/>
<stop offset="1" stop-color="#808080" stop-opacity="0.1"/>
</linearGradient>
</defs>
</svg>
