<svg width="68" height="69" viewBox="0 0 68 69" fill="none" xmlns="http://www.w3.org/2000/svg">
<path id="l-mail" d="M46.0764 51.008C61.0029 51.008 67.9263 42.9904 67.9263 32.2401C67.9263 13.4722 52.8093 0 34.0505 0C25.0198 0 16.3589 3.58919 9.97321 9.97802C3.5875 16.3668 0 25.0319 0 34.0671C0 43.1023 3.5875 51.7674 9.97321 58.1562C16.3589 64.5451 25.0198 68.1343 34.0505 68.1343C40.9787 68.0624 47.714 65.8421 53.3279 61.7794C53.6072 61.5831 53.8447 61.333 54.0265 61.0439C54.2082 60.7548 54.3306 60.4324 54.3866 60.0954C54.4419 59.8116 54.4233 59.5182 54.3324 59.2437C54.2416 58.9691 54.0816 58.7226 53.8678 58.5279C53.645 58.3343 53.3841 58.1895 53.102 58.1028C52.8199 58.016 52.5228 57.9893 52.2297 58.0242C51.9366 58.0591 51.6541 58.1549 51.4002 58.3055C51.1463 58.4561 50.9267 58.6581 50.7555 58.8986C49.5169 60.5297 45.8117 63.2834 34.8762 63.5376C30.9351 63.649 27.0115 62.9727 23.3349 61.5483C19.6583 60.1238 16.3027 57.9798 13.4645 55.2419C10.6263 52.5039 8.36265 49.2269 6.80594 45.6028C5.24924 41.9788 4.43081 38.0804 4.39859 34.136C4.34566 17.6982 17.8431 4.71314 34.0399 4.48013C50.2368 4.24712 63.4166 15.8129 63.4166 31.88C63.4166 42.0795 56.3133 46.8138 47.7597 46.6338C45.0284 46.8138 44.4779 45.7229 44.8484 41.8995C45.1449 38.722 48.1513 25.6629 49.21 21.0874C49.3115 20.704 49.3215 20.3022 49.2393 19.9142C49.1571 19.5262 48.9849 19.163 48.7367 18.8538C48.4884 18.5446 48.171 18.2981 47.81 18.1342C47.4491 17.9703 47.0547 17.8935 46.6586 17.91H46.4787C45.9164 17.9777 45.3933 18.2329 44.9938 18.6345C44.5943 19.0362 44.3417 19.5607 44.2768 20.1236C44.1809 20.8613 44.1279 21.604 44.118 22.3478C43.1262 20.5514 41.6777 19.049 39.9192 17.9927C38.1606 16.9363 36.1544 16.3633 34.1034 16.3319C24.4488 16.5119 16.1069 25.2604 15.7152 38.0124C15.7152 46.5702 20.2673 51.4952 28.1011 51.4952C30.4084 51.4441 32.6699 50.8404 34.696 49.7348C36.7221 48.6291 38.4538 47.0536 39.7459 45.1404C39.7459 45.1404 39.5236 50.6373 46.0764 51.008ZM28.7786 47.1845C23.8666 47.1845 20.9448 43.5411 20.9448 37.7158C20.9448 27.6964 27.6776 21.3204 34.0505 21.3204C39.693 21.3204 41.8843 25.1439 42.0643 30.2489C42.0749 38.4361 36.7924 47.1739 28.7786 47.1739V47.1845Z" fill="#00BFA6" fill-opacity="0.5"/>
</svg>
