<svg width="48" height="49" viewBox="0 0 48 49" fill="none" xmlns="http://www.w3.org/2000/svg">
<path id="m-mail" opacity="0.5" d="M31.7987 36.4343C42.459 36.4343 47.4028 30.7044 47.4028 23.0362C47.4028 9.63814 36.6048 0 23.2133 0C16.959 0.291987 11.0576 2.98321 6.73474 7.51467C2.41191 12.0461 0 18.0695 0 24.3336C0 30.5978 2.41191 36.6211 6.73474 41.1526C11.0576 45.6841 16.959 48.3753 23.2133 48.6673C28.1565 48.6226 32.9644 47.0463 36.9754 44.1554C37.1748 44.0144 37.344 43.835 37.4731 43.6276C37.6021 43.4203 37.6885 43.1892 37.727 42.948C37.7677 42.7448 37.7549 42.5345 37.69 42.3377C37.625 42.1409 37.5101 41.9643 37.3564 41.8253C37.1965 41.6888 37.01 41.5868 36.8088 41.5259C36.6075 41.465 36.3958 41.4464 36.187 41.4712C35.9782 41.4961 35.7769 41.5639 35.5955 41.6704C35.4142 41.7769 35.2568 41.9198 35.1334 42.0901C34.2547 43.2551 31.6082 45.2675 23.785 45.4052C21.0185 45.4427 18.2717 44.9347 15.7014 43.9102C13.1311 42.8857 10.7878 41.3648 8.805 39.4341C4.80066 35.5351 2.50842 30.2042 2.43261 24.6143C2.35681 19.0244 4.50365 13.6333 8.40078 9.627C12.2979 5.6207 17.6261 3.3274 23.2133 3.25156C34.784 3.12446 44.1528 11.3222 44.1528 22.7714C44.1528 30.0583 39.082 33.4369 32.9632 33.3628C31.0154 33.4899 30.6237 32.7167 30.846 29.9841C31.0577 27.7388 33.2067 18.3866 33.9583 15.1562C34.0237 14.8849 34.0255 14.6021 33.9637 14.33C33.9018 14.0578 33.7779 13.8035 33.6017 13.5872C33.4254 13.3708 33.2015 13.1982 32.9475 13.0827C32.6935 12.9672 32.4163 12.9121 32.1375 12.9215H32.0104C31.6084 12.9687 31.2341 13.1502 30.9479 13.4365C30.6617 13.7228 30.4803 14.0974 30.4331 14.4996C30.3672 15.0267 30.3319 15.5571 30.3273 16.0883C29.6149 14.8085 28.5787 13.7385 27.3227 12.9857C26.0667 12.2328 24.635 11.8235 23.171 11.7988C16.2794 11.9259 10.2981 18.1536 10.0335 27.2834C10.0335 33.3946 13.2835 36.9109 18.873 36.9109C20.523 36.8734 22.1399 36.4402 23.5878 35.6477C25.0357 34.8552 26.2723 33.7266 27.1937 32.3566C27.1937 32.3566 27.1196 36.1695 31.7987 36.4343ZM19.4446 33.7017C15.93 33.7017 13.8552 31.0962 13.8552 26.9338C13.8552 19.7741 18.6718 15.2198 23.2239 15.2198C27.2572 15.2198 28.8134 17.9524 28.951 21.5746C28.9404 27.4528 25.1718 33.7017 19.4446 33.7017V33.7017Z" fill="#00BFA6" fill-opacity="0.5"/>
</svg>
