<svg width="750" height="551" viewBox="0 0 750 551" fill="none" xmlns="http://www.w3.org/2000/svg">
<path opacity="0.1" d="M231.587 25.82C257.038 3.16353 296.98 -1.43715 333.334 0.346961C447.538 6.01315 550.625 61.1057 639.791 123.417C672.029 145.975 703.853 170.283 724.808 201.348C767.461 264.585 754.813 352.196 695.496 404.29C675.318 422.016 650.859 435.603 625.739 447.654C581.102 469.072 532.902 486.26 482.223 491.158C446.083 494.644 409.481 491.811 373.565 486.937C273.173 473.342 174.633 443.26 92.0467 391.793C55.8247 369.219 21.6858 341.161 6.74897 304.653C-8.18785 268.145 1.37601 221.865 38.3668 200.25C53.659 191.304 71.9519 187.273 89.8562 183.482C116.217 177.899 142.999 172.398 166.78 161.049C191.356 149.336 220.444 126.672 215.55 100.753C210.359 72.8924 206.168 48.4518 231.587 25.82Z" fill="#5EAAA8"/>
<g clip-path="url(#clip0)">
<path opacity="0.1" d="M312.209 545.672C340.481 545.672 363.4 538.959 363.4 530.679C363.4 522.398 340.481 515.685 312.209 515.685C283.936 515.685 261.017 522.398 261.017 530.679C261.017 538.959 283.936 545.672 312.209 545.672Z" fill="#599C68"/>
<path opacity="0.1" d="M432.19 468.782C553.965 468.782 652.684 464.022 652.684 458.15C652.684 452.278 553.965 447.518 432.19 447.518C310.415 447.518 211.697 452.278 211.697 458.15C211.697 464.022 310.415 468.782 432.19 468.782Z" fill="#599C68"/>
<path d="M644.629 108.391H223.176C215.125 108.391 208.599 114.916 208.599 122.964V443.578C208.599 451.626 215.125 458.15 223.176 458.15H644.629C652.679 458.15 659.205 451.626 659.205 443.578V122.964C659.205 114.916 652.679 108.391 644.629 108.391Z" fill="#474157"/>
<path d="M623.613 139.943H244.863V425.257H623.613V139.943Z" fill="#EDEDF4"/>
<path d="M230.088 288.807C233.517 288.807 236.297 286.028 236.297 282.6C236.297 279.172 233.517 276.393 230.088 276.393C226.658 276.393 223.879 279.172 223.879 282.6C223.879 286.028 226.658 288.807 230.088 288.807Z" fill="#E6E8EC"/>
<path d="M640.4 293.507C646.055 293.507 650.639 288.924 650.639 283.27C650.639 277.617 646.055 273.034 640.4 273.034C634.745 273.034 630.16 277.617 630.16 283.27C630.16 288.924 634.745 293.507 640.4 293.507Z" fill="#E6E8EC"/>
<path d="M461.778 265.85C461.858 265.788 461.953 265.749 462.053 265.738C462.153 265.727 462.254 265.745 462.345 265.789C462.436 265.833 462.512 265.902 462.565 265.987C462.619 266.072 462.647 266.171 462.647 266.272V284.637C462.647 285.78 462.193 286.877 461.384 287.685C460.576 288.493 459.479 288.947 458.335 288.947H420.941C419.798 288.947 418.701 288.493 417.893 287.685C417.084 286.877 416.63 285.78 416.63 284.637V266.278C416.631 266.177 416.661 266.079 416.715 265.994C416.769 265.909 416.846 265.841 416.937 265.797C417.028 265.753 417.129 265.736 417.229 265.746C417.33 265.757 417.425 265.795 417.505 265.857C419.517 267.421 422.181 269.407 431.347 276.074C433.263 277.453 436.457 280.365 439.651 280.346C442.845 280.327 446.122 277.402 447.955 276.074C457.103 269.407 459.766 267.415 461.778 265.85ZM439.651 277.453C441.734 277.453 444.761 274.829 446.243 273.737C458.163 265.084 459.07 264.331 461.823 262.179C462.08 261.976 462.287 261.718 462.43 261.424C462.573 261.13 462.647 260.807 462.647 260.48V258.775C462.647 257.632 462.193 256.535 461.384 255.727C460.576 254.919 459.479 254.465 458.335 254.465H420.941C419.798 254.465 418.701 254.919 417.893 255.727C417.084 256.535 416.63 257.632 416.63 258.775V260.48C416.631 260.807 416.705 261.129 416.848 261.423C416.991 261.717 417.198 261.975 417.454 262.179C420.207 264.324 421.114 265.084 433.033 273.737C434.541 274.829 437.543 277.485 439.626 277.453H439.651Z" fill="#5EAAA8"/>
<path opacity="0.2" d="M372.395 203.871H336.981C335.898 203.872 334.859 204.304 334.094 205.07C333.329 205.836 332.899 206.875 332.899 207.957V232.491C332.899 233.574 333.329 234.613 334.094 235.379C334.859 236.145 335.898 236.577 336.981 236.578H372.395C373.478 236.577 374.517 236.145 375.283 235.379C376.05 234.613 376.481 233.575 376.483 232.491V207.957C376.481 206.874 376.05 205.836 375.283 205.069C374.517 204.303 373.478 203.872 372.395 203.871V203.871ZM372.395 207.957V211.419C370.478 212.97 367.438 215.39 360.935 220.48C359.498 221.61 356.661 224.311 354.681 224.311C352.701 224.311 349.865 221.636 348.434 220.48C341.925 215.371 338.852 212.97 336.968 211.419V207.945L372.395 207.957ZM336.981 232.491V216.674C338.935 218.226 341.701 220.41 345.924 223.698C347.789 225.161 351.034 228.392 354.7 228.373C358.367 228.353 361.554 225.18 363.477 223.698C367.693 220.397 370.459 218.213 372.42 216.674V232.491H336.981Z" fill="#5EAAA8"/>
<path opacity="0.1" d="M337.9 272.083H302.487C301.95 272.083 301.419 272.189 300.923 272.394C300.427 272.599 299.977 272.901 299.598 273.28C299.219 273.66 298.918 274.11 298.714 274.606C298.509 275.102 298.404 275.633 298.405 276.17V300.691C298.405 301.774 298.835 302.812 299.6 303.578C300.365 304.345 301.403 304.776 302.487 304.778H337.9C338.984 304.776 340.023 304.345 340.789 303.579C341.556 302.813 341.987 301.774 341.989 300.691V276.176C341.989 275.639 341.884 275.107 341.679 274.61C341.474 274.114 341.173 273.662 340.793 273.282C340.414 272.902 339.963 272.6 339.466 272.394C338.97 272.189 338.438 272.083 337.9 272.083V272.083ZM337.9 276.17V279.643C335.984 281.195 332.943 283.615 326.441 288.705C325.003 289.835 322.167 292.536 320.187 292.536C318.207 292.536 315.371 289.861 313.94 288.705C307.431 283.596 304.358 281.195 302.474 279.643V276.17H337.9ZM302.487 300.691V284.893C304.441 286.444 307.207 288.622 311.429 291.917C313.295 293.386 316.54 296.617 320.206 296.598C323.873 296.578 327.06 293.405 328.983 291.923C333.199 288.622 335.965 286.438 337.926 284.899V300.691H302.487Z" fill="#599C68"/>
<path opacity="0.2" d="M376.495 333.826H341.094C340.011 333.828 338.972 334.259 338.205 335.025C337.439 335.791 337.008 336.83 337.006 337.913V362.428C337.008 363.511 337.439 364.55 338.205 365.316C338.972 366.082 340.011 366.513 341.094 366.515H376.521C377.604 366.513 378.642 366.082 379.408 365.315C380.173 364.549 380.603 363.511 380.603 362.428V337.913C380.603 337.375 380.496 336.842 380.29 336.345C380.083 335.848 379.78 335.396 379.399 335.016C379.017 334.637 378.564 334.336 378.066 334.132C377.568 333.928 377.034 333.824 376.495 333.826ZM376.495 337.913V341.387C374.579 342.939 371.538 345.359 365.036 350.448C363.598 351.578 360.756 354.28 358.782 354.28C356.808 354.28 353.966 351.604 352.528 350.448C346.026 345.359 343.011 342.964 341.094 341.387V337.913H376.495ZM341.094 362.428V346.63C343.049 348.181 345.815 350.365 350.037 353.654C351.896 355.116 355.147 358.347 358.814 358.328C362.481 358.309 365.668 355.135 367.591 353.654C371.807 350.352 374.573 348.169 376.534 346.63V362.428H341.094Z" fill="#5EAAA8"/>
<path opacity="0.2" d="M447.77 162.728H412.356C411.82 162.728 411.288 162.833 410.793 163.039C410.297 163.244 409.847 163.545 409.468 163.925C409.089 164.305 408.788 164.755 408.583 165.251C408.379 165.747 408.274 166.278 408.274 166.814V191.329C408.274 192.412 408.704 193.45 409.47 194.217C410.235 194.983 411.273 195.414 412.356 195.416H447.77C448.854 195.414 449.893 194.983 450.659 194.217C451.425 193.451 451.857 192.413 451.858 191.329V166.814C451.858 165.73 451.427 164.691 450.661 163.925C449.894 163.158 448.854 162.728 447.77 162.728ZM447.77 166.814V170.288C445.854 171.84 442.813 174.254 436.31 179.35C434.873 180.48 432.037 183.181 430.057 183.181C428.077 183.181 425.24 180.505 423.809 179.35C417.3 174.241 414.228 171.84 412.311 170.288V166.814H447.77ZM412.343 191.329V175.531C414.298 177.083 417.064 179.26 421.286 182.555C423.152 184.024 426.397 187.255 430.063 187.236C433.73 187.217 436.917 184.043 438.84 182.555C443.056 179.254 445.822 177.076 447.783 175.531V191.329H412.343Z" fill="#5EAAA8"/>
<path opacity="0.2" d="M447.77 374.133H412.356C411.273 374.135 410.235 374.566 409.47 375.332C408.704 376.098 408.274 377.137 408.274 378.22V402.734C408.274 403.817 408.704 404.856 409.47 405.622C410.235 406.388 411.273 406.82 412.356 406.821H447.77C448.854 406.82 449.893 406.388 450.659 405.622C451.425 404.856 451.857 403.818 451.858 402.734V378.22C451.857 377.136 451.425 376.098 450.659 375.332C449.893 374.566 448.854 374.135 447.77 374.133ZM447.77 378.22V381.694C445.854 383.245 442.813 385.665 436.31 390.755C434.873 391.885 432.037 394.586 430.057 394.586C428.077 394.586 425.24 391.911 423.809 390.755C417.3 385.646 414.228 383.245 412.311 381.694V378.22H447.77ZM412.356 402.734V386.936C414.311 388.488 417.077 390.672 421.299 393.96C423.164 395.423 426.409 398.654 430.076 398.635C433.742 398.616 436.93 395.442 438.853 393.96C443.069 390.659 445.835 388.475 447.796 386.936V402.734H412.356Z" fill="#5EAAA8"/>
<path opacity="0.2" d="M488.76 207.957V232.491C488.76 233.574 489.19 234.613 489.956 235.379C490.721 236.145 491.759 236.577 492.842 236.578H528.256C529.34 236.577 530.379 236.145 531.145 235.379C531.911 234.613 532.343 233.575 532.344 232.491V207.957C532.343 206.874 531.911 205.836 531.145 205.069C530.379 204.303 529.34 203.872 528.256 203.871H492.842C491.759 203.872 490.721 204.304 489.956 205.07C489.19 205.836 488.76 206.875 488.76 207.957V207.957ZM528.269 207.957V211.419C526.353 212.97 523.312 215.39 516.809 220.48C515.372 221.61 512.529 224.311 510.556 224.311C508.582 224.311 505.739 221.636 504.308 220.48C497.799 215.371 494.727 212.97 492.81 211.419V207.945L528.269 207.957ZM492.842 232.491V216.674C494.797 218.226 497.563 220.41 501.785 223.698C503.702 225.205 506.927 228.392 510.562 228.373C514.197 228.353 517.48 225.18 519.339 223.698C523.555 220.397 526.321 218.213 528.282 216.674V232.491H492.842Z" fill="#5EAAA8"/>
<path opacity="0.2" d="M520.865 273.571V298.085C520.865 299.169 521.296 300.209 522.063 300.975C522.83 301.742 523.869 302.172 524.954 302.172H560.374C561.458 302.17 562.496 301.739 563.263 300.973C564.029 300.207 564.46 299.169 564.462 298.085V273.571C564.46 272.487 564.029 271.449 563.263 270.683C562.496 269.916 561.458 269.485 560.374 269.484H524.954C524.417 269.484 523.885 269.589 523.389 269.795C522.893 270 522.442 270.301 522.063 270.681C521.683 271.06 521.382 271.511 521.177 272.007C520.971 272.502 520.865 273.034 520.865 273.571V273.571ZM560.374 273.571V277.044C558.458 278.596 555.417 281.016 548.914 286.106C547.483 287.236 544.641 289.937 542.661 289.937C540.68 289.937 537.844 287.261 536.413 286.106C529.904 280.997 526.864 278.596 524.954 277.044V273.571H560.374ZM524.954 298.085V282.3C526.87 283.852 529.668 286.035 533.897 289.324C535.813 290.831 539.007 294.018 542.667 293.998C546.327 293.979 549.585 290.806 551.444 289.324C555.66 286.023 558.432 283.839 560.387 282.3V298.098L524.954 298.085Z" fill="#5EAAA8"/>
<path opacity="0.2" d="M484.672 337.913V362.428C484.672 363.512 485.103 364.551 485.87 365.318C486.636 366.084 487.676 366.515 488.761 366.515H524.181C525.264 366.513 526.303 366.082 527.07 365.316C527.836 364.55 528.267 363.511 528.269 362.428V337.913C528.267 336.83 527.836 335.791 527.07 335.025C526.303 334.259 525.264 333.828 524.181 333.826H488.761C487.676 333.826 486.636 334.257 485.87 335.023C485.103 335.79 484.672 336.829 484.672 337.913ZM524.181 337.913V341.387C522.264 342.939 519.224 345.359 512.721 350.448C511.284 351.578 508.448 354.28 506.467 354.28C504.487 354.28 501.651 351.604 500.22 350.448C493.711 345.34 490.639 342.939 488.761 341.387V337.913H524.181ZM488.761 362.428V346.63C490.709 348.181 493.475 350.365 497.703 353.654C499.62 355.161 502.814 358.347 506.474 358.328C510.134 358.309 513.392 355.135 515.251 353.654C519.467 350.352 522.232 348.168 524.194 346.63V362.428H488.761Z" fill="#5EAAA8"/>
<path d="M408.102 262.874L407.508 262.632C406.963 261.851 406.345 261.124 405.662 260.461C405.662 260.461 389.392 255.007 386.083 252.996C384.034 251.78 381.695 251.137 379.312 251.131L373.41 250.129C373.41 250.129 370.095 249.413 368.511 248.851C366.926 248.29 364.039 247.134 364.039 247.134C364.039 247.134 360.583 245.697 360.002 244.835C359.421 243.973 356.546 243.258 356.546 243.258L350.644 238.788C350.644 238.788 345.891 235.914 345.17 233.187C344.448 230.461 341.714 222.855 332.503 227.734C332.503 227.734 327.891 226.457 326.754 225.007C325.617 223.558 314.809 225.148 314.809 225.148L311.442 219.401C311.034 216.184 310.944 212.935 311.174 209.701C311.174 209.394 311.225 209.062 311.257 208.775C314.309 206.434 316.484 203.135 317.43 199.408C318.377 195.681 318.041 191.744 316.476 188.232C316.38 188.015 316.271 187.798 316.169 187.593C316.432 187.093 316.619 186.558 316.725 186.003C316.725 185.863 316.77 185.722 316.789 185.582C316.821 185.255 316.832 184.927 316.821 184.598C316.817 183.978 316.735 183.36 316.578 182.759L316.444 182.312C316.005 180.971 315.195 179.782 314.106 178.883C313.039 178.015 311.698 177.421 310.912 176.329C309.756 174.681 310.056 172.351 308.996 170.658C308.89 170.5 308.775 170.349 308.651 170.205L308.555 170.103C308.446 169.988 308.331 169.886 308.216 169.784L308.146 169.726C306.581 168.449 304.141 168.34 302.103 168.858C299.644 169.496 297.364 170.773 294.847 171.144C292.847 171.412 290.829 171.035 288.817 170.907C286.805 170.78 284.652 170.907 282.997 172.082C280.96 173.506 280.129 176.131 278.347 177.868C276.565 179.605 273.722 180.422 272.164 182.472C271.602 183.227 271.238 184.11 271.106 185.041C270.973 185.973 271.075 186.922 271.404 187.804C272.042 189.445 273.441 190.767 273.761 192.498C274.118 194.413 273.122 196.533 273.793 198.277C273.845 198.402 273.904 198.523 273.972 198.641C274.057 198.634 274.142 198.634 274.227 198.641H274.425H274.476L274.719 198.685C274.799 198.701 274.878 198.722 274.955 198.749C275.466 198.942 275.925 199.252 276.295 199.653C276.666 200.054 276.937 200.536 277.089 201.061C277.504 202.421 277.274 203.89 277.089 205.301C276.904 206.712 276.699 208.194 277.204 209.522C277.226 209.588 277.254 209.652 277.287 209.713V209.713C277.33 209.812 277.383 209.907 277.446 209.994L277.485 210.045C277.547 210.131 277.62 210.208 277.702 210.275C278.077 210.494 278.501 210.615 278.935 210.627V210.627C279.082 210.627 279.229 210.678 279.369 210.71C279.51 210.742 279.561 210.761 279.65 210.786L279.784 210.825C279.906 210.863 280.021 210.901 280.142 210.952H280.174C280.302 211.01 280.43 211.061 280.551 211.125C281.209 211.431 281.799 211.865 282.288 212.402C282.486 212.619 282.672 212.855 282.863 213.079L283.138 213.366C283.237 213.458 283.341 213.543 283.451 213.621C283.922 213.924 284.477 214.069 285.035 214.037C285.753 213.992 286.461 213.855 287.143 213.628L287.201 214.164C287.316 215.186 287.418 216.195 287.501 217.178C287.501 217.319 287.501 217.453 287.533 217.587C285.422 219.355 283.685 221.526 282.423 223.973L282.614 224.611C282.542 224.692 282.478 224.775 282.423 224.86V227.728C282.423 227.728 267.156 230.454 265.425 231.751C263.694 233.047 260.532 233.181 260.532 233.181C260.532 233.181 251.889 232.753 251.889 240.786C251.889 240.786 251.602 244.516 249.877 244.662C248.152 244.809 247.283 247.102 247.283 247.102L238.5 256.572L225.68 266.904C225.68 266.904 219.988 272.255 218.532 274.477C218.359 274.697 218.242 274.956 218.194 275.231C218.194 275.231 202.658 292.517 219.663 299.771L220.193 299.988L235.057 311.119L253.582 321.591L254.138 320.806L254.431 321.004L256.661 322.472L259.51 317.881L259.887 317.964C260.934 318.207 262.186 318.718 262.761 319.778C263.611 321.348 268.74 324.675 271.864 325.001L271.749 325.346L269.998 330.921C269.998 330.921 266.543 334.937 267.264 336.374C267.986 337.811 265.987 348.43 265.987 348.43C265.987 348.43 269.181 349.707 270.739 350.582C271.041 350.699 271.353 350.785 271.672 350.838C271.672 351.119 271.614 351.406 271.583 351.681C271.533 352.684 271.188 353.65 270.592 354.458C268.861 356.176 269.008 359.624 269.008 359.624C269.008 359.624 268.14 364.644 269.008 365.218C269.877 365.793 268.619 367.083 268.619 367.083C268.619 367.083 269.96 371.387 268.619 373.111C267.277 374.835 264.511 398.079 269.634 409.414C269.634 409.414 274.202 419.171 271.749 422.619C269.296 426.068 266.185 437.115 266.638 439.12C267.092 441.125 265.968 446.01 265.968 446.01C265.968 446.01 267.839 456.227 266.543 458.348C265.246 460.468 261.79 493.22 265.968 501.132C265.968 501.132 261.79 506.445 259.631 506.445C257.472 506.445 261.503 514.746 263.227 516.349C264.952 517.952 265.731 525.672 265.731 525.672L265.98 525.787C266.051 526.094 266.134 526.426 266.217 526.751C267.13 530.308 268.695 535.193 270.433 535.289C273.167 535.429 283.681 534.714 284.109 532.128C284.537 529.542 283.962 525.238 286.121 523.948C288.28 522.658 295.773 518.929 291.167 510.034C290.605 509.971 290.039 509.954 289.475 509.982H289.436L290.299 490.825L293.754 462.843C293.754 462.843 296.782 453.226 297.217 451.936C297.651 450.646 296.495 448.494 296.495 448.494L297.306 440.742C297.306 440.742 296.782 432.134 298.507 430.985C300.232 429.835 299.229 425.538 299.229 425.538C299.229 425.538 300.672 420.512 300.813 417.785C300.973 415.797 301.31 413.826 301.822 411.898C301.822 411.898 302.397 409.344 303.406 405.876C304.069 403.337 304.497 400.742 304.684 398.124C304.684 398.124 308.568 393.245 308.14 389.369C307.712 385.493 308.427 379.324 309.864 380.614C311.302 381.904 312.17 386.361 312.17 386.361L314.33 398.418C314.33 398.418 318.073 410.327 317.638 412.051C317.204 413.775 318.795 420.084 318.795 420.084C318.795 420.084 318.507 427.402 319.369 429.127C320.232 430.851 319.369 434.293 319.369 434.293C319.369 434.293 322.25 441.611 321.816 443.047C321.382 444.484 321.861 452.945 321.861 452.945L322.685 459.261C322.685 459.261 323.547 464.286 322.685 467.013C321.822 469.74 326.453 505.327 327.737 508.201C329.021 511.074 327.003 516.949 327.003 516.949C327.003 516.949 325.419 521.687 332.183 525.251L334.202 533.431L334.349 533.475C334.349 533.763 334.393 534.063 334.438 534.357C335.007 538.137 337.875 542.02 348.459 538.744C348.459 538.744 351.653 537.633 352.49 535.321C353.327 533.009 359.977 530.564 359.977 530.564C359.977 530.564 365.802 523.916 360.698 519.229C360.022 518.523 359.144 518.044 358.185 517.856C357.225 517.669 356.231 517.782 355.339 518.182C355.133 516.329 355.443 514.455 356.233 512.767C357.817 509.472 354.649 502.434 353.646 501.272C352.643 500.11 354.924 494.816 354.924 494.816C354.49 493.349 353.961 491.911 353.34 490.512C352.765 489.503 352.19 463.386 352.19 463.386C352.19 463.386 351.04 449.037 348.012 443.009C348.012 443.009 348.734 438.705 349.022 436.84C349.309 434.976 348.734 403.98 348.734 403.98C348.734 403.98 354.924 393.762 350.606 378.577C350.626 376.365 350.818 374.157 351.181 371.974C351.755 368.82 350.318 363.22 350.318 363.22C350.318 363.22 351.902 355.327 348.881 353.002C347.603 352.057 347.067 349.893 346.837 347.67C346.837 347.389 346.792 347.108 346.773 346.834C350.81 345.767 353.761 344.586 354.061 343.392C355.071 339.375 348.447 320.403 348.447 320.403L340.455 297.198C340.455 297.198 343.483 286.578 342.187 283.277C340.89 279.975 345.067 271.648 345.067 271.648C345.067 271.648 343.189 266.201 344.486 264.765C344.583 264.643 344.661 264.507 344.716 264.362L347.801 266.629C347.801 266.629 352.988 268.066 354.24 269.496C355.492 270.927 361.05 270.505 361.05 270.505C361.05 270.505 366.511 270.346 369.993 271.042C370.924 271.148 371.808 271.508 372.548 272.083C374.279 273.954 380.041 274.637 381.19 273.807C381.625 273.475 382.468 273.481 383.42 273.609C384.472 273.782 385.508 274.041 386.518 274.382L405.681 276.821C406.114 276.462 406.528 276.081 406.92 275.678L407.169 275.869C422.673 287.153 423.254 276.106 423.254 276.106C423.254 276.106 428.722 277.536 428.722 274.19C428.703 271.527 414.336 265.403 408.102 262.874ZM265.655 308.686L265.246 308.654L265.521 308.213L263.994 307.498L263.668 307.345L264.243 306.521L249.11 297.472C248.091 296.886 247.284 295.992 246.804 294.918C245.942 293.053 242.199 292.626 242.199 292.626L237.951 288.89C237.951 288.89 242.921 282.862 244.339 282.862C245.757 282.862 248.229 281.08 248.229 281.08L254.304 276.981L254.419 277.127C254.419 277.127 259.746 283.724 260.168 284.873C260.589 286.023 265.348 291.042 265.348 291.042C265.348 291.042 270.394 297.357 272.694 304.388C273.537 305.549 274.51 306.61 275.594 307.549C271.646 307.983 266.932 308.826 266.932 308.826L265.655 308.686Z" fill="url(#paint0_linear)"/>
<path d="M312.349 211.917C311.621 220.921 314.234 230.135 314.234 230.135C314.234 230.135 286.575 231.846 288.568 228.143C288.836 227.538 288.989 226.888 289.021 226.227C289.168 223.943 289.121 221.651 288.881 219.375C288.798 218.398 288.695 217.396 288.587 216.374C288.216 213.034 287.724 209.599 287.309 206.897C287.239 206.482 287.175 206.08 287.118 205.703C286.728 203.321 286.44 201.751 286.44 201.751C286.44 201.751 307.705 195.499 314.138 197.632C315.952 198.232 316.591 199.49 315.243 201.751C313.662 204.588 312.71 207.733 312.451 210.972C312.381 211.304 312.349 211.61 312.349 211.917Z" fill="#BE6F72"/>
<path d="M428.703 275.965C428.703 279.311 423.286 277.881 423.286 277.881C423.286 277.881 422.711 288.858 407.361 277.645C406.971 277.357 406.569 277.057 406.154 276.738L405.515 264.337V263.622C405.515 263.622 406.601 264.049 408.306 264.739C414.477 267.261 428.703 273.36 428.703 275.965Z" fill="#BE6F72"/>
<path d="M287.552 524.038C285.412 525.315 285.987 529.6 285.559 532.16C285.131 534.721 274.7 535.443 272.011 535.302C270.292 535.206 268.74 530.353 267.839 526.822C267.322 524.791 267.015 523.195 267.015 523.195C267.015 523.195 284.262 516.343 285.7 512.92C286.607 510.736 289.155 510.238 290.867 510.168C291.426 510.139 291.985 510.154 292.541 510.213C297.108 519.05 289.686 522.754 287.552 524.038Z" fill="#464A5F"/>
<path d="M360.692 530.596C360.692 530.596 354.138 533.016 353.282 535.321C352.426 537.626 349.29 538.725 349.29 538.725C338.808 541.988 335.971 538.118 335.409 534.363C335.192 532.627 335.305 530.866 335.741 529.172L351.142 522.735C351.142 522.735 353.231 519.504 356.048 518.316C356.936 517.905 357.931 517.782 358.892 517.966C359.853 518.149 360.733 518.629 361.407 519.338C366.46 523.993 360.692 530.596 360.692 530.596Z" fill="#464A5F"/>
<path opacity="0.1" d="M290.867 510.168L290.541 517.345C285.987 520.474 285.431 526.605 285.431 526.605C282.666 527.817 279.686 528.461 276.667 528.498C273.648 528.535 270.653 527.965 267.858 526.822C267.341 524.791 267.034 523.195 267.034 523.195C267.034 523.195 284.281 516.343 285.719 512.92C286.607 510.736 289.155 510.27 290.867 510.168Z" fill="black"/>
<path opacity="0.1" d="M356.272 520.193C350.855 537.499 337.358 534.842 335.409 534.363C335.192 532.627 335.305 530.866 335.741 529.172L351.142 522.735C351.142 522.735 353.231 519.504 356.048 518.316C356.055 518.948 356.13 519.577 356.272 520.193V520.193Z" fill="black"/>
<path d="M356.987 512.92C356.05 514.923 355.798 517.178 356.272 519.338C350.427 538.01 335.192 533.444 335.192 533.444L333.193 525.321C326.492 521.758 328.082 517.058 328.082 517.058C328.082 517.058 330.082 511.209 328.811 508.361C327.539 505.513 322.947 470.161 323.803 467.454C324.659 464.746 323.803 459.759 323.803 459.759L322.991 453.482C322.991 453.482 322.519 445.078 322.947 443.648C323.375 442.218 320.526 434.957 320.526 434.957C320.526 434.957 321.382 431.534 320.526 429.848C319.67 428.163 319.957 420.87 319.957 420.87C319.957 420.87 318.386 414.599 318.814 412.888C319.242 411.177 315.537 399.35 315.537 399.35L313.397 387.377C313.397 387.377 312.541 382.958 311.11 381.675C309.679 380.391 308.977 386.521 309.405 390.372C309.832 394.222 305.961 399.037 305.961 399.037C305.774 401.638 305.347 404.216 304.684 406.738C303.687 410.155 303.119 412.722 303.119 412.722C302.611 414.636 302.275 416.591 302.116 418.565C301.976 421.272 300.551 426.266 300.551 426.266C300.551 426.266 301.548 430.538 299.836 431.675C298.124 432.811 298.647 441.368 298.647 441.368L297.843 449.069C297.843 449.069 298.98 451.209 298.552 452.486C298.124 453.763 295.134 463.341 295.134 463.341L291.685 491.113L290.541 516.49C285.987 519.619 285.431 525.749 285.431 525.749C282.587 527.004 279.511 527.653 276.402 527.653C273.293 527.653 270.217 527.004 267.373 525.749C267.373 525.749 266.606 518.086 264.901 516.49C263.195 514.893 259.197 506.656 261.337 506.656C263.476 506.656 267.609 501.375 267.609 501.375C263.476 493.54 266.894 461.043 268.178 458.903C269.462 456.764 267.609 446.643 267.609 446.643C267.609 446.643 268.746 441.796 268.28 439.804C267.814 437.811 270.886 426.834 273.314 423.412C275.741 419.989 271.225 410.295 271.225 410.295C266.147 399.037 268.893 375.947 270.222 374.235C271.551 372.524 270.222 368.252 270.222 368.252C270.222 368.252 271.461 366.975 270.599 366.4C269.736 365.825 270.599 360.844 270.599 360.844C270.599 360.844 270.452 357.422 272.164 355.736C272.757 354.934 273.097 353.973 273.141 352.977C273.339 350.909 273.339 348.826 273.141 346.757L292.815 335.212L317.479 333.213L347.706 342.62C347.516 344.744 347.516 346.881 347.706 349.005C347.929 351.208 348.485 353.36 349.724 354.299C352.72 356.585 351.149 364.42 351.149 364.42C351.149 364.42 352.573 369.982 352.005 373.118C351.646 375.286 351.456 377.478 351.436 379.676C355.709 394.784 349.577 404.906 349.577 404.906C349.577 404.906 350.152 435.691 349.865 437.543C349.577 439.395 348.868 443.667 348.868 443.667C351.864 449.657 353.001 463.91 353.001 463.91C353.001 463.91 353.57 489.849 354.144 490.851C354.759 492.242 355.282 493.671 355.709 495.13C355.709 495.13 353.429 500.398 354.432 501.515C355.435 502.633 358.552 509.632 356.987 512.92Z" fill="#5F5D7E"/>
<path opacity="0.1" d="M315.211 201.776C313.63 204.614 312.678 207.759 312.42 210.997C312.381 211.304 312.356 211.636 312.33 211.917C309.469 214.101 305.055 212.996 301.171 212.996C299.804 212.996 300.13 210.984 298.852 210.684C294.272 209.58 289.583 210.889 287.277 206.923C287.207 206.508 287.143 206.106 287.086 205.729C286.696 203.347 286.409 201.776 286.409 201.776C286.409 201.776 307.674 195.525 314.106 197.657C315.92 198.258 316.559 199.516 315.211 201.776Z" fill="black"/>
<path d="M319.05 197.511C319.05 199.748 318.609 201.963 317.753 204.03C316.896 206.097 315.641 207.976 314.058 209.558C312.476 211.14 310.597 212.395 308.529 213.251C306.462 214.107 304.246 214.548 302.008 214.548C300.665 214.546 299.328 214.389 298.022 214.081C294.909 213.335 292.069 211.727 289.828 209.442C287.587 207.157 286.034 204.287 285.348 201.161C284.662 198.035 284.87 194.78 285.949 191.767C287.027 188.754 288.933 186.105 291.447 184.124C293.961 182.143 296.982 180.909 300.164 180.565C303.347 180.22 306.562 180.778 309.443 182.175C312.323 183.571 314.751 185.75 316.45 188.463C318.15 191.175 319.05 194.31 319.05 197.511V197.511Z" fill="#BE6F72"/>
<path opacity="0.1" d="M310.267 222.191C303.675 220.167 294.611 223.571 289.002 226.253C289.149 223.969 289.102 221.677 288.862 219.401C292.63 216.253 298.577 213.928 306.881 218.124C307.642 218.513 308.421 218.954 309.226 219.446L310.267 222.191Z" fill="black"/>
<path d="M310.267 222.619C301.426 219.899 288.133 226.961 284.716 228.928L284.077 226.757L283.892 226.15C283.892 226.15 291.155 210.575 306.926 218.551C307.686 218.941 308.466 219.381 309.27 219.873L310.267 222.619Z" fill="#5EAAA8"/>
<path opacity="0.1" d="M347.699 348.986C338.239 351.502 322.672 353.386 321.771 353.283C320.494 353.143 309.079 355.71 309.079 355.71C309.507 354.28 305.661 338.89 305.661 338.89L302.947 356.566C302.947 356.566 278.2 354.011 273.128 352.951C273.326 350.883 273.326 348.8 273.128 346.732L292.803 335.186L317.466 333.188L347.693 342.594C347.505 344.72 347.507 346.86 347.699 348.986V348.986Z" fill="black"/>
<path d="M354.847 344.733C353.87 348.711 323.049 352.543 321.771 352.428C320.494 352.313 309.079 354.854 309.079 354.854C309.507 353.424 305.661 338.035 305.661 338.035L302.947 355.736C302.947 355.736 273.863 352.741 272.285 351.904C270.707 351.068 267.577 349.771 267.577 349.771C267.577 349.771 269.57 339.222 268.855 337.798C268.14 336.374 271.563 332.377 271.563 332.377L273.301 326.847L278.545 310.142C278.239 309.967 277.945 309.773 277.664 309.561C276.375 308.539 275.233 307.345 274.272 306.01C272.011 298.979 266.996 292.709 266.996 292.709C266.996 292.709 262.295 287.721 261.886 286.578C261.477 285.435 256.182 278.884 256.182 278.884L240.359 258.5L249.053 249.094C249.053 249.094 249.909 246.815 251.608 246.674C253.307 246.534 253.607 242.843 253.607 242.843C253.607 234.86 262.161 235.288 262.161 235.288C262.161 235.288 265.297 235.148 267.003 233.864C268.708 232.581 283.834 229.867 283.834 229.867V227.447C296.52 210.627 312.579 221.559 312.579 221.559L315.92 227.306C315.92 227.306 326.607 225.742 327.744 227.166C328.881 228.59 333.448 229.867 333.448 229.867C342.576 225.026 345.278 232.581 345.994 235.288C346.709 237.996 351.417 240.844 351.417 240.844C351.417 240.844 346.562 265.218 345.278 266.642C343.994 268.066 345.853 273.488 345.853 273.488C345.853 273.488 341.733 281.738 343.011 285.008C344.288 288.277 341.299 298.839 341.299 298.839L349.283 321.93C349.283 321.93 355.844 340.742 354.847 344.733Z" fill="#464A5F"/>
<path opacity="0.1" d="M315.933 228.143C307.955 215.882 283.847 230.697 283.847 230.697V228.277C296.533 211.457 312.592 222.389 312.592 222.389L315.933 228.143Z" fill="black"/>
<path opacity="0.1" d="M310.267 222.619C301.426 219.899 288.133 226.961 284.716 228.928L283.873 229.42V227L284.058 226.757C291.966 216.47 301.139 216.834 306.907 218.551C307.667 218.941 308.446 219.381 309.251 219.873L310.267 222.619Z" fill="black"/>
<path d="M315.933 227.287C307.955 215.033 283.847 229.841 283.847 229.841V227.421C296.533 210.601 312.592 221.533 312.592 221.533L315.933 227.287Z" fill="#464A5F"/>
<path opacity="0.1" d="M309.935 319.503L305.661 338.022L306.479 341.374C306.479 341.374 311.072 322.07 309.935 319.503Z" fill="black"/>
<path opacity="0.1" d="M340.877 288.718C340.877 288.718 338.737 305.959 324.761 310.953C324.761 310.953 336.31 300.55 340.877 288.718Z" fill="black"/>
<path opacity="0.1" d="M282.966 304.113C282.966 304.113 299.932 296.84 299.932 299.835C299.932 302.83 282.966 304.113 282.966 304.113Z" fill="black"/>
<path opacity="0.1" d="M319.203 289.433C319.203 289.433 331.04 281.023 333.601 283.162C336.163 285.301 319.203 289.433 319.203 289.433Z" fill="black"/>
<path opacity="0.1" d="M407.361 277.651C406.971 277.364 406.569 277.064 406.154 276.744L405.515 264.343V263.628C405.515 263.628 406.601 264.056 408.306 264.746C410.261 267.645 412.305 272.721 407.361 277.651Z" fill="black"/>
<path d="M405.892 278.596L386.927 276.176C385.927 275.84 384.901 275.583 383.861 275.41C382.953 275.282 382.085 275.276 381.65 275.601C380.513 276.457 374.809 275.748 373.097 273.89C372.356 273.318 371.472 272.96 370.542 272.856C367.086 272.172 361.682 272.326 361.682 272.326C361.682 272.326 356.182 272.753 354.937 271.329C353.691 269.905 348.549 268.481 348.549 268.481L343.132 264.484L346.55 239.688L351.404 240.825L357.243 245.244C357.243 245.244 360.098 245.959 360.667 246.815C361.235 247.67 364.659 249.094 364.659 249.094C364.659 249.094 367.508 250.231 369.079 250.806C370.651 251.38 373.928 252.083 373.928 252.083L379.772 253.085C382.134 253.09 384.45 253.73 386.48 254.937C389.75 256.936 405.866 262.351 405.866 262.351C405.866 262.351 415.193 270.902 405.892 278.596Z" fill="#464A5F"/>
<path opacity="0.1" d="M386.448 271.348C385.919 272.757 385.04 274.008 383.892 274.982C382.985 274.854 382.117 274.848 381.682 275.173C380.545 276.029 374.841 275.32 373.129 273.468C372.39 272.891 371.506 272.531 370.574 272.428C370.133 269.235 368.971 256.176 379.983 257.025C392.471 257.983 386.448 271.348 386.448 271.348Z" fill="black"/>
<path d="M386.448 271.776C385.919 273.185 385.04 274.436 383.892 275.41C382.985 275.282 382.117 275.276 381.682 275.601C380.545 276.457 374.841 275.748 373.129 273.89C372.388 273.318 371.504 272.96 370.574 272.855C370.133 269.694 368.971 256.604 379.983 257.453C392.471 258.411 386.448 271.776 386.448 271.776Z" fill="#5F5D7E"/>
<path d="M402.947 271.291C403.3 271.291 403.586 270.813 403.586 270.224C403.586 269.635 403.3 269.158 402.947 269.158C402.594 269.158 402.308 269.635 402.308 270.224C402.308 270.813 402.594 271.291 402.947 271.291Z" fill="#5EAAA8"/>
<path d="M404.231 271.719C404.584 271.719 404.87 271.241 404.87 270.652C404.87 270.063 404.584 269.586 404.231 269.586C403.878 269.586 403.592 270.063 403.592 270.652C403.592 271.241 403.878 271.719 404.231 271.719Z" fill="#5EAAA8"/>
<path d="M405.515 272.121C405.868 272.121 406.154 271.644 406.154 271.055C406.154 270.466 405.868 269.988 405.515 269.988C405.162 269.988 404.876 270.466 404.876 271.055C404.876 271.644 405.162 272.121 405.515 272.121Z" fill="#5EAAA8"/>
<path opacity="0.1" d="M357.932 247.083C357.932 247.083 358.999 247.83 357.025 250.129C355.052 252.428 357.932 247.083 357.932 247.083Z" fill="black"/>
<path opacity="0.1" d="M368.147 252.696C368.147 252.696 371.034 263.219 368.575 265.039C366.115 266.859 368.147 252.696 368.147 252.696Z" fill="black"/>
<path d="M285.272 357.913C285.861 357.913 286.338 357.436 286.338 356.847C286.338 356.258 285.861 355.78 285.272 355.78C284.682 355.78 284.205 356.258 284.205 356.847C284.205 357.436 284.682 357.913 285.272 357.913Z" fill="#5EAAA8"/>
<path d="M336.208 356.777C336.797 356.777 337.274 356.299 337.274 355.71C337.274 355.121 336.797 354.644 336.208 354.644C335.618 354.644 335.141 355.121 335.141 355.71C335.141 356.299 335.618 356.777 336.208 356.777Z" fill="#5EAAA8"/>
<path opacity="0.1" d="M278.424 381.917C278.424 381.917 289.283 391.892 303.521 381.917C303.521 381.917 287.737 385.11 278.424 381.917Z" fill="black"/>
<path opacity="0.1" d="M318.488 384.925C318.488 384.925 336.885 386.068 341.446 381.936C346.007 377.805 318.488 384.925 318.488 384.925Z" fill="black"/>
<path opacity="0.1" d="M274.432 408.016C274.719 408.731 280.851 426.834 289.545 426.975L274.432 408.016Z" fill="black"/>
<path opacity="0.1" d="M348.434 389.631C348.434 389.631 340.59 423.424 331.749 427.83L348.434 389.631Z" fill="black"/>
<path opacity="0.1" d="M264.441 509.503C264.441 509.503 280.979 512.92 278.986 514.491C276.993 516.062 266.996 515.627 266.996 515.627L264.441 509.503Z" fill="black"/>
<path opacity="0.1" d="M343.585 502.518C343.585 502.518 349.43 509.216 351.423 505.513C353.416 501.809 343.585 502.518 343.585 502.518Z" fill="black"/>
<path opacity="0.1" d="M333.033 516.771C334.311 516.63 339.453 517.486 343.586 516.771C347.719 516.056 334.004 514.498 332.318 517.058C330.631 519.619 333.033 516.771 333.033 516.771Z" fill="black"/>
<path opacity="0.1" d="M317.581 190.588C317.404 190.887 317.189 191.161 316.942 191.406C316.374 191.968 315.665 192.357 315.128 192.964C314.042 194.209 314.138 195.939 314.093 197.657C314.095 198.348 314.024 199.037 313.882 199.713C313.636 200.71 313.126 201.623 312.407 202.356C311.688 203.089 310.786 203.617 309.794 203.883C309.019 202.359 307.795 201.108 306.287 200.301C306.027 200.129 305.718 200.044 305.406 200.058C305.043 200.156 304.73 200.383 304.524 200.697C303.163 202.366 302.314 204.393 302.078 206.533C301.96 207.575 301.985 208.628 302.154 209.662C302.282 210.378 303.113 211.929 302.793 212.593C302.295 213.59 299.81 213.871 298.015 214.088C297.376 214.158 296.859 214.222 296.52 214.298C293.995 214.86 291.495 215.52 289.021 216.278L288.561 216.406C288.14 212.574 287.539 208.57 287.079 205.735C285.961 203.722 285.262 201.502 285.026 199.211C284.789 196.92 285.02 194.605 285.704 192.405C286.388 190.206 287.511 188.168 289.006 186.414C290.5 184.661 292.334 183.229 294.398 182.205C296.461 181.18 298.711 180.584 301.011 180.454C303.312 180.323 305.615 180.66 307.781 181.444C309.947 182.228 311.932 183.444 313.616 185.016C315.299 186.589 316.646 188.487 317.575 190.595L317.581 190.588Z" fill="black"/>
<path d="M304.122 200.263C304.326 199.947 304.64 199.72 305.003 199.624C305.315 199.607 305.624 199.69 305.885 199.86C307.392 200.671 308.617 201.92 309.398 203.443C310.387 203.173 311.285 202.644 312 201.911C312.716 201.178 313.222 200.267 313.467 199.273C313.997 197.006 313.186 194.286 314.713 192.517C315.23 191.916 315.958 191.527 316.527 190.965C317.301 190.132 317.781 189.069 317.894 187.938C318.041 186.706 317.877 185.458 317.417 184.305C316.957 183.153 316.217 182.134 315.262 181.342C314.202 180.473 312.88 179.886 312.068 178.787C310.918 177.153 311.225 174.835 310.152 173.155C308.791 171.042 305.764 170.741 303.323 171.367C300.883 171.993 298.635 173.283 296.144 173.634C294.163 173.902 292.164 173.532 290.171 173.404C288.178 173.277 286.044 173.404 284.422 174.566C282.403 175.984 281.586 178.589 279.823 180.314C278.06 182.038 275.236 182.868 273.691 184.886C273.135 185.638 272.776 186.516 272.646 187.441C272.515 188.367 272.618 189.31 272.943 190.186C273.582 191.814 274.962 193.13 275.275 194.847C275.658 196.884 274.451 199.183 275.492 200.978C276.897 200.812 278.168 202.025 278.577 203.379C278.986 204.733 278.762 206.188 278.577 207.587C278.392 208.985 278.194 210.461 278.692 211.782C278.787 212.071 278.956 212.329 279.184 212.529C279.554 212.748 279.974 212.867 280.404 212.874C281.686 213.066 282.86 213.698 283.726 214.662C284.06 215.117 284.448 215.528 284.882 215.888C285.949 216.616 287.386 216.246 288.625 215.888C291.099 215.135 293.599 214.475 296.124 213.909C297.447 213.609 301.733 213.538 302.404 212.204C302.736 211.565 301.905 209.988 301.765 209.273C301.505 207.7 301.581 206.091 301.988 204.55C302.396 203.009 303.125 201.572 304.128 200.333L304.122 200.263Z" fill="#464A5F"/>
<path opacity="0.1" d="M275.805 326.4C275.3 326.936 274.4 327.038 273.32 326.802L278.564 310.097C278.258 309.923 277.964 309.729 277.683 309.516C280.002 309.267 282.033 309.158 282.653 309.458C284.307 310.263 277.785 324.318 275.805 326.4Z" fill="black"/>
<path d="M275.383 325.972C273.384 328.06 265.489 323.245 264.441 321.253C263.873 320.199 262.633 319.695 261.598 319.452C261.058 319.325 260.506 319.25 259.95 319.228L265.514 310.084L267.303 310.237L268.612 310.352C268.612 310.352 280.589 308.213 282.25 309.018C283.911 309.822 277.357 323.89 275.383 325.972Z" fill="#BE6F72"/>
<path opacity="0.1" d="M267.277 310.25L261.573 319.465C261.032 319.338 260.48 319.263 259.925 319.242L265.489 310.097L267.277 310.25Z" fill="black"/>
<path d="M267.143 309.778L258.373 323.941L256.169 322.479L254.898 321.642L262.704 307.696L265.629 309.062L267.143 309.778Z" fill="#5EAAA8"/>
<path opacity="0.1" d="M265.629 309.062L256.169 322.479L254.898 321.642L262.704 307.696L265.629 309.062Z" fill="black"/>
<path d="M265.878 308.098L255.326 323.066L236.935 312.664L222.243 301.61L221.72 301.393C204.881 294.203 220.244 277.032 220.244 277.032C220.293 276.76 220.407 276.503 220.576 276.284C222.02 274.075 227.66 268.762 227.66 268.762L240.353 258.5L245.463 256.936L257.299 277.887L250.03 282.811C250.03 282.811 247.603 284.586 246.198 284.586C244.792 284.586 239.848 290.569 239.848 290.569L244.058 294.279C244.058 294.279 247.763 294.707 248.619 296.553C249.09 297.625 249.891 298.52 250.905 299.107L265.878 308.098Z" fill="#464A5F"/>
<path opacity="0.1" d="M231.372 283.871C231.372 283.871 242.352 282.038 242.921 282.811C243.489 283.583 231.372 283.871 231.372 283.871Z" fill="black"/>
<path opacity="0.1" d="M231.372 289.433C232.862 289.827 234.398 290.018 235.939 290.001C238.647 290.001 231.372 289.433 231.372 289.433Z" fill="black"/>
<path opacity="0.1" d="M222.154 301.393C205.316 294.203 220.678 277.031 220.678 277.031C220.728 276.759 220.841 276.503 221.011 276.284C224.121 275.767 228.848 277.006 229.557 288.986C229.979 296.15 226.504 299.707 222.154 301.393Z" fill="black"/>
<path d="M221.726 301.393C204.888 294.203 220.25 277.031 220.25 277.031C220.3 276.759 220.413 276.503 220.583 276.284C223.693 275.767 228.42 277.006 229.129 288.986C229.551 296.15 226.076 299.707 221.726 301.393Z" fill="#5F5D7E"/>
<g opacity="0.1">
<path opacity="0.1" d="M275.179 200.218C275.247 200.481 275.35 200.735 275.486 200.971C275.815 200.934 276.148 200.969 276.463 201.073C276.113 200.685 275.672 200.391 275.179 200.218V200.218Z" fill="black"/>
<path opacity="0.1" d="M279.095 212.012L278.75 211.968C278.838 212.184 278.979 212.375 279.159 212.523C279.529 212.742 279.949 212.861 280.379 212.868C280.936 212.953 281.477 213.123 281.982 213.373C281.172 212.648 280.169 212.176 279.095 212.012V212.012Z" fill="black"/>
<path opacity="0.1" d="M315.262 181.355C314.202 180.486 312.88 179.899 312.068 178.8C310.918 177.166 311.225 174.848 310.152 173.168C309.702 172.485 309.059 171.949 308.306 171.629C308.519 171.835 308.707 172.064 308.868 172.312C309.954 173.992 309.647 176.31 310.784 177.945C311.576 179.062 312.899 179.65 313.978 180.499C314.933 181.292 315.673 182.31 316.133 183.463C316.593 184.615 316.757 185.864 316.61 187.095C316.497 188.226 316.017 189.29 315.243 190.122C314.674 190.684 313.965 191.074 313.429 191.674C311.909 193.443 312.713 196.144 312.183 198.43C311.966 199.315 311.54 200.136 310.943 200.824C310.345 201.512 309.592 202.049 308.747 202.389C308.985 202.729 309.198 203.085 309.385 203.456C310.374 203.186 311.272 202.657 311.988 201.924C312.703 201.191 313.209 200.28 313.454 199.286C313.985 197.019 313.173 194.298 314.7 192.53C315.217 191.929 315.946 191.54 316.514 190.978C317.288 190.145 317.768 189.082 317.881 187.951C318.029 186.72 317.867 185.472 317.41 184.32C316.953 183.168 316.214 182.149 315.262 181.355V181.355Z" fill="black"/>
<path opacity="0.1" d="M304.601 199.017C304.34 198.847 304.031 198.764 303.719 198.781C303.356 198.877 303.042 199.105 302.838 199.42C301.835 200.659 301.105 202.096 300.698 203.637C300.291 205.178 300.214 206.787 300.474 208.36C300.596 209.081 301.426 210.633 301.113 211.291C300.443 212.625 296.156 212.696 294.834 212.996C292.309 213.558 289.809 214.218 287.335 214.975C286.368 215.359 285.315 215.476 284.288 215.314C284.46 215.517 284.658 215.697 284.876 215.85C285.942 216.578 287.38 216.208 288.619 215.85C291.093 215.097 293.593 214.437 296.118 213.871C297.44 213.57 301.726 213.5 302.397 212.166C302.729 211.527 301.899 209.95 301.758 209.235C301.498 207.662 301.575 206.052 301.982 204.511C302.389 202.971 303.119 201.533 304.122 200.295C304.326 199.979 304.64 199.752 305.003 199.656C305.312 199.636 305.619 199.717 305.879 199.886C305.48 199.558 305.052 199.268 304.601 199.017V199.017Z" fill="black"/>
</g>
<path opacity="0.1" d="M577.8 535.813C590.218 535.813 600.285 534.112 600.285 532.013C600.285 529.915 590.218 528.214 577.8 528.214C565.382 528.214 555.315 529.915 555.315 532.013C555.315 534.112 565.382 535.813 577.8 535.813Z" fill="#599C68"/>
<path d="M562.705 514.363C562.705 514.363 575.526 513.967 579.39 511.215C583.255 508.463 599.122 505.181 600.08 509.593C601.038 514.006 619.352 531.541 604.871 531.656C590.39 531.771 571.233 529.402 567.375 527.052C563.517 524.702 562.705 514.363 562.705 514.363Z" fill="#5F5D7E"/>
<path opacity="0.2" d="M605.133 530.117C590.652 530.238 571.489 527.863 567.63 525.513C564.692 523.725 563.523 517.307 563.159 514.344H562.731C562.731 514.344 563.542 524.683 567.4 527.033C571.259 529.383 590.396 531.752 604.897 531.637C609.081 531.637 610.524 530.117 610.441 527.914C609.834 529.261 608.244 530.066 605.133 530.117Z" fill="black"/>
<path d="M660.458 550.398C673.983 550.398 684.948 548.545 684.948 546.26C684.948 543.975 673.983 542.122 660.458 542.122C646.932 542.122 635.967 543.975 635.967 546.26C635.967 548.545 646.932 550.398 660.458 550.398Z" fill="#5EAAA8"/>
<path d="M670.582 539.491C671.698 538.578 672.513 537.35 672.92 535.966C673.22 534.568 672.626 532.895 671.285 532.378C669.79 531.809 668.187 532.844 666.973 533.897C665.759 534.951 664.367 536.139 662.776 535.915C663.593 535.175 664.203 534.236 664.549 533.19C664.895 532.143 664.964 531.025 664.75 529.945C664.682 529.497 664.492 529.077 664.201 528.731C663.37 527.844 661.863 528.22 660.866 528.923C657.672 531.152 656.816 535.449 656.797 539.325C656.478 537.927 656.746 536.471 656.74 535.04C656.733 533.61 656.337 532.02 655.13 531.247C654.377 530.844 653.531 530.646 652.677 530.673C651.253 530.621 649.668 530.762 648.691 531.803C647.484 533.08 647.797 535.27 648.851 536.694C649.905 538.118 651.502 539.006 652.971 539.989C654.15 540.694 655.157 541.654 655.916 542.799C656.006 542.959 656.079 543.128 656.133 543.304H665.076C667.076 542.288 668.928 541.006 670.582 539.491Z" fill="#5EAAA8"/>
</g>
<defs>
<linearGradient id="paint0_linear" x1="320.2" y1="539.951" x2="320.2" y2="168.564" gradientUnits="userSpaceOnUse">
<stop stop-color="#808080" stop-opacity="0.25"/>
<stop offset="0.54" stop-color="#808080" stop-opacity="0.12"/>
<stop offset="1" stop-color="#808080" stop-opacity="0.1"/>
</linearGradient>
<clipPath id="clip0">
<rect width="579.576" height="511.936" fill="white" transform="translate(127.321 38.4614)"/>
</clipPath>
</defs>
</svg>
