<svg width="654" height="592" viewBox="0 0 654 592" fill="none" xmlns="http://www.w3.org/2000/svg">
<g opacity="0.5">
<path opacity="0.5" d="M301.656 158.246C328.439 158.246 340.825 143.863 340.825 124.586C340.825 90.9269 313.713 66.7468 280.07 66.7468C264.011 66.9584 248.681 73.4895 237.399 84.9263C226.118 96.363 219.792 111.785 219.792 127.854C219.792 143.922 226.118 159.344 237.399 170.781C248.681 182.218 264.011 188.749 280.07 188.961C292.488 188.853 304.567 184.897 314.645 177.638C315.144 177.284 315.568 176.833 315.891 176.313C316.215 175.793 316.432 175.214 316.529 174.609C316.628 174.098 316.594 173.57 316.429 173.077C316.263 172.583 315.974 172.14 315.587 171.792C315.186 171.45 314.718 171.194 314.213 171.042C313.709 170.889 313.178 170.841 312.654 170.903C312.131 170.965 311.626 171.134 311.17 171.4C310.715 171.666 310.319 172.023 310.008 172.449C307.785 175.372 301.147 180.318 281.51 180.763C251.795 181.441 226.928 157.769 226.832 128.029C226.737 98.5315 250.948 75.2411 280.07 74.9128C309.193 74.5844 332.652 95.174 332.652 123.93C332.652 142.232 319.949 150.726 304.567 150.408C299.665 150.736 298.692 148.777 299.337 141.935C299.877 136.3 305.255 112.809 307.16 104.59C307.326 103.908 307.331 103.197 307.177 102.513C307.022 101.829 306.711 101.19 306.268 100.647C305.825 100.103 305.262 99.6691 304.623 99.3793C303.985 99.0896 303.288 98.9516 302.587 98.9764H302.259C301.249 99.0978 300.31 99.5555 299.592 100.276C298.874 100.996 298.419 101.938 298.3 102.948C298.131 104.269 298.04 105.599 298.025 106.93C295.082 101.052 288.222 96.4768 280.028 96.1485C262.72 96.4768 247.698 112.163 247.041 135.04C247.041 150.397 255.203 159.22 269.272 159.22C279.075 159.22 286.21 153.342 290.18 147.781C290.201 147.792 289.873 157.589 301.656 158.246ZM270.628 151.382C261.809 151.382 256.58 144.848 256.58 134.436C256.58 116.431 268.669 105.024 280.092 105.024C290.212 105.024 294.139 111.887 294.468 121.038C294.446 135.728 284.972 151.382 270.606 151.382H270.628Z" fill="url(#paint0_linear)"/>
</g>
<path d="M300.671 156.911C326.269 156.911 338.125 143.143 338.125 124.745C338.125 92.5794 312.221 69.469 280.07 69.469C264.589 69.469 249.742 75.6219 238.795 86.5742C227.848 97.5265 221.698 112.381 221.698 127.87C221.698 143.359 227.848 158.213 238.795 169.165C249.742 180.118 264.589 186.271 280.07 186.271C291.936 186.169 303.479 182.392 313.11 175.457C313.589 175.119 313.995 174.69 314.306 174.194C314.617 173.697 314.826 173.144 314.92 172.565C315.015 172.077 314.982 171.573 314.824 171.102C314.666 170.63 314.39 170.208 314.02 169.875C313.638 169.554 313.194 169.315 312.715 169.173C312.237 169.03 311.735 168.987 311.239 169.045C310.743 169.104 310.265 169.263 309.833 169.513C309.401 169.763 309.025 170.099 308.727 170.5C306.61 173.286 300.258 178.02 281.489 178.444C253.086 179.09 229.331 156.466 229.236 128.039C229.14 99.8556 252.282 77.5926 280.113 77.2854C307.944 76.9783 330.365 96.6464 330.365 124.131C330.365 141.617 318.191 149.741 303.519 149.423C298.84 149.73 297.898 147.866 298.522 141.3C299.03 135.909 304.175 113.466 306.007 105.617C306.164 104.966 306.168 104.287 306.02 103.634C305.871 102.981 305.573 102.371 305.15 101.852C304.727 101.333 304.189 100.919 303.579 100.643C302.969 100.366 302.304 100.234 301.634 100.258H301.317C300.352 100.375 299.454 100.814 298.769 101.504C298.083 102.194 297.649 103.094 297.538 104.06C297.376 105.325 297.287 106.598 297.273 107.873C294.468 102.249 287.904 97.875 280.102 97.5679C263.556 97.875 249.201 112.872 248.576 134.733C248.576 149.413 256.378 157.843 269.802 157.843C279.171 157.843 286.03 152.219 289.778 146.913C289.746 146.902 289.439 156.276 300.671 156.911ZM271.03 150.355C262.561 150.355 257.607 144.106 257.607 134.119C257.607 116.94 269.156 106.009 280.081 106.009C289.757 106.009 293.504 112.565 293.843 121.314C293.811 135.347 284.718 150.345 271.019 150.345L271.03 150.355Z" fill="#00BFA6" fill-opacity="0.5"/>
<path d="M503.168 134.443C512.617 134.443 517 129.501 517 122.874C517 111.305 507.43 103 495.555 103C489.838 103 484.356 105.213 480.313 109.151C476.271 113.089 474 118.43 474 124C474 129.57 476.271 134.911 480.313 138.849C484.356 142.787 489.838 145 495.555 145C499.941 144.956 504.205 143.587 507.759 141.083C507.935 140.962 508.086 140.808 508.201 140.629C508.316 140.451 508.393 140.252 508.429 140.045C508.464 139.87 508.452 139.689 508.395 139.52C508.337 139.35 508.236 139.198 508.1 139.078C507.959 138.959 507.794 138.87 507.616 138.816C507.437 138.763 507.249 138.746 507.063 138.768C506.878 138.789 506.699 138.848 506.538 138.941C506.378 139.034 506.239 139.159 506.13 139.307C505.346 140.312 503.001 142.01 496.078 142.166C493.583 142.235 491.099 141.818 488.772 140.94C486.444 140.062 484.32 138.74 482.524 137.053C480.727 135.365 479.294 133.345 478.308 131.111C477.323 128.877 476.805 126.474 476.784 124.042C476.751 113.91 485.295 105.905 495.549 105.762C505.802 105.618 514.105 112.787 514.105 122.691C514.105 128.978 509.608 131.897 504.193 131.786C502.465 131.897 502.116 131.224 502.351 128.867C502.538 126.909 504.441 118.859 505.112 116.038C505.176 115.802 505.182 115.554 505.13 115.315C505.078 115.076 504.969 114.852 504.812 114.661C504.655 114.471 504.454 114.319 504.225 114.218C503.997 114.117 503.747 114.069 503.497 114.079H503.383C503.027 114.121 502.696 114.278 502.443 114.526C502.19 114.774 502.03 115.097 501.989 115.444C501.928 115.899 501.894 116.356 501.888 116.815C501.26 115.708 500.343 114.782 499.23 114.13C498.117 113.479 496.847 113.126 495.549 113.107C489.437 113.218 484.156 118.61 483.908 126.471C483.908 131.746 486.79 134.782 491.749 134.782C493.209 134.751 494.641 134.379 495.924 133.697C497.206 133.016 498.302 132.044 499.12 130.865C499.12 130.865 499.02 134.234 503.168 134.443ZM492.218 132.086C489.108 132.086 487.259 129.84 487.259 126.249C487.259 120.073 491.521 116.143 495.555 116.143C499.127 116.143 500.514 118.499 500.628 121.646C500.635 126.713 497.291 132.099 492.218 132.099V132.086Z" fill="#00BFA6" fill-opacity="0.5"/>
<g opacity="0.5">
<path opacity="0.5" d="M420.221 239.27C435.645 239.27 442.791 230.987 442.791 219.887C442.791 200.505 427.176 186.578 407.803 186.578C398.474 186.578 389.526 190.286 382.929 196.886C376.332 203.486 372.625 212.438 372.625 221.773C372.625 231.107 376.332 240.059 382.929 246.659C389.526 253.26 398.474 256.968 407.803 256.968C414.955 256.905 421.912 254.625 427.716 250.444C427.999 250.237 428.238 249.976 428.42 249.676C428.602 249.376 428.722 249.043 428.775 248.696C428.832 248.402 428.812 248.099 428.718 247.815C428.623 247.531 428.457 247.276 428.235 247.076C428.004 246.885 427.737 246.744 427.45 246.66C427.163 246.576 426.862 246.551 426.565 246.587C426.269 246.623 425.982 246.718 425.723 246.868C425.464 247.017 425.238 247.218 425.059 247.457C423.778 249.141 419.956 251.99 408.64 252.244C404.57 252.35 400.52 251.644 396.726 250.169C392.931 248.694 389.468 246.479 386.537 243.652C383.606 240.825 381.267 237.444 379.654 233.704C378.042 229.964 377.189 225.941 377.146 221.868C377.093 204.922 391.035 191.46 407.846 191.28C424.657 191.1 438.133 202.931 438.133 219.517C438.133 230.108 430.797 234.948 421.957 234.758C419.131 234.948 418.57 233.815 418.951 229.865C419.162 226.613 422.338 213.045 423.397 208.353C423.492 207.961 423.495 207.552 423.405 207.158C423.316 206.764 423.136 206.396 422.881 206.083C422.626 205.77 422.301 205.521 421.934 205.354C421.566 205.188 421.164 205.108 420.761 205.123H420.57C419.989 205.193 419.449 205.457 419.036 205.872C418.623 206.287 418.362 206.829 418.294 207.411C418.197 208.173 418.144 208.941 418.136 209.709C417.106 207.859 415.609 206.311 413.794 205.222C411.979 204.133 409.909 203.54 407.793 203.503C397.821 203.693 389.172 212.728 388.791 225.903C388.791 234.747 393.491 239.831 401.579 239.831C403.966 239.777 406.304 239.15 408.399 238.004C410.493 236.857 412.282 235.225 413.615 233.243C413.615 233.243 413.446 238.888 420.221 239.27ZM402.341 235.287C397.26 235.287 394.253 231.527 394.253 225.501C394.253 215.153 401.219 208.555 407.793 208.555C413.626 208.555 415.881 212.505 416.071 217.78C416.082 226.285 410.619 235.287 402.341 235.287Z" fill="url(#paint1_linear)"/>
</g>
<path d="M419.819 238.708C434.745 238.708 441.669 230.691 441.669 219.941C441.669 201.173 426.552 187.7 407.793 187.7C398.762 187.7 390.101 191.29 383.716 197.678C377.33 204.067 373.742 212.732 373.742 221.768C373.742 230.803 377.33 239.468 383.716 245.857C390.101 252.246 398.762 255.835 407.793 255.835C414.721 255.763 421.456 253.543 427.07 249.48C427.35 249.283 427.587 249.033 427.769 248.744C427.951 248.455 428.073 248.133 428.129 247.796C428.184 247.512 428.166 247.219 428.075 246.944C427.984 246.67 427.824 246.423 427.61 246.228C427.387 246.035 427.127 245.89 426.844 245.803C426.562 245.716 426.265 245.69 425.972 245.725C425.679 245.76 425.397 245.855 425.143 246.006C424.889 246.156 424.669 246.359 424.498 246.599C423.259 248.23 419.554 250.984 408.619 251.238C404.678 251.349 400.754 250.673 397.077 249.249C393.401 247.824 390.045 245.68 387.207 242.942C384.369 240.204 382.105 236.927 380.548 233.303C378.992 229.679 378.173 225.781 378.141 221.836C378.088 205.399 391.585 192.414 407.782 192.181C423.979 191.948 437.159 203.513 437.159 219.58C437.159 229.78 430.056 234.514 421.502 234.334C418.771 234.514 418.22 233.423 418.591 229.6C418.887 226.422 421.894 213.363 422.952 208.788C423.054 208.404 423.064 208.003 422.982 207.615C422.9 207.227 422.727 206.863 422.479 206.554C422.231 206.245 421.913 205.999 421.552 205.835C421.192 205.671 420.797 205.594 420.401 205.61H420.221C419.659 205.678 419.136 205.933 418.736 206.335C418.337 206.737 418.084 207.261 418.019 207.824C417.923 208.562 417.87 209.304 417.86 210.048C416.869 208.252 415.42 206.749 413.662 205.693C411.903 204.637 409.897 204.064 407.846 204.032C398.191 204.212 389.849 212.961 389.458 225.713C389.458 234.271 394.01 239.196 401.844 239.196C404.151 239.145 406.412 238.541 408.438 237.435C410.465 236.33 412.196 234.754 413.488 232.841C413.488 232.841 413.266 238.338 419.819 238.708ZM402.521 234.885C397.609 234.885 394.687 231.242 394.687 225.416C394.687 215.397 401.42 209.021 407.793 209.021C413.435 209.021 415.627 212.844 415.807 217.949C415.817 226.137 410.535 234.874 402.521 234.874V234.885Z" fill="#00BFA6" fill-opacity="0.5"/>
<g opacity="0.5">
<path opacity="0.5" d="M326.861 268.057C342.91 268.057 350.352 259.435 350.352 247.933C350.352 227.81 334.102 213.268 313.936 213.268C304.227 213.268 294.916 217.126 288.051 223.995C281.185 230.863 277.329 240.179 277.329 249.893C277.329 259.606 281.185 268.922 288.051 275.79C294.916 282.659 304.227 286.517 313.936 286.517C321.377 286.452 328.615 284.08 334.653 279.728C334.952 279.517 335.207 279.248 335.401 278.937C335.596 278.626 335.726 278.279 335.786 277.917C335.844 277.612 335.824 277.297 335.725 277.002C335.627 276.707 335.455 276.442 335.224 276.233C334.984 276.028 334.704 275.875 334.401 275.783C334.099 275.691 333.78 275.662 333.466 275.699C333.152 275.736 332.849 275.837 332.576 275.996C332.303 276.156 332.066 276.37 331.879 276.625C330.545 278.373 326.586 281.338 314.793 281.603C310.554 281.723 306.334 280.996 302.378 279.466C298.423 277.935 294.812 275.632 291.757 272.689C288.702 269.747 286.263 266.225 284.584 262.329C282.904 258.433 282.018 254.241 281.976 249.998C281.923 232.321 296.426 218.362 313.883 218.161C331.339 217.96 345.398 230.309 345.398 247.541C345.398 258.514 337.765 263.598 328.566 263.428C325.633 263.619 325.041 262.454 325.39 258.334C325.707 254.955 328.936 240.879 330.08 235.954C330.18 235.545 330.184 235.119 330.091 234.708C329.999 234.297 329.812 233.914 329.547 233.587C329.281 233.261 328.943 233.001 328.56 232.827C328.177 232.653 327.758 232.571 327.338 232.586H327.137C326.531 232.659 325.967 232.933 325.537 233.366C325.107 233.798 324.835 234.363 324.765 234.969C324.663 235.763 324.606 236.562 324.596 237.363C323.524 235.437 321.966 233.826 320.076 232.692C318.187 231.559 316.033 230.941 313.83 230.902C303.455 231.093 294.446 240.498 294.055 254.203C294.055 263.407 298.946 268.692 307.362 268.692C309.873 268.647 312.336 267.993 314.539 266.787C316.743 265.581 318.621 263.857 320.012 261.765C320.012 261.765 319.811 267.665 326.861 268.057ZM308.261 263.947C302.968 263.947 299.792 260.028 299.792 253.758C299.792 242.987 307.033 236.134 313.883 236.134C319.949 236.134 322.352 240.244 322.5 245.73C322.553 254.542 316.879 263.937 308.261 263.937V263.947Z" fill="url(#paint2_linear)"/>
</g>
<path d="M326.004 266.776C340.93 266.776 347.854 258.758 347.854 248.008C347.854 229.24 332.737 215.768 313.978 215.768C304.947 215.768 296.286 219.357 289.901 225.746C283.515 232.134 279.927 240.8 279.927 249.835C279.927 258.87 283.515 267.535 289.901 273.924C296.286 280.313 304.947 283.902 313.978 283.902C320.906 283.83 327.642 281.61 333.255 277.547C333.535 277.351 333.772 277.101 333.954 276.811C334.136 276.522 334.258 276.2 334.314 275.863C334.369 275.579 334.351 275.286 334.26 275.011C334.169 274.737 334.009 274.49 333.795 274.295C333.572 274.102 333.312 273.957 333.029 273.87C332.747 273.784 332.45 273.757 332.157 273.792C331.864 273.827 331.582 273.922 331.328 274.073C331.074 274.224 330.854 274.426 330.683 274.666C329.444 276.297 325.739 279.051 314.804 279.305C310.863 279.417 306.939 278.74 303.262 277.316C299.586 275.891 296.23 273.747 293.392 271.009C290.554 268.271 288.29 264.994 286.733 261.37C285.177 257.746 284.358 253.848 284.326 249.904C284.273 233.466 297.771 220.481 313.967 220.248C330.164 220.015 343.281 231.538 343.281 247.573C343.281 257.773 336.177 262.507 327.624 262.327C324.892 262.507 324.342 261.416 324.712 257.593C325.009 254.415 328.015 241.356 329.074 236.781C329.175 236.397 329.185 235.996 329.103 235.608C329.021 235.22 328.849 234.856 328.601 234.547C328.352 234.238 328.035 233.992 327.674 233.828C327.313 233.664 326.919 233.587 326.523 233.603H326.343C325.78 233.671 325.257 233.926 324.858 234.328C324.458 234.73 324.206 235.254 324.141 235.817C324.045 236.555 323.992 237.297 323.982 238.041C322.99 236.245 321.542 234.742 319.783 233.686C318.025 232.63 316.018 232.057 313.967 232.025C304.313 232.205 295.971 240.954 295.579 253.706C295.579 262.264 300.131 267.189 307.965 267.189C310.272 267.138 312.534 266.534 314.56 265.428C316.586 264.323 318.318 262.747 319.61 260.834C319.61 260.834 319.398 266.416 326.004 266.776ZM308.706 262.952C303.794 262.952 300.872 259.309 300.872 253.483C300.872 243.464 307.605 237.088 313.978 237.088C319.62 237.088 321.812 240.911 321.992 246.017C321.949 254.214 316.667 262.952 308.664 262.952H308.706Z" fill="#00BFA6" fill-opacity="0.5"/>
<g opacity="0.5">
<path opacity="0.5" d="M326.861 381.321C342.91 381.321 350.352 372.699 350.352 361.197C350.352 341.074 334.102 326.532 313.936 326.532C304.227 326.532 294.916 330.39 288.051 337.259C281.185 344.127 277.329 353.443 277.329 363.157C277.329 372.87 281.185 382.186 288.051 389.054C294.916 395.923 304.227 399.782 313.936 399.782C321.377 399.716 328.615 397.344 334.653 392.993C334.952 392.781 335.207 392.512 335.401 392.201C335.596 391.89 335.726 391.543 335.786 391.181C335.844 390.876 335.824 390.561 335.725 390.266C335.627 389.971 335.455 389.706 335.224 389.497C334.984 389.292 334.704 389.139 334.401 389.047C334.099 388.955 333.78 388.926 333.466 388.963C333.152 389 332.849 389.101 332.576 389.261C332.303 389.42 332.066 389.634 331.879 389.889C330.545 391.637 326.586 394.602 314.793 394.867C310.554 394.987 306.334 394.26 302.378 392.73C298.423 391.199 294.812 388.896 291.757 385.953C288.702 383.011 286.263 379.489 284.584 375.593C282.904 371.697 282.018 367.505 281.976 363.263C281.923 345.586 296.426 331.626 313.883 331.425C331.339 331.224 345.398 343.573 345.398 360.805C345.398 371.778 337.765 376.862 328.566 376.692C325.633 376.883 325.041 375.718 325.39 371.598C325.707 368.219 328.936 354.143 330.08 349.218C330.18 348.81 330.184 348.383 330.091 347.972C329.999 347.562 329.812 347.178 329.547 346.852C329.281 346.525 328.943 346.265 328.56 346.091C328.177 345.917 327.758 345.835 327.338 345.85H327.137C326.531 345.923 325.967 346.197 325.537 346.63C325.107 347.062 324.835 347.627 324.765 348.233C324.663 349.027 324.606 349.827 324.596 350.627C323.524 348.701 321.966 347.09 320.076 345.957C318.187 344.823 316.033 344.205 313.83 344.166C303.455 344.357 294.446 353.762 294.055 367.467C294.055 376.671 298.946 381.956 307.362 381.956C309.867 381.918 312.327 381.274 314.529 380.079C316.732 378.884 318.613 377.173 320.012 375.093C320.012 375.093 319.811 380.929 326.861 381.321ZM308.261 377.211C302.968 377.211 299.792 373.293 299.792 367.023C299.792 356.251 307.033 349.398 313.883 349.398C319.949 349.398 322.352 353.508 322.5 358.994C322.553 367.806 316.879 377.211 308.261 377.211Z" fill="url(#paint3_linear)"/>
</g>
<path d="M326.004 380.05C340.93 380.05 347.854 372.032 347.854 361.282C347.854 342.514 332.737 329.042 313.978 329.042C304.947 329.042 296.286 332.631 289.901 339.02C283.515 345.409 279.927 354.074 279.927 363.109C279.927 372.144 283.515 380.809 289.901 387.198C296.286 393.587 304.947 397.176 313.978 397.176C320.906 397.104 327.642 394.884 333.255 390.821C333.535 390.625 333.772 390.375 333.954 390.086C334.136 389.797 334.258 389.474 334.314 389.137C334.369 388.854 334.351 388.56 334.26 388.286C334.169 388.011 334.009 387.765 333.795 387.57C333.572 387.376 333.312 387.232 333.029 387.145C332.747 387.058 332.45 387.031 332.157 387.066C331.864 387.101 331.582 387.197 331.328 387.347C331.074 387.498 330.854 387.7 330.683 387.941C329.444 389.572 325.739 392.325 314.804 392.58C310.863 392.691 306.939 392.015 303.262 390.59C299.586 389.166 296.23 387.022 293.392 384.284C290.554 381.546 288.29 378.269 286.733 374.645C285.177 371.021 284.358 367.122 284.326 363.178C284.273 346.74 297.771 333.755 313.967 333.522C330.164 333.289 343.281 344.813 343.281 360.848C343.281 371.047 336.177 375.782 327.624 375.602C324.892 375.782 324.342 374.691 324.712 370.867C325.009 367.69 328.015 354.631 329.074 350.055C329.175 349.672 329.185 349.27 329.103 348.882C329.021 348.494 328.849 348.131 328.601 347.822C328.352 347.512 328.035 347.266 327.674 347.102C327.313 346.938 326.919 346.861 326.523 346.878H326.343C325.78 346.946 325.257 347.201 324.858 347.602C324.458 348.004 324.206 348.529 324.141 349.091C324.045 349.829 323.992 350.572 323.982 351.316C322.97 349.54 321.509 348.063 319.745 347.031C317.982 345.999 315.978 345.45 313.936 345.437C304.281 345.617 295.939 354.366 295.547 367.118C295.547 375.676 300.099 380.601 307.933 380.601C310.241 380.55 312.502 379.946 314.528 378.84C316.554 377.735 318.286 376.159 319.578 374.246C319.578 374.246 319.398 379.679 326.004 380.05ZM308.706 376.227C303.794 376.227 300.872 372.583 300.872 366.758C300.872 356.738 307.605 350.362 313.978 350.362C319.62 350.362 321.812 354.186 321.992 359.291C321.949 367.478 316.667 376.227 308.664 376.227H308.706Z" fill="#00BFA6" fill-opacity="0.5"/>
<g opacity="0.5">
<path opacity="0.5" d="M454.914 475.276C471.09 475.276 478.585 466.591 478.585 454.952C478.585 434.627 462.208 420 441.893 420C432.108 420 422.724 423.889 415.806 430.811C408.887 437.733 405 447.122 405 456.911C405 466.7 408.887 476.089 415.806 483.011C422.724 489.933 432.108 493.822 441.893 493.822C449.395 493.757 456.692 491.366 462.779 486.98C463.082 486.766 463.34 486.494 463.536 486.179C463.732 485.864 463.864 485.514 463.923 485.148C463.983 484.838 463.962 484.518 463.862 484.219C463.762 483.921 463.586 483.653 463.351 483.442C463.108 483.237 462.826 483.084 462.521 482.993C462.216 482.901 461.896 482.874 461.58 482.912C461.265 482.949 460.96 483.052 460.686 483.212C460.411 483.373 460.172 483.588 459.985 483.845C458.64 485.603 454.628 488.6 442.772 488.865C438.507 488.975 434.263 488.235 430.287 486.689C426.311 485.142 422.682 482.82 419.611 479.857C416.541 476.894 414.09 473.35 412.401 469.431C410.712 465.512 409.819 461.295 409.774 457.027C409.711 439.213 424.341 425.147 441.935 424.946C459.529 424.745 473.694 437.179 473.694 454.602C473.694 465.659 465.998 470.786 456.756 470.584C453.792 470.786 453.21 469.599 453.58 465.448C453.908 462.048 457.158 447.855 458.312 442.899C458.412 442.487 458.415 442.058 458.322 441.644C458.228 441.231 458.04 440.845 457.773 440.517C457.505 440.189 457.165 439.927 456.779 439.752C456.393 439.577 455.972 439.494 455.549 439.509H455.348C454.737 439.582 454.168 439.859 453.734 440.295C453.299 440.731 453.025 441.302 452.955 441.914C452.853 442.711 452.796 443.514 452.786 444.318C451.704 442.378 450.133 440.756 448.229 439.613C446.325 438.47 444.155 437.846 441.935 437.804C431.476 438.005 422.404 447.474 422.012 461.296C422.012 470.574 426.945 475.901 435.425 475.901C437.929 475.846 440.382 475.189 442.58 473.988C444.778 472.786 446.655 471.074 448.054 468.996C448.054 468.996 447.811 474.884 454.914 475.276ZM436.176 471.135C430.883 471.135 427.707 467.185 427.707 460.872C427.707 450.016 435.012 443.11 441.914 443.11C448.033 443.11 450.383 447.252 450.595 452.78C450.574 461.656 444.846 471.135 436.166 471.135H436.176Z" fill="url(#paint4_linear)"/>
</g>
<path d="M455.076 471.008C470.003 471.008 476.926 462.99 476.926 452.24C476.926 433.472 461.809 420 443.051 420C434.02 420 425.359 423.589 418.973 429.978C412.588 436.367 409 445.032 409 454.067C409 463.102 412.588 471.767 418.973 478.156C425.359 484.545 434.02 488.134 443.051 488.134C449.979 488.062 456.714 485.842 462.328 481.779C462.607 481.583 462.845 481.333 463.026 481.044C463.208 480.755 463.331 480.432 463.387 480.095C463.442 479.812 463.423 479.518 463.332 479.244C463.242 478.969 463.082 478.723 462.868 478.528C462.645 478.334 462.384 478.19 462.102 478.103C461.82 478.016 461.523 477.989 461.23 478.024C460.937 478.059 460.654 478.155 460.4 478.306C460.146 478.456 459.927 478.658 459.756 478.899C458.517 480.53 454.812 483.283 443.876 483.538C439.935 483.649 436.012 482.973 432.335 481.548C428.658 480.124 425.303 477.98 422.465 475.242C419.626 472.504 417.363 469.227 415.806 465.603C414.249 461.979 413.431 458.08 413.399 454.136C413.346 437.698 426.843 424.713 443.04 424.48C459.237 424.247 472.343 435.855 472.343 451.88C472.343 462.08 465.239 466.814 456.686 466.634C453.954 466.814 453.404 465.723 453.774 461.899C454.071 458.722 457.077 445.663 458.136 441.087C458.237 440.704 458.247 440.302 458.165 439.914C458.083 439.526 457.911 439.163 457.663 438.854C457.414 438.545 457.097 438.298 456.736 438.134C456.375 437.97 455.981 437.893 455.585 437.91H455.405C454.842 437.978 454.319 438.233 453.92 438.635C453.52 439.036 453.268 439.561 453.203 440.124C453.107 440.861 453.054 441.604 453.044 442.348C452.052 440.551 450.604 439.049 448.845 437.993C447.087 436.936 445.08 436.363 443.029 436.332C433.375 436.512 425.033 445.26 424.641 458.012C424.641 466.57 429.193 471.495 437.027 471.495C439.334 471.444 441.596 470.841 443.622 469.735C445.648 468.629 447.38 467.054 448.672 465.14C448.672 465.14 448.524 470.648 455.076 471.008ZM437.779 467.185C432.867 467.185 429.945 463.541 429.945 457.716C429.945 447.696 436.678 441.32 443.051 441.32C448.693 441.32 450.884 445.144 451.064 450.249C451.075 458.447 445.792 467.185 437.779 467.185Z" fill="#00BFA6" fill-opacity="0.5"/>
<path opacity="0.5" d="M425.091 334.55C435.751 334.55 440.695 328.82 440.695 321.152C440.695 307.754 429.897 298.115 416.505 298.115C410.251 298.407 404.35 301.099 400.027 305.63C395.704 310.162 393.292 316.185 393.292 322.449C393.292 328.713 395.704 334.737 400.027 339.268C404.35 343.8 410.251 346.491 416.505 346.783C421.448 346.738 426.256 345.162 430.267 342.271C430.467 342.13 430.636 341.95 430.765 341.743C430.894 341.536 430.98 341.305 431.019 341.063C431.06 340.86 431.047 340.65 430.982 340.453C430.917 340.256 430.802 340.08 430.648 339.941C430.488 339.804 430.302 339.702 430.101 339.641C429.9 339.58 429.688 339.562 429.479 339.587C429.27 339.612 429.069 339.679 428.888 339.786C428.706 339.892 428.549 340.035 428.425 340.206C427.547 341.371 424.9 343.383 417.077 343.521C414.311 343.558 411.564 343.05 408.993 342.026C406.423 341.001 404.08 339.48 402.097 337.55C398.093 333.651 395.8 328.32 395.725 322.73C395.649 317.14 397.796 311.749 401.693 307.742C405.59 303.736 410.918 301.443 416.505 301.367C428.076 301.24 437.445 309.438 437.445 320.887C437.445 328.174 432.374 331.552 426.255 331.478C424.307 331.605 423.916 330.832 424.138 328.1C424.35 325.854 426.499 316.502 427.25 313.272C427.316 313 427.318 312.718 427.256 312.445C427.194 312.173 427.07 311.919 426.894 311.703C426.717 311.486 426.493 311.314 426.24 311.198C425.986 311.083 425.708 311.028 425.429 311.037H425.302C424.9 311.084 424.526 311.266 424.24 311.552C423.954 311.838 423.772 312.213 423.725 312.615C423.659 313.142 423.624 313.673 423.619 314.204C422.907 312.924 421.871 311.854 420.615 311.101C419.359 310.348 417.927 309.939 416.463 309.914C409.571 310.041 403.59 316.269 403.325 325.399C403.325 331.51 406.575 335.026 412.165 335.026C413.815 334.989 415.432 334.556 416.88 333.763C418.328 332.971 419.564 331.842 420.486 330.472C420.486 330.472 420.412 334.285 425.091 334.55ZM412.737 331.817C409.222 331.817 407.147 329.212 407.147 325.049C407.147 317.89 411.964 313.335 416.516 313.335C420.549 313.335 422.105 316.068 422.243 319.69C422.232 325.568 418.464 331.817 412.737 331.817V331.817Z" fill="#00BFA6" fill-opacity="0.5"/>
<path opacity="0.5" d="M219.952 375.21C230.612 375.21 235.556 369.48 235.556 361.812C235.556 348.414 224.758 338.775 211.366 338.775C205.112 339.067 199.21 341.759 194.888 346.29C190.565 350.822 188.153 356.845 188.153 363.109C188.153 369.373 190.565 375.397 194.888 379.928C199.21 384.459 205.112 387.151 211.366 387.443C216.309 387.398 221.117 385.822 225.128 382.931C225.328 382.79 225.497 382.61 225.626 382.403C225.755 382.196 225.841 381.965 225.88 381.723C225.92 381.52 225.908 381.31 225.843 381.113C225.778 380.916 225.663 380.74 225.509 380.601C225.349 380.464 225.163 380.362 224.962 380.301C224.76 380.24 224.549 380.222 224.34 380.247C224.131 380.271 223.93 380.339 223.748 380.446C223.567 380.552 223.41 380.695 223.286 380.865C222.407 382.031 219.761 384.043 211.938 384.181C209.171 384.218 206.425 383.71 203.854 382.686C201.284 381.661 198.941 380.14 196.958 378.209C192.953 374.31 190.661 368.98 190.585 363.39C190.51 357.8 192.656 352.409 196.554 348.402C200.451 344.396 205.779 342.103 211.366 342.027C222.937 341.9 232.306 350.098 232.306 361.547C232.306 368.834 227.235 372.212 221.116 372.138C219.168 372.265 218.776 371.492 218.999 368.76C219.21 366.514 221.359 357.162 222.111 353.932C222.177 353.66 222.178 353.377 222.117 353.105C222.055 352.833 221.931 352.579 221.754 352.363C221.578 352.146 221.354 351.974 221.1 351.858C220.846 351.743 220.569 351.687 220.29 351.697H220.163C219.761 351.744 219.387 351.926 219.101 352.212C218.814 352.498 218.633 352.873 218.586 353.275C218.52 353.802 218.485 354.333 218.48 354.864C217.768 353.584 216.732 352.514 215.476 351.761C214.22 351.008 212.788 350.599 211.324 350.574C204.432 350.701 198.451 356.929 198.186 366.059C198.186 372.17 201.436 375.686 207.026 375.686C208.676 375.649 210.293 375.216 211.741 374.423C213.189 373.631 214.425 372.502 215.346 371.132C215.346 371.132 215.272 374.945 219.952 375.21ZM207.597 372.477C204.083 372.477 202.008 369.872 202.008 365.709C202.008 358.549 206.825 353.995 211.377 353.995C215.41 353.995 216.966 356.728 217.104 360.35C217.093 366.228 213.325 372.477 207.597 372.477V372.477Z" fill="#00BFA6" fill-opacity="0.5"/>
<path opacity="0.5" d="M194.799 194.172C205.459 194.172 210.403 188.442 210.403 180.774C210.403 167.376 199.605 157.738 186.213 157.738C179.959 158.03 174.058 160.721 169.735 165.252C165.412 169.784 163 175.807 163 182.071C163 188.335 165.412 194.359 169.735 198.89C174.058 203.422 179.959 206.113 186.213 206.405C191.157 206.36 195.964 204.784 199.975 201.893C200.175 201.752 200.344 201.573 200.473 201.365C200.602 201.158 200.688 200.927 200.727 200.686C200.768 200.482 200.755 200.272 200.69 200.075C200.625 199.878 200.51 199.702 200.356 199.563C200.196 199.426 200.01 199.324 199.809 199.263C199.607 199.203 199.396 199.184 199.187 199.209C198.978 199.234 198.777 199.302 198.595 199.408C198.414 199.514 198.257 199.657 198.133 199.828C197.255 200.993 194.608 203.005 186.785 203.143C184.018 203.18 181.272 202.672 178.701 201.648C176.131 200.623 173.788 199.102 171.805 197.172C169.822 195.241 168.239 192.939 167.146 190.396C166.052 187.853 165.47 185.12 165.433 182.352C165.395 179.584 165.903 176.836 166.927 174.264C167.951 171.693 169.471 169.348 171.401 167.365C173.33 165.381 175.632 163.797 178.173 162.703C180.715 161.609 183.447 161.027 186.213 160.989C197.784 160.862 207.153 169.06 207.153 180.509C207.153 187.796 202.082 191.175 195.963 191.1C194.015 191.227 193.624 190.454 193.846 187.722C194.058 185.476 196.207 176.124 196.958 172.894C197.024 172.622 197.026 172.34 196.964 172.067C196.902 171.795 196.778 171.541 196.602 171.325C196.425 171.108 196.202 170.936 195.948 170.82C195.694 170.705 195.416 170.65 195.137 170.659H195.01C194.608 170.706 194.234 170.888 193.948 171.174C193.662 171.46 193.48 171.835 193.433 172.237C193.367 172.764 193.332 173.295 193.327 173.826C192.615 172.546 191.579 171.476 190.323 170.723C189.067 169.97 187.635 169.561 186.171 169.536C179.279 169.663 173.298 175.891 173.033 185.021C173.033 191.132 176.283 194.648 181.873 194.648C183.523 194.611 185.14 194.178 186.588 193.385C188.036 192.593 189.272 191.464 190.194 190.094C190.194 190.094 190.12 193.907 194.799 194.172ZM182.445 191.439C178.93 191.439 176.855 188.834 176.855 184.671C176.855 177.512 181.672 172.957 186.224 172.957C190.257 172.957 191.813 175.69 191.951 179.312C191.94 185.19 188.161 191.439 182.445 191.439Z" fill="#00BFA6" fill-opacity="0.5"/>
<path opacity="0.5" d="M601.245 199.976C611.905 199.976 616.849 194.246 616.849 186.578C616.849 173.18 606.051 163.542 592.66 163.542C586.405 163.833 580.504 166.525 576.181 171.056C571.858 175.588 569.446 181.611 569.446 187.875C569.446 194.139 571.858 200.163 576.181 204.694C580.504 209.226 586.405 211.917 592.66 212.209C597.603 212.164 602.411 210.588 606.422 207.697C606.621 207.556 606.79 207.377 606.919 207.169C607.048 206.962 607.135 206.731 607.173 206.489C607.214 206.286 607.201 206.076 607.136 205.879C607.071 205.682 606.956 205.506 606.803 205.367C606.643 205.23 606.456 205.128 606.255 205.067C606.054 205.007 605.842 204.988 605.633 205.013C605.424 205.038 605.223 205.105 605.042 205.212C604.86 205.318 604.703 205.461 604.58 205.632C603.701 206.797 601.054 208.809 593.231 208.947C587.644 209.023 582.256 206.875 578.251 202.976C574.247 199.077 571.955 193.746 571.879 188.156C571.803 182.566 573.95 177.175 577.847 173.169C581.744 169.162 587.072 166.869 592.66 166.793C604.23 166.666 613.599 174.864 613.599 186.313C613.599 193.6 608.528 196.978 602.409 196.904C600.462 197.031 600.07 196.258 600.292 193.526C600.504 191.28 602.653 181.928 603.405 178.698C603.47 178.426 603.472 178.144 603.41 177.871C603.348 177.599 603.224 177.345 603.048 177.129C602.872 176.912 602.648 176.74 602.394 176.624C602.14 176.509 601.863 176.454 601.584 176.463H601.457C601.055 176.51 600.68 176.692 600.394 176.978C600.108 177.264 599.927 177.639 599.879 178.041C599.813 178.568 599.778 179.099 599.773 179.63C599.061 178.35 598.025 177.28 596.769 176.527C595.513 175.774 594.081 175.365 592.617 175.34C585.726 175.467 579.744 181.695 579.48 190.825C579.48 196.936 582.73 200.452 588.319 200.452C589.969 200.415 591.586 199.982 593.034 199.189C594.482 198.397 595.719 197.268 596.64 195.898C596.64 195.898 596.524 199.722 601.245 199.976ZM588.891 197.243C585.376 197.243 583.301 194.638 583.301 190.475C583.301 183.316 588.118 178.761 592.67 178.761C596.704 178.761 598.26 181.494 598.397 185.116C598.344 191.005 594.565 197.243 588.849 197.243H588.891Z" fill="#00BFA6" fill-opacity="0.5"/>
<path opacity="0.3" d="M215.209 247.901C221.18 247.901 223.953 244.724 223.953 240.392C223.953 232.883 217.908 227.492 210.403 227.492C206.856 227.591 203.489 229.07 201.015 231.614C198.542 234.159 197.158 237.568 197.158 241.118C197.158 244.667 198.542 248.077 201.015 250.621C203.489 253.166 206.856 254.645 210.403 254.744C213.17 254.72 215.863 253.84 218.11 252.223C218.334 252.061 218.486 251.818 218.533 251.545C218.555 251.431 218.547 251.314 218.51 251.204C218.473 251.095 218.408 250.997 218.321 250.92C218.231 250.843 218.127 250.786 218.014 250.752C217.9 250.718 217.782 250.707 217.664 250.721C217.547 250.735 217.434 250.773 217.332 250.833C217.23 250.893 217.142 250.973 217.072 251.068C216.575 251.714 215.092 252.826 210.72 252.922C209.145 252.985 207.573 252.732 206.097 252.178C204.621 251.623 203.271 250.779 202.126 249.694C200.982 248.608 200.067 247.305 199.434 245.86C198.801 244.415 198.465 242.858 198.443 241.281C198.422 239.704 198.717 238.138 199.31 236.677C199.904 235.215 200.784 233.888 201.899 232.772C203.014 231.657 204.34 230.776 205.801 230.182C207.262 229.588 208.826 229.293 210.403 229.314C216.882 229.239 222.132 233.836 222.132 240.244C222.132 244.322 219.295 246.217 215.865 246.143C214.807 246.217 214.553 245.783 214.701 244.247C214.817 242.987 216.024 237.755 216.448 235.923C216.476 235.769 216.469 235.61 216.429 235.459C216.389 235.307 216.315 235.167 216.214 235.047C216.113 234.928 215.986 234.832 215.843 234.767C215.701 234.703 215.546 234.67 215.389 234.673H215.315C215.093 234.709 214.888 234.814 214.73 234.974C214.572 235.134 214.469 235.34 214.436 235.563C214.398 235.858 214.377 236.155 214.373 236.452C213.974 235.736 213.395 235.137 212.693 234.715C211.991 234.293 211.19 234.063 210.371 234.048C206.507 234.122 203.162 237.617 203.014 242.722C203.014 246.143 204.834 248.113 207.968 248.113C208.892 248.091 209.797 247.848 210.607 247.404C211.418 246.96 212.11 246.328 212.626 245.561C212.627 245.889 212.697 246.213 212.831 246.512C212.964 246.812 213.159 247.08 213.402 247.301C213.645 247.521 213.931 247.688 214.242 247.791C214.553 247.895 214.883 247.932 215.209 247.901ZM208.286 246.376C206.317 246.376 205.11 244.915 205.11 242.585C205.11 238.581 207.809 236.029 210.403 236.029C212.658 236.029 213.579 237.554 213.579 239.598C213.61 242.871 211.493 246.376 208.296 246.376H208.286Z" fill="#00BFA6" fill-opacity="0.5"/>
<path opacity="0.3" d="M284.877 305.021C290.847 305.021 293.621 301.844 293.621 297.512C293.621 290.003 287.576 284.612 280.07 284.612C276.524 284.711 273.156 286.189 270.683 288.734C268.21 291.279 266.826 294.688 266.826 298.237C266.826 301.787 268.21 305.196 270.683 307.741C273.156 310.285 276.524 311.764 280.07 311.863C282.838 311.84 285.53 310.959 287.777 309.342C288.001 309.18 288.153 308.937 288.201 308.665C288.223 308.551 288.215 308.434 288.177 308.324C288.14 308.215 288.075 308.117 287.989 308.04C287.899 307.963 287.794 307.906 287.681 307.872C287.568 307.837 287.449 307.827 287.332 307.841C287.215 307.855 287.102 307.893 287 307.953C286.898 308.012 286.809 308.092 286.74 308.188C286.242 308.834 284.76 309.946 280.388 310.041C278.813 310.105 277.241 309.852 275.765 309.297C274.289 308.743 272.938 307.898 271.794 306.813C270.65 305.728 269.734 304.425 269.102 302.98C268.469 301.535 268.132 299.978 268.111 298.401C268.09 296.823 268.385 295.258 268.978 293.796C269.572 292.335 270.452 291.007 271.566 289.892C272.681 288.776 274.008 287.896 275.469 287.302C276.929 286.708 278.494 286.412 280.07 286.433C286.549 286.359 291.8 290.956 291.8 297.364C291.8 301.441 288.963 303.337 285.533 303.263C284.474 303.337 284.22 302.903 284.368 301.367C284.485 300.107 285.692 294.875 286.115 293.042C286.143 292.888 286.137 292.73 286.097 292.578C286.056 292.427 285.983 292.286 285.882 292.167C285.78 292.047 285.654 291.952 285.511 291.887C285.368 291.822 285.213 291.79 285.057 291.793H284.983C284.761 291.828 284.556 291.934 284.398 292.094C284.24 292.254 284.137 292.46 284.104 292.682C284.065 292.977 284.044 293.274 284.04 293.572C283.642 292.856 283.063 292.257 282.361 291.835C281.658 291.413 280.858 291.183 280.039 291.168C276.175 291.242 272.83 294.737 272.681 299.842C272.681 303.263 274.502 305.233 277.636 305.233C278.559 305.211 279.465 304.968 280.275 304.524C281.085 304.079 281.778 303.447 282.294 302.68C282.295 303.008 282.365 303.333 282.498 303.632C282.632 303.932 282.827 304.2 283.07 304.42C283.313 304.64 283.599 304.808 283.91 304.911C284.221 305.015 284.55 305.052 284.877 305.021ZM277.953 303.496C275.984 303.496 274.777 302.034 274.777 299.704C274.777 295.701 277.477 293.148 280.07 293.148C282.325 293.148 283.246 294.673 283.246 296.717C283.278 299.99 281.171 303.485 277.964 303.485L277.953 303.496Z" fill="#00BFA6" fill-opacity="0.5"/>
<path opacity="0.3" d="M492.917 235.287C498.887 235.287 501.661 232.11 501.661 227.778C501.661 220.269 495.616 214.878 488.11 214.878C484.564 214.977 481.196 216.456 478.723 219C476.249 221.545 474.866 224.954 474.866 228.503C474.866 232.053 476.249 235.462 478.723 238.007C481.196 240.551 484.564 242.03 488.11 242.129C490.878 242.106 493.57 241.225 495.817 239.609C496.041 239.447 496.193 239.203 496.241 238.931C496.262 238.817 496.254 238.7 496.217 238.59C496.18 238.481 496.115 238.383 496.029 238.306C495.939 238.229 495.834 238.172 495.721 238.138C495.608 238.104 495.489 238.093 495.372 238.107C495.255 238.121 495.141 238.159 495.04 238.219C494.938 238.278 494.849 238.359 494.78 238.454C494.282 239.1 492.8 240.212 488.428 240.308C486.853 240.371 485.281 240.118 483.804 239.564C482.328 239.009 480.978 238.164 479.834 237.079C478.69 235.994 477.774 234.691 477.142 233.246C476.509 231.801 476.172 230.244 476.151 228.667C476.13 227.089 476.425 225.524 477.018 224.062C477.612 222.601 478.492 221.273 479.606 220.158C480.721 219.042 482.048 218.162 483.509 217.568C484.969 216.974 486.534 216.678 488.11 216.699C494.589 216.625 499.84 221.222 499.84 227.63C499.84 231.707 497.003 233.603 493.573 233.529C492.514 233.603 492.26 233.169 492.408 231.633C492.525 230.373 493.732 225.141 494.155 223.308C494.183 223.154 494.177 222.996 494.137 222.844C494.096 222.693 494.023 222.552 493.921 222.433C493.82 222.313 493.694 222.218 493.551 222.153C493.408 222.088 493.253 222.056 493.097 222.059H493.022C492.801 222.094 492.596 222.2 492.438 222.36C492.28 222.52 492.177 222.726 492.144 222.948C492.105 223.243 492.084 223.54 492.08 223.838C491.682 223.122 491.103 222.523 490.4 222.101C489.698 221.679 488.898 221.449 488.079 221.434C484.215 221.508 480.869 225.003 480.721 230.108C480.721 233.529 482.542 235.499 485.676 235.499C486.599 235.477 487.504 235.234 488.315 234.79C489.125 234.346 489.818 233.714 490.333 232.947C490.335 233.275 490.405 233.599 490.538 233.898C490.672 234.198 490.866 234.466 491.109 234.686C491.352 234.907 491.639 235.074 491.95 235.177C492.261 235.281 492.59 235.318 492.917 235.287ZM485.993 233.762C484.024 233.762 482.817 232.3 482.817 229.97C482.817 225.967 485.517 223.414 488.11 223.414C490.365 223.414 491.286 224.939 491.286 226.984C491.318 230.288 489.211 233.783 486.004 233.783L485.993 233.762Z" fill="#00BFA6" fill-opacity="0.5"/>
<path opacity="0.3" d="M329.051 439.41C335.021 439.41 337.795 436.232 337.795 431.9C337.795 424.391 331.75 419 324.245 419C320.698 419.099 317.331 420.578 314.857 423.122C312.384 425.667 311 429.076 311 432.626C311 436.175 312.384 439.585 314.857 442.129C317.331 444.674 320.698 446.153 324.245 446.252C327.012 446.228 329.705 445.348 331.951 443.731C332.176 443.569 332.328 443.326 332.375 443.053C332.397 442.939 332.389 442.822 332.352 442.713C332.314 442.603 332.25 442.505 332.163 442.428C332.073 442.351 331.968 442.294 331.855 442.26C331.742 442.226 331.623 442.215 331.506 442.229C331.389 442.243 331.276 442.281 331.174 442.341C331.072 442.401 330.983 442.481 330.914 442.576C330.416 443.222 328.934 444.335 324.562 444.43C322.987 444.493 321.415 444.24 319.939 443.686C318.463 443.131 317.113 442.287 315.968 441.202C314.824 440.116 313.908 438.813 313.276 437.368C312.643 435.923 312.306 434.366 312.285 432.789C312.264 431.212 312.559 429.646 313.152 428.185C313.746 426.723 314.626 425.396 315.741 424.28C316.855 423.165 318.182 422.284 319.643 421.69C321.103 421.096 322.668 420.801 324.245 420.822C330.723 420.748 335.974 425.344 335.974 431.752C335.974 435.83 333.137 437.726 329.707 437.651C328.649 437.726 328.394 437.291 328.543 435.756C328.659 434.495 329.866 429.263 330.289 427.431C330.318 427.277 330.311 427.118 330.271 426.967C330.23 426.815 330.157 426.675 330.056 426.555C329.954 426.436 329.828 426.34 329.685 426.275C329.543 426.211 329.387 426.178 329.231 426.181H329.157C328.935 426.217 328.73 426.322 328.572 426.482C328.414 426.642 328.311 426.848 328.278 427.071C328.24 427.366 328.218 427.663 328.215 427.96C327.816 427.244 327.237 426.645 326.535 426.223C325.833 425.801 325.032 425.571 324.213 425.556C320.349 425.63 317.004 429.125 316.856 434.23C316.856 437.651 318.676 439.621 321.81 439.621C322.734 439.599 323.639 439.356 324.449 438.912C325.26 438.468 325.952 437.836 326.468 437.069C326.469 437.397 326.539 437.721 326.673 438.021C326.806 438.32 327.001 438.589 327.244 438.809C327.487 439.029 327.773 439.196 328.084 439.3C328.395 439.403 328.724 439.44 329.051 439.41ZM322.127 437.884C320.158 437.884 318.952 436.423 318.952 434.093C318.952 430.089 321.651 427.537 324.245 427.537C326.5 427.537 327.421 429.062 327.421 431.106C327.452 434.41 325.346 437.906 322.138 437.906L322.127 437.884Z" fill="#00BFA6" fill-opacity="0.5"/>
<path opacity="0.3" d="M352.618 175.298C358.588 175.298 361.362 172.121 361.362 167.789C361.362 160.279 355.317 154.888 347.812 154.888C344.265 154.987 340.897 156.466 338.424 159.011C335.951 161.555 334.567 164.965 334.567 168.514C334.567 172.064 335.951 175.473 338.424 178.018C340.897 180.562 344.265 182.041 347.812 182.14C350.579 182.117 353.272 181.236 355.518 179.619C355.743 179.457 355.895 179.214 355.942 178.941C355.964 178.828 355.956 178.711 355.919 178.601C355.881 178.491 355.816 178.393 355.73 178.317C355.64 178.24 355.535 178.183 355.422 178.149C355.309 178.114 355.19 178.104 355.073 178.118C354.956 178.132 354.843 178.17 354.741 178.229C354.639 178.289 354.55 178.369 354.481 178.465C353.983 179.111 352.501 180.223 348.129 180.318C346.554 180.382 344.982 180.129 343.506 179.574C342.03 179.02 340.68 178.175 339.535 177.09C338.391 176.005 337.475 174.701 336.843 173.257C336.21 171.812 335.873 170.255 335.852 168.677C335.831 167.1 336.126 165.535 336.719 164.073C337.313 162.612 338.193 161.284 339.308 160.169C340.422 159.053 341.749 158.172 343.21 157.578C344.67 156.984 346.235 156.689 347.812 156.71C354.29 156.636 359.541 161.233 359.541 167.64C359.541 171.718 356.704 173.614 353.274 173.54C352.215 173.614 351.961 173.18 352.11 171.644C352.226 170.384 353.433 165.151 353.856 163.319C353.885 163.165 353.878 163.007 353.838 162.855C353.797 162.704 353.724 162.563 353.623 162.444C353.521 162.324 353.395 162.228 353.252 162.164C353.11 162.099 352.954 162.067 352.798 162.069H352.724C352.502 162.105 352.297 162.211 352.139 162.371C351.981 162.531 351.878 162.737 351.845 162.959C351.807 163.254 351.785 163.551 351.781 163.849C351.383 163.133 350.804 162.534 350.102 162.112C349.399 161.69 348.599 161.46 347.78 161.444C343.916 161.519 340.571 165.014 340.422 170.119C340.422 173.54 342.243 175.51 345.377 175.51C346.301 175.488 347.206 175.245 348.016 174.8C348.827 174.356 349.519 173.724 350.035 172.957C350.036 173.285 350.106 173.609 350.24 173.909C350.373 174.209 350.568 174.477 350.811 174.697C351.054 174.917 351.34 175.085 351.651 175.188C351.962 175.291 352.291 175.329 352.618 175.298ZM345.694 173.773C343.725 173.773 342.518 172.311 342.518 169.981C342.518 165.978 345.218 163.425 347.812 163.425C350.066 163.425 350.987 164.95 350.987 166.994C351.009 170.267 348.902 173.762 345.694 173.762V173.773Z" fill="#00BFA6" fill-opacity="0.5"/>
<path opacity="0.5" d="M425.091 129.31C435.751 129.31 440.695 123.58 440.695 115.912C440.695 102.514 429.897 92.8757 416.505 92.8757C410.251 93.1677 404.35 95.8589 400.027 100.39C395.704 104.922 393.292 110.945 393.292 117.209C393.292 123.474 395.704 129.497 400.027 134.028C404.35 138.56 410.251 141.251 416.505 141.543C421.448 141.498 426.256 139.922 430.267 137.031C430.467 136.89 430.636 136.711 430.765 136.503C430.894 136.296 430.98 136.065 431.019 135.824C431.06 135.621 431.047 135.41 430.982 135.213C430.917 135.017 430.802 134.84 430.648 134.701C430.488 134.565 430.302 134.463 430.101 134.402C429.9 134.341 429.688 134.322 429.479 134.347C429.27 134.372 429.069 134.44 428.888 134.546C428.706 134.653 428.549 134.796 428.425 134.966C427.547 136.131 424.9 138.143 417.077 138.281C414.311 138.318 411.564 137.811 408.993 136.786C406.423 135.761 404.08 134.24 402.097 132.31C400.114 130.379 398.531 128.077 397.438 125.534C396.344 122.991 395.762 120.258 395.725 117.49C395.687 114.722 396.195 111.974 397.219 109.403C398.243 106.831 399.763 104.486 401.693 102.503C403.622 100.519 405.924 98.935 408.465 97.8411C411.007 96.7472 413.739 96.1648 416.505 96.1273C428.076 96.0002 437.445 104.198 437.445 115.647C437.445 122.934 432.374 126.313 426.255 126.239C424.307 126.366 423.916 125.592 424.138 122.86C424.35 120.615 426.499 111.262 427.25 108.032C427.316 107.761 427.318 107.478 427.256 107.206C427.194 106.933 427.07 106.679 426.894 106.463C426.717 106.247 426.493 106.074 426.24 105.958C425.986 105.843 425.708 105.788 425.429 105.797H425.302C424.9 105.844 424.526 106.026 424.24 106.312C423.954 106.599 423.772 106.973 423.725 107.375C423.659 107.902 423.624 108.433 423.619 108.964C422.907 107.684 421.871 106.614 420.615 105.861C419.359 105.109 417.927 104.699 416.463 104.675C409.571 104.802 403.59 111.029 403.325 120.159C403.325 126.27 406.575 129.787 412.165 129.787C413.815 129.749 415.432 129.316 416.88 128.524C418.328 127.731 419.564 126.602 420.486 125.232C420.486 125.232 420.412 129.045 425.091 129.31ZM412.737 126.577C409.222 126.577 407.147 123.972 407.147 119.81C407.147 112.65 411.964 108.096 416.516 108.096C420.549 108.096 422.105 110.828 422.243 114.45C422.232 120.329 418.464 126.577 412.737 126.577V126.577Z" fill="#00BFA6" fill-opacity="0.5"/>
<g opacity="0.5">
<path opacity="0.5" d="M605.395 384.703C638.381 384.703 653.668 366.994 653.668 343.248C653.668 301.794 620.279 272 578.834 272C537.389 272 504 305.808 504 347.273C504 388.738 537.389 422.546 578.834 422.546C594.13 422.413 609.009 417.539 621.422 408.597C622.038 408.161 622.561 407.607 622.961 406.967C623.361 406.327 623.629 405.614 623.751 404.869C623.873 404.241 623.83 403.592 623.628 402.986C623.426 402.379 623.071 401.835 622.597 401.405C622.102 400.985 621.526 400.671 620.904 400.483C620.283 400.296 619.629 400.238 618.984 400.315C618.339 400.391 617.717 400.6 617.157 400.928C616.596 401.256 616.109 401.696 615.727 402.221C612.995 405.811 604.812 411.912 580.623 412.463C544.016 413.289 513.39 384.131 513.274 347.506C513.157 311.177 542.978 282.485 578.855 282.083C614.732 281.681 643.632 307.036 643.632 342.454C643.632 364.992 627.943 375.456 609.036 375.054C603.002 375.456 601.795 373.042 602.6 364.59C603.256 357.652 609.894 328.717 612.244 318.591C612.447 317.752 612.453 316.877 612.262 316.035C612.071 315.192 611.687 314.406 611.142 313.736C610.597 313.066 609.904 312.532 609.118 312.175C608.333 311.817 607.475 311.646 606.612 311.675H606.21C604.967 311.826 603.811 312.391 602.928 313.278C602.045 314.166 601.485 315.325 601.34 316.568C601.133 318.195 601.02 319.833 601.001 321.472C597.381 314.228 588.933 308.593 578.876 308.191C557.556 308.593 539.051 327.912 538.246 356.085C538.246 375.001 548.303 385.868 565.601 385.868C577.669 385.868 586.519 378.623 591.347 371.781C591.304 371.824 590.902 383.898 605.395 384.703ZM567.178 376.23C556.317 376.23 549.881 368.18 549.881 355.301C549.881 333.165 564.765 319.079 578.844 319.079C591.315 319.079 596.142 327.552 596.544 338.8C596.502 356.922 584.857 376.251 567.168 376.251L567.178 376.23Z" fill="url(#paint5_linear)"/>
</g>
<path d="M604.795 382.72C636.617 382.72 651.374 365.637 651.374 342.727C651.374 302.734 619.161 274 579.187 274C539.214 274 507 306.611 507 346.604C507 386.597 539.214 419.208 579.187 419.208C593.939 419.079 608.289 414.38 620.262 405.757C620.856 405.336 621.361 404.8 621.746 404.182C622.131 403.564 622.39 402.875 622.506 402.156C622.625 401.549 622.585 400.922 622.391 400.336C622.196 399.749 621.853 399.223 621.394 398.809C620.917 398.403 620.362 398.099 619.762 397.918C619.163 397.737 618.532 397.681 617.91 397.754C617.288 397.828 616.688 398.029 616.147 398.346C615.606 398.662 615.137 399.086 614.767 399.592C612.132 403.056 604.234 408.945 580.892 409.474C545.576 410.279 516.041 382.148 515.924 346.816C515.808 311.769 544.57 284.094 579.187 283.702C613.804 283.31 641.646 307.776 641.646 341.954C641.646 363.698 626.508 373.792 608.268 373.4C602.445 373.792 601.281 371.462 602.053 363.306C602.689 356.613 609.083 328.704 611.348 318.939C611.543 318.13 611.548 317.287 611.363 316.476C611.178 315.664 610.809 314.907 610.283 314.262C609.757 313.617 609.09 313.102 608.332 312.758C607.575 312.414 606.749 312.249 605.917 312.277H605.526C604.326 312.422 603.209 312.966 602.356 313.823C601.504 314.68 600.964 315.8 600.825 317.001C600.625 318.571 600.515 320.152 600.497 321.735C597.004 314.745 588.852 309.312 579.155 308.92C558.586 309.312 540.738 327.984 539.987 355.13C539.987 373.379 549.683 383.864 566.378 383.864C578.023 383.864 586.555 376.874 591.213 370.276C591.213 370.297 590.821 381.937 604.795 382.72ZM567.924 374.565C557.443 374.565 551.24 366.802 551.24 354.378C551.24 333.026 565.595 319.426 579.187 319.426C591.213 319.426 595.871 327.582 596.263 338.491C596.252 355.924 584.999 374.565 567.924 374.565V374.565Z" fill="#00BFA6" fill-opacity="0.5"/>
<path opacity="0.5" d="M261.799 456.434C272.459 456.434 277.403 450.704 277.403 443.036C277.403 429.638 266.605 420 253.213 420C246.959 420.292 241.058 422.983 236.735 427.515C232.412 432.046 230 438.07 230 444.334C230 450.598 232.412 456.621 236.735 461.153C241.058 465.684 246.959 468.375 253.213 468.667C258.157 468.623 262.964 467.046 266.975 464.155C267.175 464.014 267.344 463.835 267.473 463.628C267.602 463.42 267.688 463.189 267.727 462.948C267.768 462.745 267.755 462.534 267.69 462.338C267.625 462.141 267.51 461.964 267.356 461.825C267.196 461.689 267.01 461.587 266.809 461.526C266.608 461.465 266.396 461.446 266.187 461.471C265.978 461.496 265.777 461.564 265.595 461.67C265.414 461.777 265.257 461.92 265.133 462.09C264.255 463.255 261.608 465.267 253.785 465.405C248.198 465.481 242.809 463.333 238.805 459.434C234.801 455.535 232.508 450.204 232.433 444.614C232.357 439.024 234.504 433.633 238.401 429.627C242.298 425.621 247.626 423.327 253.213 423.252C264.784 423.124 274.153 431.322 274.153 442.771C274.153 450.058 269.082 453.437 262.963 453.363C261.015 453.49 260.624 452.717 260.846 449.984C261.058 447.739 263.207 438.387 263.958 435.156C264.024 434.885 264.025 434.602 263.964 434.33C263.902 434.058 263.778 433.804 263.602 433.587C263.425 433.371 263.202 433.198 262.948 433.083C262.694 432.967 262.416 432.912 262.137 432.921H262.01C261.608 432.969 261.234 433.15 260.948 433.437C260.662 433.723 260.48 434.097 260.433 434.5C260.367 435.027 260.332 435.557 260.327 436.088C259.615 434.808 258.579 433.739 257.323 432.986C256.067 432.233 254.635 431.823 253.171 431.799C246.279 431.926 240.298 438.154 240.033 447.283C240.033 453.395 243.283 456.911 248.873 456.911C250.523 456.873 252.14 456.44 253.588 455.648C255.036 454.855 256.272 453.727 257.194 452.357C257.194 452.357 257.077 456.18 261.799 456.434ZM249.445 453.702C245.93 453.702 243.855 451.096 243.855 446.934C243.855 439.774 248.672 435.22 253.224 435.22C257.257 435.22 258.813 437.952 258.951 441.575C258.898 447.463 255.119 453.702 249.402 453.702H249.445Z" fill="#00BFA6" fill-opacity="0.5"/>
<path opacity="0.5" d="M303.799 524.434C314.459 524.434 319.403 518.704 319.403 511.036C319.403 497.638 308.605 488 295.213 488C288.959 488.292 283.058 490.983 278.735 495.515C274.412 500.046 272 506.07 272 512.334C272 518.598 274.412 524.621 278.735 529.153C283.058 533.684 288.959 536.375 295.213 536.667C300.157 536.623 304.964 535.046 308.975 532.155C309.175 532.014 309.344 531.835 309.473 531.628C309.602 531.42 309.688 531.189 309.727 530.948C309.768 530.745 309.755 530.534 309.69 530.338C309.625 530.141 309.51 529.964 309.356 529.825C309.196 529.689 309.01 529.587 308.809 529.526C308.608 529.465 308.396 529.446 308.187 529.471C307.978 529.496 307.777 529.564 307.596 529.67C307.414 529.777 307.257 529.92 307.133 530.09C306.255 531.255 303.608 533.267 295.785 533.405C293.019 533.443 290.272 532.935 287.701 531.91C285.131 530.886 282.788 529.365 280.805 527.434C276.801 523.535 274.508 518.204 274.433 512.614C274.357 507.024 276.504 501.633 280.401 497.627C284.298 493.621 289.626 491.327 295.213 491.252C306.784 491.124 316.153 499.322 316.153 510.771C316.153 518.058 311.082 521.437 304.963 521.363C303.015 521.49 302.624 520.717 302.846 517.984C303.058 515.739 305.207 506.387 305.958 503.156C306.024 502.885 306.026 502.602 305.964 502.33C305.902 502.058 305.778 501.804 305.602 501.587C305.425 501.371 305.201 501.198 304.948 501.083C304.694 500.967 304.416 500.912 304.137 500.921H304.01C303.608 500.969 303.234 501.15 302.948 501.436C302.662 501.723 302.48 502.097 302.433 502.5C302.367 503.027 302.332 503.557 302.327 504.088C301.615 502.808 300.579 501.739 299.323 500.986C298.067 500.233 296.635 499.824 295.171 499.799C288.279 499.926 282.298 506.154 282.033 515.283C282.033 521.395 285.283 524.911 290.873 524.911C292.523 524.873 294.14 524.44 295.588 523.648C297.036 522.855 298.272 521.727 299.194 520.357C299.194 520.357 299.12 524.169 303.799 524.434ZM291.445 521.702C287.93 521.702 285.855 519.096 285.855 514.934C285.855 507.774 290.672 503.22 295.224 503.22C299.257 503.22 300.813 505.952 300.951 509.575C300.94 515.453 297.172 521.702 291.445 521.702Z" fill="#00BFA6" fill-opacity="0.5"/>
<path opacity="0.3" d="M131.051 487.41C137.021 487.41 139.795 484.232 139.795 479.9C139.795 472.391 133.75 467 126.245 467C122.698 467.099 119.331 468.578 116.857 471.122C114.384 473.667 113 477.076 113 480.626C113 484.175 114.384 487.585 116.857 490.129C119.331 492.674 122.698 494.153 126.245 494.252C129.012 494.228 131.705 493.348 133.951 491.731C134.176 491.569 134.328 491.326 134.375 491.053C134.397 490.939 134.389 490.822 134.352 490.713C134.315 490.603 134.25 490.505 134.163 490.428C134.073 490.351 133.968 490.294 133.855 490.26C133.742 490.226 133.623 490.215 133.506 490.229C133.389 490.243 133.276 490.281 133.174 490.341C133.072 490.401 132.984 490.481 132.914 490.576C132.416 491.222 130.934 492.335 126.562 492.43C124.987 492.493 123.415 492.24 121.939 491.686C120.463 491.131 119.113 490.287 117.968 489.202C116.824 488.117 115.908 486.813 115.276 485.368C114.643 483.923 114.306 482.366 114.285 480.789C114.264 479.212 114.559 477.646 115.152 476.185C115.746 474.723 116.626 473.396 117.741 472.28C118.855 471.165 120.182 470.284 121.643 469.69C123.103 469.096 124.668 468.801 126.245 468.822C132.723 468.748 137.974 473.344 137.974 479.752C137.974 483.83 135.137 485.726 131.707 485.651C130.649 485.726 130.394 485.291 130.543 483.756C130.659 482.495 131.866 477.263 132.289 475.431C132.318 475.277 132.311 475.118 132.271 474.967C132.23 474.815 132.157 474.675 132.056 474.555C131.954 474.436 131.828 474.34 131.685 474.275C131.543 474.211 131.387 474.178 131.231 474.181H131.157C130.935 474.217 130.73 474.322 130.572 474.482C130.414 474.642 130.311 474.848 130.278 475.071C130.24 475.366 130.218 475.663 130.215 475.96C129.816 475.244 129.237 474.645 128.535 474.223C127.833 473.801 127.032 473.571 126.213 473.556C122.349 473.63 119.004 477.125 118.856 482.23C118.856 485.651 120.676 487.621 123.81 487.621C124.734 487.599 125.639 487.356 126.449 486.912C127.26 486.468 127.952 485.836 128.468 485.069C128.469 485.397 128.539 485.721 128.673 486.021C128.806 486.32 129.001 486.589 129.244 486.809C129.487 487.029 129.773 487.196 130.084 487.3C130.395 487.403 130.724 487.44 131.051 487.41ZM124.127 485.884C122.158 485.884 120.952 484.423 120.952 482.093C120.952 478.089 123.651 475.537 126.245 475.537C128.5 475.537 129.421 477.062 129.421 479.106C129.442 482.379 127.335 485.874 124.127 485.874V485.884Z" fill="#00BFA6" fill-opacity="0.5"/>
<path d="M208.973 562.442C234.57 562.442 246.427 548.674 246.427 530.276C246.427 498.11 220.523 475 188.372 475C172.891 475 158.044 481.153 147.097 492.105C136.15 503.057 130 517.912 130 533.401C130 548.89 136.15 563.744 147.097 574.696C158.044 585.649 172.891 591.802 188.372 591.802C200.238 591.701 211.781 587.923 221.412 580.988C221.891 580.65 222.297 580.221 222.608 579.725C222.919 579.228 223.128 578.675 223.222 578.096C223.317 577.608 223.284 577.104 223.126 576.633C222.968 576.161 222.691 575.739 222.322 575.406C221.94 575.086 221.496 574.846 221.017 574.704C220.539 574.561 220.037 574.518 219.541 574.576C219.045 574.635 218.567 574.794 218.135 575.044C217.703 575.294 217.327 575.63 217.029 576.031C214.912 578.817 208.56 583.551 189.791 583.975C161.388 584.621 137.633 561.997 137.537 533.57C137.442 505.387 160.584 483.124 188.415 482.816C216.246 482.509 238.667 502.177 238.667 529.662C238.667 547.148 226.493 555.272 211.821 554.954C207.142 555.261 206.199 553.397 206.824 546.831C207.332 541.44 212.477 518.997 214.308 511.148C214.466 510.497 214.47 509.818 214.322 509.165C214.173 508.512 213.875 507.902 213.452 507.383C213.029 506.864 212.491 506.45 211.881 506.174C211.271 505.897 210.605 505.765 209.936 505.789H209.619C208.654 505.906 207.756 506.345 207.07 507.035C206.385 507.725 205.951 508.625 205.839 509.591C205.678 510.856 205.589 512.129 205.575 513.404C202.769 507.78 196.206 503.406 188.404 503.099C171.858 503.406 157.503 518.403 156.878 540.264C156.878 554.944 164.68 563.374 178.104 563.374C187.472 563.374 194.332 557.75 198.08 552.444C198.048 552.433 197.741 561.807 208.973 562.442ZM179.332 555.886C170.863 555.886 165.908 549.637 165.908 539.65C165.908 522.471 177.458 511.54 188.383 511.54C198.059 511.54 201.806 518.096 202.145 526.845C202.113 540.878 193.02 555.876 179.321 555.876L179.332 555.886Z" fill="#00BFA6" fill-opacity="0.5"/>
<path d="M46.0764 484.008C61.0029 484.008 67.9263 475.99 67.9263 465.24C67.9263 446.472 52.8092 433 34.0505 433C25.0198 433 16.3589 436.589 9.97321 442.978C3.5875 449.367 0 458.032 0 467.067C0 476.102 3.5875 484.767 9.97321 491.156C16.3589 497.545 25.0198 501.134 34.0505 501.134C40.9787 501.062 47.714 498.842 53.3279 494.779C53.6072 494.583 53.8447 494.333 54.0265 494.044C54.2082 493.755 54.3306 493.432 54.3866 493.095C54.4419 492.812 54.4233 492.518 54.3324 492.244C54.2416 491.969 54.0816 491.723 53.8678 491.528C53.645 491.334 53.3841 491.19 53.102 491.103C52.8199 491.016 52.5228 490.989 52.2297 491.024C51.9366 491.059 51.6541 491.155 51.4002 491.305C51.1463 491.456 50.9267 491.658 50.7555 491.899C49.5169 493.53 45.8117 496.283 34.8762 496.538C30.9351 496.649 27.0115 495.973 23.3349 494.548C19.6583 493.124 16.3027 490.98 13.4645 488.242C10.6263 485.504 8.36265 482.227 6.80594 478.603C5.24924 474.979 4.43081 471.08 4.39859 467.136C4.34566 450.698 17.8431 437.713 34.0399 437.48C50.2368 437.247 63.4166 448.813 63.4166 464.88C63.4166 475.08 56.3133 479.814 47.7597 479.634C45.0284 479.814 44.4779 478.723 44.8484 474.899C45.1449 471.722 48.1513 458.663 49.21 454.087C49.3115 453.704 49.3215 453.302 49.2393 452.914C49.1571 452.526 48.9849 452.163 48.7367 451.854C48.4884 451.545 48.171 451.298 47.8101 451.134C47.4491 450.97 47.0547 450.893 46.6586 450.91H46.4787C45.9164 450.978 45.3933 451.233 44.9938 451.635C44.5943 452.036 44.3417 452.561 44.2768 453.124C44.1809 453.861 44.1279 454.604 44.118 455.348C43.1262 453.551 41.6777 452.049 39.9192 450.993C38.1606 449.936 36.1544 449.363 34.1034 449.332C24.4488 449.512 16.1069 458.26 15.7152 471.012C15.7152 479.57 20.2673 484.495 28.1011 484.495C30.4084 484.444 32.6699 483.84 34.696 482.735C36.7221 481.629 38.4538 480.054 39.7459 478.14C39.7459 478.14 39.5236 483.637 46.0764 484.008ZM28.7786 480.185C23.8666 480.185 20.9448 476.541 20.9448 470.716C20.9448 460.696 27.6776 454.32 34.0505 454.32C39.693 454.32 41.8843 458.144 42.0643 463.249C42.0749 471.436 36.7924 480.174 28.7786 480.174V480.185Z" fill="#00BFA6" fill-opacity="0.5"/>
<defs>
<linearGradient id="paint0_linear" x1="87679" y1="50328.4" x2="87679" y2="36226.1" gradientUnits="userSpaceOnUse">
<stop stop-color="#808080" stop-opacity="0.25"/>
<stop offset="0.54" stop-color="#808080" stop-opacity="0.12"/>
<stop offset="1" stop-color="#808080" stop-opacity="0.1"/>
</linearGradient>
<linearGradient id="paint1_linear" x1="59540.9" y1="33654.3" x2="59540.9" y2="28976.2" gradientUnits="userSpaceOnUse">
<stop stop-color="#808080" stop-opacity="0.25"/>
<stop offset="0.54" stop-color="#808080" stop-opacity="0.12"/>
<stop offset="1" stop-color="#808080" stop-opacity="0.1"/>
</linearGradient>
<linearGradient id="paint2_linear" x1="55380.9" y1="37081.4" x2="55380.9" y2="32015.4" gradientUnits="userSpaceOnUse">
<stop stop-color="#808080" stop-opacity="0.25"/>
<stop offset="0.54" stop-color="#808080" stop-opacity="0.12"/>
<stop offset="1" stop-color="#808080" stop-opacity="0.1"/>
</linearGradient>
<linearGradient id="paint3_linear" x1="55380.9" y1="45028" x2="55380.9" y2="39962" gradientUnits="userSpaceOnUse">
<stop stop-color="#808080" stop-opacity="0.25"/>
<stop offset="0.54" stop-color="#808080" stop-opacity="0.12"/>
<stop offset="1" stop-color="#808080" stop-opacity="0.1"/>
</linearGradient>
<linearGradient id="paint4_linear" x1="67097.7" y1="49741.9" x2="67097.7" y2="44596.5" gradientUnits="userSpaceOnUse">
<stop stop-color="#808080" stop-opacity="0.25"/>
<stop offset="0.54" stop-color="#808080" stop-opacity="0.12"/>
<stop offset="1" stop-color="#808080" stop-opacity="0.1"/>
</linearGradient>
<linearGradient id="paint5_linear" x1="150517" y1="90206.5" x2="150517" y2="68809.5" gradientUnits="userSpaceOnUse">
<stop stop-color="#808080" stop-opacity="0.25"/>
<stop offset="0.54" stop-color="#808080" stop-opacity="0.12"/>
<stop offset="1" stop-color="#808080" stop-opacity="0.1"/>
</linearGradient>
</defs>
</svg>
