<svg width="483" height="321" viewBox="0 0 483 321" fill="none" xmlns="http://www.w3.org/2000/svg">
<path opacity="0.1" d="M149.142 115.372C165.532 105.393 191.255 103.367 214.667 104.153C288.215 106.648 354.602 130.912 412.025 158.356C432.786 168.291 453.281 178.997 466.776 192.679C494.245 220.53 486.1 259.116 447.899 282.06C434.905 289.866 419.153 295.851 402.976 301.158C374.229 310.591 343.189 318.161 310.551 320.318C287.278 321.854 263.706 320.606 240.576 318.46C175.924 312.472 112.464 299.223 59.2781 276.556C35.9511 266.614 13.9656 254.256 4.34633 238.177C-5.27298 222.098 0.886151 201.715 24.7082 192.195C34.5564 188.255 46.337 186.48 57.8674 184.81C74.8436 182.351 92.0913 179.928 107.407 174.93C123.233 169.772 141.966 159.789 138.814 148.374C135.471 136.104 132.772 125.339 149.142 115.372Z" fill="#5EAAA8"/>
<g clip-path="url(#clip0)">
<path d="M235.572 0.424468L392.276 79.2333C393.579 79.8886 394.66 80.9139 395.383 82.1807C396.106 83.4475 396.439 84.8997 396.341 86.3551L387.236 221.256C387.195 221.861 387.005 222.446 386.683 222.96C386.361 223.474 385.917 223.9 385.39 224.2C384.863 224.5 384.27 224.665 383.664 224.68C383.058 224.695 382.458 224.56 381.917 224.286L221.64 142.464L229.868 3.713C229.907 3.06124 230.107 2.42928 230.45 1.87389C230.793 1.3185 231.269 0.857072 231.834 0.531043C232.4 0.205014 233.038 0.024597 233.69 0.00599504C234.342 -0.0126069 234.989 0.131189 235.572 0.424468V0.424468Z" fill="#D0CDE1"/>
<path d="M237.376 3.17343L390.23 80.0465C391.501 80.6857 392.555 81.6858 393.26 82.9215C393.966 84.1572 394.291 85.5737 394.195 86.9934L385.314 218.581C385.274 219.171 385.089 219.742 384.775 220.243C384.461 220.744 384.027 221.16 383.513 221.452C382.999 221.745 382.421 221.906 381.83 221.921C381.239 221.935 380.653 221.803 380.125 221.536L223.785 141.724L231.812 6.38119C231.849 5.74544 232.044 5.129 232.379 4.58725C232.714 4.0455 233.178 3.59541 233.73 3.27739C234.281 2.95936 234.903 2.78338 235.54 2.76523C236.176 2.74709 236.807 2.88735 237.376 3.17343V3.17343Z" fill="#3F3D56"/>
<path d="M244.075 13.3839L382.633 83.0671C383.785 83.6465 384.74 84.553 385.38 85.6732C386.019 86.7933 386.314 88.0773 386.227 89.3642L378.177 208.644C378.14 209.179 377.972 209.697 377.688 210.151C377.403 210.605 377.01 210.982 376.544 211.247C376.078 211.513 375.554 211.659 375.018 211.672C374.482 211.685 373.951 211.565 373.473 211.324L231.755 138.976L239.031 16.2916C239.065 15.7153 239.242 15.1566 239.545 14.6655C239.849 14.1744 240.269 13.7664 240.769 13.4781C241.269 13.1898 241.833 13.0303 242.41 13.0139C242.987 12.9974 243.559 13.1246 244.075 13.3839V13.3839Z" fill="white"/>
<path d="M101.104 208.843L258.007 287.886C259.467 288.621 261.08 289.002 262.714 289C264.348 288.998 265.96 288.612 267.418 287.874L383.491 228.933C384.852 227.572 384.662 225.554 384.227 224.04C384.015 223.306 383.728 222.597 383.368 221.924L367.551 213.602L234.563 147.229L226.618 143.009C224.514 141.895 222.172 141.308 219.792 141.298C217.412 141.289 215.065 141.857 212.953 142.954L101.055 201.098C100.343 201.466 99.7464 202.024 99.3318 202.71C98.9173 203.396 98.7006 204.184 98.7057 204.985C98.7107 205.787 98.9374 206.572 99.3606 207.253C99.7838 207.933 100.387 208.484 101.104 208.843V208.843Z" fill="#D0CDE1"/>
<path opacity="0.1" d="M101.104 208.843L258.007 287.886C259.468 288.621 261.08 289.002 262.714 289C264.348 288.998 265.96 288.612 267.418 287.874L383.491 228.933C384.852 227.572 384.662 225.554 384.227 224.04L268.501 284.21C267.088 284.944 265.523 285.334 263.931 285.348C262.34 285.361 260.768 284.998 259.343 284.288L98.7618 204.262C98.6108 205.176 98.7568 206.114 99.1784 206.938C99.5999 207.763 100.275 208.431 101.104 208.843V208.843Z" fill="black"/>
<path opacity="0.1" d="M250.03 232.526L199.217 206.84C198.194 206.323 197.061 206.06 195.915 206.073C194.769 206.086 193.643 206.375 192.632 206.915L163.155 222.668C162.814 222.85 162.53 223.122 162.334 223.455C162.137 223.787 162.035 224.167 162.04 224.554C162.044 224.94 162.155 225.317 162.359 225.645C162.564 225.973 162.854 226.238 163.199 226.412L215.008 252.546C215.869 252.98 216.823 253.196 217.786 253.173C218.749 253.151 219.692 252.892 220.531 252.419L250.126 235.741C250.415 235.578 250.653 235.34 250.816 235.051C250.979 234.763 251.06 234.436 251.05 234.104C251.04 233.773 250.94 233.451 250.76 233.173C250.58 232.895 250.328 232.671 250.03 232.526V232.526Z" fill="black"/>
<path opacity="0.1" d="M369.704 228.23L315.024 257.288C314.394 257.622 313.694 257.8 312.982 257.808C312.269 257.815 311.566 257.651 310.93 257.329L156.436 179.177C156 178.956 155.635 178.619 155.38 178.203C155.126 177.787 154.992 177.308 154.994 176.82C154.996 176.332 155.134 175.854 155.392 175.44C155.65 175.026 156.019 174.692 156.456 174.476L209.852 148.039C210.657 147.641 211.543 147.435 212.441 147.438C213.339 147.442 214.224 147.654 215.026 148.058L369.679 226.004C369.885 226.107 370.058 226.265 370.179 226.46C370.301 226.655 370.366 226.88 370.369 227.11C370.371 227.339 370.31 227.565 370.193 227.763C370.076 227.961 369.906 228.122 369.704 228.23Z" fill="black"/>
<path d="M282.471 83.3162L282.197 83.8647L332.469 109.008L332.743 108.46L282.471 83.3162Z" fill="#AFD6AB"/>
<path d="M282.466 90.6901L282.188 91.2357L332.473 116.966L332.752 116.42L282.466 90.6901Z" fill="#AFD6AB"/>
<path d="M291.671 104.778L291.392 105.324L320.203 120.05L320.482 119.504L291.671 104.778Z" fill="#AFD6AB"/>
<path d="M235.673 46.904L231.233 57.4682L268.713 77.1478L281.34 40.1846" fill="#F2F2F2"/>
<path d="M267.849 70.6662L284.406 31.6947L246.351 12.9626L230.369 50.9867L267.849 70.6662Z" fill="#5EAAA8"/>
<path d="M245.452 27.8655L245.173 28.4117L273.983 43.1375L274.262 42.5912L245.452 27.8655Z" fill="white"/>
<path d="M243.292 33.0506L243.013 33.5968L271.823 48.3226L272.102 47.7764L243.292 33.0506Z" fill="white"/>
</g>
<defs>
<clipPath id="clip0">
<rect width="323" height="289" fill="white" transform="translate(74)"/>
</clipPath>
</defs>
</svg>
