<svg width="1239" height="678" viewBox="0 0 1239 678" fill="none" xmlns="http://www.w3.org/2000/svg">
<path opacity="0.24" d="M336.145 32.6885C324.801 30.7976 313.332 29.4406 301.796 28.6241C245.999 25.0265 190.369 37.0782 144.15 62.7767C66.7371 106.056 33.1969 185.651 13.8033 257.306C-8.08685 337.748 -5.77533 424.061 34.0522 500.683C88.5117 605.474 221.91 686.067 361.294 677.355C421.972 673.591 489.5 668.76 540.229 648.471C1044.3 446.866 679.522 654.266 749.307 657.879C854.539 663.27 959.905 649.194 1057.5 616.708C1114.97 597.534 1171.34 570.475 1204.93 527.949C1255.16 464.291 1243.6 380.029 1210.46 309.297C1192.86 271.663 1169.91 235.798 1148.04 199.67C1126.18 163.541 1111.71 124.854 1091.37 88.6499C1057.29 28.022 963.33 -7.76774 884.415 1.43372C814.861 9.52497 755.132 46.4813 686.687 59.3897C654.187 65.5052 620.509 66.0509 587.153 65.4111C530.567 64.3385 473.889 59.9354 418.805 49.3415C391.182 44.0916 363.906 37.1858 336.145 32.6885Z" fill="#68E1FD"/>
</svg>
