<svg width="27" height="28" viewBox="0 0 27 28" fill="none" xmlns="http://www.w3.org/2000/svg">
<path id="s-mail" opacity="0.3" d="M18.0509 20.4096C24.0215 20.4096 26.7951 17.2321 26.7951 12.9003C26.7951 5.391 20.7503 0 13.2447 0C9.6984 0.098929 6.33057 1.57791 3.8572 4.12245C1.38383 6.66699 0 10.0764 0 13.6258C0 17.1752 1.38383 20.5846 3.8572 23.1292C6.33057 25.6737 9.6984 27.1527 13.2447 27.2516C16.0122 27.2283 18.7046 26.3477 20.9515 24.7309C21.1757 24.5689 21.3277 24.3256 21.3749 24.053C21.3968 23.9394 21.3888 23.8221 21.3517 23.7125C21.3146 23.603 21.2496 23.505 21.1632 23.4281C21.0733 23.3515 20.9685 23.2943 20.8554 23.2601C20.7424 23.2259 20.6235 23.2154 20.5062 23.2294C20.3889 23.2433 20.2758 23.2813 20.1739 23.341C20.072 23.4007 19.9835 23.4809 19.914 23.5764C19.4165 24.2225 17.9344 25.3346 13.5623 25.4299C11.987 25.4933 10.4148 25.2403 8.93875 24.6858C7.46271 24.1314 6.11272 23.2867 4.96835 22.2016C3.82398 21.1165 2.90844 19.8131 2.27586 18.3682C1.64328 16.9233 1.30643 15.3663 1.28522 13.789C1.264 12.2117 1.55884 10.6462 2.15232 9.18477C2.74581 7.72337 3.62595 6.39573 4.74072 5.28023C5.85549 4.16474 7.1823 3.284 8.64289 2.68999C10.1035 2.09598 11.6682 1.80074 13.2447 1.82172C19.7234 1.74758 24.9742 6.34424 24.9742 12.752C24.9742 16.8297 22.1371 18.7256 18.7072 18.6514C17.6486 18.7256 17.3945 18.2913 17.5427 16.7556C17.6591 15.4952 18.866 10.263 19.2894 8.43072C19.3176 8.27657 19.3113 8.11811 19.2709 7.9667C19.2305 7.8153 19.157 7.67476 19.0557 7.55521C18.9545 7.43565 18.8279 7.34004 18.6853 7.27533C18.5426 7.21061 18.3874 7.17838 18.2308 7.18095H18.1567C17.9348 7.21672 17.73 7.32221 17.5721 7.48216C17.4141 7.64211 17.3111 7.84821 17.278 8.07062C17.2397 8.3657 17.2185 8.66275 17.2145 8.96029C16.8162 8.24418 16.237 7.64524 15.5348 7.22332C14.8325 6.80141 14.0319 6.57132 13.213 6.55606C9.349 6.6302 6.00376 10.1254 5.85555 15.2304C5.85555 18.6514 7.67637 20.6214 10.8099 20.6214C11.7337 20.5994 12.6387 20.3562 13.4492 19.9121C14.2596 19.4679 14.9519 18.8359 15.4678 18.0689C15.4693 18.3969 15.5391 18.721 15.6726 19.0206C15.8062 19.3201 16.0008 19.5885 16.2438 19.8087C16.4868 20.029 16.7729 20.1961 17.0841 20.2996C17.3952 20.403 17.7245 20.4404 18.0509 20.4096ZM11.1275 18.8844C9.15842 18.8844 7.95159 17.4228 7.95159 15.0927C7.95159 11.0892 10.6511 8.53664 13.2447 8.53664C15.4995 8.53664 16.4205 10.0618 16.4205 12.1059C16.4417 15.3787 14.3351 18.8738 11.1275 18.8738V18.8844Z" fill="#00BFA6" fill-opacity="0.5"/>
</svg>
