<svg width="444" height="234" viewBox="0 0 444 234" fill="none" xmlns="http://www.w3.org/2000/svg">
<path d="M443.902 0.360107H0.270996V233.299H443.902V0.360107Z" fill="#E6E6E6"/>
<path d="M443.631 0H0V27.004H443.631V0Z" fill="#5EAAA8"/>
<path d="M433.23 35.2985H10.2302V220.298H433.23V35.2985Z" fill="white"/>
<path d="M42.039 17.9001C44.5061 17.9001 46.506 15.9001 46.506 13.4331C46.506 10.966 44.5061 8.96606 42.039 8.96606C39.5719 8.96606 37.572 10.966 37.572 13.4331C37.572 15.9001 39.5719 17.9001 42.039 17.9001Z" fill="white"/>
<path d="M58.9951 17.9001C61.4621 17.9001 63.4621 15.9001 63.4621 13.4331C63.4621 10.966 61.4621 8.96606 58.9951 8.96606C56.528 8.96606 54.5281 10.966 54.5281 13.4331C54.5281 15.9001 56.528 17.9001 58.9951 17.9001Z" fill="white"/>
<path d="M25.039 17.9001C27.5061 17.9001 29.506 15.9001 29.506 13.4331C29.506 10.966 27.5061 8.96606 25.039 8.96606C22.5719 8.96606 20.572 10.966 20.572 13.4331C20.572 15.9001 22.5719 17.9001 25.039 17.9001Z" fill="white"/>
<path d="M384.116 82.934H59.7854V97.389H384.116V82.934Z" fill="#E6E6E6"/>
<path d="M175.424 119.071H59.7854V133.526H175.424V119.071Z" fill="#E6E6E6"/>
<path d="M290.16 155.208H59.7854V169.663H290.16V155.208Z" fill="#E6E6E6"/>
</svg>
