<svg width="375" height="197" viewBox="0 0 375 197" fill="none" xmlns="http://www.w3.org/2000/svg">
<path d="M374.23 0.303467H0.228516V196.682H374.23V0.303467Z" fill="#F2F2F2"/>
<path d="M374.002 0H0V22.7656H374.002V0Z" fill="#E6E6E6"/>
<path d="M367.23 30.6815H8.1145V186.682H367.23V30.6815Z" fill="white"/>
<path d="M35.4409 15.0905C37.5208 15.0905 39.2068 13.4045 39.2068 11.3246C39.2068 9.24477 37.5208 7.55872 35.4409 7.55872C33.3611 7.55872 31.675 9.24477 31.675 11.3246C31.675 13.4045 33.3611 15.0905 35.4409 15.0905Z" fill="white"/>
<path d="M49.7356 15.0905C51.8155 15.0905 53.5015 13.4045 53.5015 11.3246C53.5015 9.24477 51.8155 7.55872 49.7356 7.55872C47.6558 7.55872 45.9697 9.24477 45.9697 11.3246C45.9697 13.4045 47.6558 15.0905 49.7356 15.0905Z" fill="white"/>
<path d="M21.1092 15.0905C23.189 15.0905 24.875 13.4045 24.875 11.3246C24.875 9.24477 23.189 7.55872 21.1092 7.55872C19.0293 7.55872 17.3433 9.24477 17.3433 11.3246C17.3433 13.4045 19.0293 15.0905 21.1092 15.0905Z" fill="white"/>
<path d="M318.23 76.9829H73.6716V87.8826H318.23V76.9829Z" fill="#F2F2F2"/>
<path d="M160.868 104.232H73.6716V115.131H160.868V104.232Z" fill="#F2F2F2"/>
<path d="M247.384 131.48H73.6716V142.38H247.384V131.48Z" fill="#F2F2F2"/>
</svg>
