<svg width="398" height="209" viewBox="0 0 398 209" fill="none" xmlns="http://www.w3.org/2000/svg">
<path d="M397.669 0.32251H0.242676V209H397.669V0.32251Z" fill="#F2F2F2"/>
<path d="M397.426 0H0V24.1915H397.426V0Z" fill="#E6E6E6"/>
<path d="M390.23 34H9.23022V198H390.23V34Z" fill="white"/>
<path d="M37.6607 16.0357C39.8708 16.0357 41.6624 14.2441 41.6624 12.034C41.6624 9.82387 39.8708 8.03223 37.6607 8.03223C35.4506 8.03223 33.6589 9.82387 33.6589 12.034C33.6589 14.2441 35.4506 16.0357 37.6607 16.0357Z" fill="white"/>
<path d="M52.8506 16.0357C55.0607 16.0357 56.8524 14.2441 56.8524 12.034C56.8524 9.82387 55.0607 8.03223 52.8506 8.03223C50.6405 8.03223 48.8489 9.82387 48.8489 12.034C48.8489 14.2441 50.6405 16.0357 52.8506 16.0357Z" fill="white"/>
<path d="M22.4312 16.0357C24.6413 16.0357 26.4329 14.2441 26.4329 12.034C26.4329 9.82387 24.6413 8.03223 22.4312 8.03223C20.2211 8.03223 18.4294 9.82387 18.4294 12.034C18.4294 14.2441 20.2211 16.0357 22.4312 16.0357Z" fill="white"/>
<path d="M313.753 82.0596H94.6658V91.824H313.753V82.0596Z" fill="#F2F2F2"/>
<path d="M172.781 106.47H94.6658V116.235H172.781V106.47Z" fill="#F2F2F2"/>
<path d="M250.285 130.881H94.6658V140.646H250.285V130.881Z" fill="#F2F2F2"/>
</svg>
