<svg width="400" height="409" viewBox="0 0 400 409" fill="none" xmlns="http://www.w3.org/2000/svg">
<g id="Component 36">
<g id="Group 2">
<path id="Rectangle 1" d="M400 152.227H0.171387V408.295H400V152.227Z" fill="#E6E6E6"/>
<path id="Rectangle 2" d="M389.874 184.344H12.9117V393.146H389.874V184.344Z" fill="white"/>
<path id="Rectangle 3" d="M399.829 152H0V168.986H399.829V152Z" fill="#5EAAA8"/>
<path id="Ellipse 3" d="M12.6233 163.833C14.3622 163.833 15.7718 162.423 15.7718 160.684C15.7718 158.945 14.3622 157.536 12.6233 157.536C10.8845 157.536 9.47485 158.945 9.47485 160.684C9.47485 162.423 10.8845 163.833 12.6233 163.833Z" fill="white"/>
<path id="Ellipse 4" d="M24.5733 163.833C26.3121 163.833 27.7218 162.423 27.7218 160.684C27.7218 158.945 26.3121 157.536 24.5733 157.536C22.8344 157.536 21.4248 158.945 21.4248 160.684C21.4248 162.423 22.8344 163.833 24.5733 163.833Z" fill="white"/>
<path id="Ellipse 5" d="M36.523 163.833C38.2619 163.833 39.6715 162.423 39.6715 160.684C39.6715 158.945 38.2619 157.536 36.523 157.536C34.7841 157.536 33.3745 158.945 33.3745 160.684C33.3745 162.423 34.7841 163.833 36.523 163.833Z" fill="white"/>
<path id="Path 37" d="M78.8625 213.61L53.9277 238.234L78.8625 262.857L84.4729 257.246L65.618 238.389L84.6305 219.376L78.8625 213.61Z" fill="#5EAAA8"/>
<path id="Path 38" d="M99.2934 213.61L124.228 238.234L99.2934 262.857L93.683 257.246L112.539 238.389L93.5254 219.376L99.2934 213.61Z" fill="#5EAAA8"/>
<path id="Path 65" d="M179.947 219.789C177.908 219.789 176.255 220.963 176.255 222.409C176.255 223.855 177.908 225.028 179.947 225.028H354.022C356.061 225.028 357.714 223.855 357.714 222.409C357.714 220.963 356.061 219.789 354.022 219.789H179.947Z" fill="#E6E6E6"/>
<path id="Path 78" d="M352.291 363.305H59.4537C56.4602 363.305 54.0343 361.577 54.031 359.447V307.762C54.0343 305.632 56.4602 303.904 59.4537 303.904H352.291C355.284 303.904 357.71 305.632 357.714 307.762V359.446C357.711 361.576 355.284 363.302 352.291 363.305ZM59.4537 305.446C57.6575 305.446 56.2019 306.483 56.2 307.761V359.445C56.2 360.723 57.6575 361.758 59.4537 361.76H352.291C354.087 361.76 355.543 360.723 355.545 359.445V307.762C355.545 306.484 354.087 305.448 352.291 305.447L59.4537 305.446Z" fill="#E6E6E6"/>
<path id="Ellipse 13" d="M89.6092 346.684C96.8448 346.684 102.711 340.818 102.711 333.582C102.711 326.347 96.8448 320.481 89.6092 320.481C82.3735 320.481 76.5078 326.347 76.5078 333.582C76.5078 340.818 82.3735 346.684 89.6092 346.684Z" fill="#E6E6E6"/>
<path id="Path 79" d="M126.561 323.104C125.866 323.103 125.199 323.378 124.707 323.869C124.215 324.36 123.939 325.026 123.938 325.72C123.937 326.415 124.212 327.082 124.703 327.574C125.193 328.065 125.859 328.342 126.554 328.343H250.055C250.75 328.343 251.416 328.067 251.907 327.576C252.399 327.085 252.674 326.418 252.674 325.724C252.674 325.029 252.399 324.363 251.907 323.871C251.416 323.38 250.75 323.104 250.055 323.104H126.561Z" fill="#5EAAA8"/>
<path id="Path 80" d="M126.561 338.822C126.217 338.821 125.876 338.889 125.558 339.02C125.24 339.151 124.951 339.344 124.707 339.587C124.215 340.077 123.939 340.743 123.938 341.438C123.937 342.133 124.212 342.799 124.703 343.291C125.193 343.783 125.859 344.06 126.554 344.061H179.7C180.394 344.062 181.061 343.787 181.553 343.296C182.045 342.805 182.322 342.139 182.323 341.445C182.323 340.75 182.048 340.083 181.558 339.591C181.067 339.1 180.401 338.823 179.706 338.822H126.561Z" fill="#5EAAA8"/>
<path id="Path 81" d="M178.676 235.483C178.018 235.536 177.403 235.835 176.956 236.32C176.508 236.806 176.259 237.442 176.259 238.102C176.259 238.763 176.508 239.399 176.956 239.884C177.403 240.37 178.018 240.669 178.676 240.722H292.76C293.418 240.669 294.033 240.37 294.48 239.884C294.928 239.399 295.177 238.763 295.177 238.102C295.177 237.442 294.928 236.806 294.48 236.32C294.033 235.835 293.418 235.536 292.76 235.483H178.676Z" fill="#E6E6E6"/>
<path id="Path 82" d="M179.427 251.176C177.675 251.176 176.255 252.349 176.255 253.796C176.255 255.242 177.675 256.415 179.427 256.415H328.971C330.723 256.415 332.143 255.242 332.143 253.796C332.143 252.349 330.723 251.176 328.971 251.176H179.427Z" fill="#E6E6E6"/>
</g>
<g id="Component 31">
<path id="Vector" d="M254.176 77.2155C254.172 76.6948 254.276 76.179 254.48 75.7002C254.685 75.2214 254.985 74.79 255.364 74.4328C255.742 74.0757 256.19 73.8004 256.68 73.6244C257.169 73.4483 257.689 73.3751 258.208 73.4095C258.727 73.4438 259.233 73.5848 259.696 73.8238C260.158 74.0628 260.565 74.3946 260.894 74.7985C261.222 75.2024 261.463 75.6697 261.603 76.1713C261.743 76.6728 261.778 77.1978 261.706 77.7135L272.576 91.9652C273.039 92.894 273.219 93.9391 273.093 94.9697C272.966 96.0003 272.538 96.9706 271.863 97.759L271.011 98.7549L267.098 97.9715L262.664 94.0543L263.186 89.6149L257.709 80.9972L257.716 80.991C256.757 80.9299 255.857 80.5056 255.2 79.8043C254.542 79.103 254.176 78.1774 254.176 77.2155V77.2155Z" fill="#FFB9B9"/>
<path id="Vector_2" d="M329.344 146.89L331.118 140.293L306.545 130.301L303.926 140.039L329.344 146.89Z" fill="#FFB8B8"/>
<path id="Vector_3" d="M335.279 150.295L341 129.021L340.731 128.949C338.538 128.358 336.2 128.663 334.231 129.798C332.263 130.932 330.825 132.803 330.234 134.999L330.234 135L326.74 147.993L335.279 150.295Z" fill="#2F2E41"/>
<path id="Vector_4" d="M295.495 145.836L301.014 141.818L288.159 118.591L280.014 124.522L295.495 145.836Z" fill="#FFB8B8"/>
<path id="Vector_5" d="M297.978 152.218L315.775 139.26L315.611 139.035C314.275 137.195 312.264 135.963 310.02 135.608C307.777 135.253 305.484 135.805 303.647 137.143L303.646 137.143L292.777 145.057L297.978 152.218Z" fill="#2F2E41"/>
<path id="Vector_6" d="M248.58 113.379L262.468 99.8704C263.681 98.6915 265.277 97.9904 266.964 97.896C268.652 97.8017 270.316 98.3204 271.652 99.3568L297.876 128.525L295.528 132.181L270.489 115.207L253.535 137.404L237.364 129.309L248.58 113.379Z" fill="#2F2E41"/>
<path id="Vector_7" d="M254.579 116.251L264.751 115.468L272.118 113.68C272.534 113.03 273.138 112.523 273.85 112.226C274.562 111.93 275.348 111.858 276.101 112.021C276.855 112.184 277.541 112.573 278.068 113.137C278.594 113.701 278.936 114.413 279.048 115.176C279.159 115.94 279.035 116.72 278.692 117.411C278.348 118.103 277.802 118.672 277.127 119.044C276.451 119.416 275.678 119.573 274.911 119.493C274.144 119.413 273.42 119.1 272.835 118.596L272.837 118.602L268.402 120.43L249.362 126.958L247.015 125.13L254.579 116.251Z" fill="#FFB9B9"/>
<path id="Vector_8" d="M230.061 144.455L235.799 148.111H242.581L274.141 136.36L320.307 144.716L321.611 134.792L279.357 116.252L242.32 128.525L230.061 144.455Z" fill="#2F2E41"/>
<path id="Vector_9" d="M216 111.475C216 117.622 216.968 123.73 218.867 129.575L219.628 131.92L223.28 148.633L227.192 149.678L230.061 146.022L235.799 141.843L239.973 135.054L243.551 129.084L244.667 127.219L248.58 107.634L263.447 99.2772L268.403 98.4938L267.359 95.6212L262.925 89.6149L258.491 89.0926L257.187 88.0481L256.144 88.5703L250.393 90.7886L231.746 82.9009L229.018 83.3475L219.628 91.1818C217.228 97.6777 215.999 104.549 216 111.475V111.475Z" fill="#CCCCCC"/>
<path id="Vector_10" opacity="0.1" d="M218.846 109.201L228.757 115.729L243.551 129.084L244.667 127.219L247.797 111.551H247.015L238.929 96.6661L218.846 109.201Z" fill="black"/>
<path id="Vector_11" d="M238.929 95.099L247.015 109.984L251.71 115.207L255.883 116.252L244.667 128.525L228.757 114.162L218.846 107.634L238.929 95.099Z" fill="#CCCCCC"/>
<g id="head">
<path id="Vector_12" d="M242.32 80.9972C236.702 80.9972 232.148 76.4374 232.148 70.8127C232.148 65.1879 236.702 60.6281 242.32 60.6281C247.938 60.6281 252.492 65.1879 252.492 70.8127C252.492 76.4374 247.938 80.9972 242.32 80.9972Z" fill="#FFB9B9"/>
<path id="Vector_13" d="M250.232 63.24L251.334 63.6645C251.501 63.5511 251.645 63.4058 251.756 63.2369C251.867 63.068 251.944 62.8789 251.982 62.6802C252.02 62.4816 252.019 62.2774 251.978 62.0792C251.938 61.881 251.859 61.6928 251.745 61.5253C251.739 61.5165 251.733 61.5078 251.727 61.4991L253.764 61.4037C252.456 59.6603 250.794 58.2147 248.887 57.1627C246.98 56.1106 244.871 55.4759 242.701 55.3008C240.53 55.1256 238.347 55.4139 236.297 56.1466C234.246 56.8793 232.374 58.0396 230.804 59.5509C230.712 59.2311 229.701 59.8532 229.288 60.484C229.149 59.9637 228.202 62.4789 227.866 64.2569C227.711 63.6649 227.114 64.6206 227.637 65.5376C227.306 65.4891 227.156 66.3376 227.413 66.8104C227.05 66.6399 227.111 67.6528 227.504 68.3297C226.987 68.2837 227.548 78.9473 235.309 78.1703C235.849 75.685 235.697 75.8395 236.333 72.6437C236.629 72.329 236.953 72.0424 237.277 71.7563L239.028 70.2089C241.064 68.4095 242.916 66.1887 245.628 65.5162C247.492 65.0541 248.671 64.9497 247.655 62.8468C248.573 63.2303 249.43 63.8005 250.356 64.1566C250.343 63.8628 250.214 63.534 250.232 63.24Z" fill="#2F2E41"/>
<path id="Vector_14" d="M237.234 73.8158C236.225 73.8158 235.408 72.9974 235.408 71.9878C235.408 70.9782 236.225 70.1598 237.234 70.1598C238.242 70.1598 239.06 70.9782 239.06 71.9878C239.06 72.9974 238.242 73.8158 237.234 73.8158Z" fill="#FFB9B9"/>
</g>
<g id="third">
<path id="Vector_15" d="M322.377 28.8143L322.934 37.1908L314.568 37.7486L314.01 29.3721L322.377 28.8143Z" fill="#E6E6E6"/>
<path id="Vector_16" d="M327.774 33.2622L317.615 33.9395L318.292 44.111L328.451 43.4336L327.774 33.2622ZM318.086 34.3523L327.362 33.7339L327.98 43.0208L318.704 43.6393L318.086 34.3523Z" fill="#CCCCCC"/>
</g>
<g id="second">
<path id="Vector_17" d="M275.097 3.9755L283.295 5.73909L281.533 13.9468L273.336 12.1832L275.097 3.9755Z" fill="#E6E6E6"/>
<path id="Vector_18" d="M280.851 0L278.712 9.9665L288.667 12.108L290.805 2.1415L280.851 0ZM279.238 9.62629L281.191 0.52644L290.28 2.48172L288.327 11.5816L279.238 9.62629Z" fill="#CCCCCC"/>
</g>
<g id="first">
<path id="Vector_19" d="M283.711 43.3919L289.831 49.1309L284.099 55.2579L277.979 49.5189L283.711 43.3919Z" fill="#5EAAA8" fill-opacity="0.75"/>
<path id="Vector_20" d="M277.539 42.5333L284.97 49.5021L291.93 42.0621L284.499 35.0933L277.539 42.5333ZM284.949 48.8756L278.165 42.5128L284.52 35.7198L291.304 42.0826L284.949 48.8756Z" fill="#CCCCCC"/>
</g>
</g>
</g>
</svg>
