<svg width="714" height="470" viewBox="0 0 714 470" fill="none" xmlns="http://www.w3.org/2000/svg">
<path d="M464.23 273.622H90.2285V470H464.23V273.622Z" fill="#F2F2F2"/>
<path d="M464.002 273.318H90V296.084H464.002V273.318Z" fill="#E6E6E6"/>
<path d="M457.23 304H98.1145V460H457.23V304Z" fill="white"/>
<path d="M125.441 288.409C127.521 288.409 129.207 286.723 129.207 284.643C129.207 282.563 127.521 280.877 125.441 280.877C123.361 280.877 121.675 282.563 121.675 284.643C121.675 286.723 123.361 288.409 125.441 288.409Z" fill="white"/>
<path d="M139.736 288.409C141.815 288.409 143.502 286.723 143.502 284.643C143.502 282.563 141.815 280.877 139.736 280.877C137.656 280.877 135.97 282.563 135.97 284.643C135.97 286.723 137.656 288.409 139.736 288.409Z" fill="white"/>
<path d="M111.109 288.409C113.189 288.409 114.875 286.723 114.875 284.643C114.875 282.563 113.189 280.877 111.109 280.877C109.029 280.877 107.343 282.563 107.343 284.643C107.343 286.723 109.029 288.409 111.109 288.409Z" fill="white"/>
<path d="M713.902 86.0616H270.271V319H713.902V86.0616Z" fill="#E6E6E6"/>
<path d="M713.631 85.7015H270V112.706H713.631V85.7015Z" fill="#5EAAA8"/>
<path d="M703.23 121H280.23V306H703.23V121Z" fill="white"/>
<path d="M312.039 103.602C314.506 103.602 316.506 101.602 316.506 99.1346C316.506 96.6675 314.506 94.6676 312.039 94.6676C309.572 94.6676 307.572 96.6675 307.572 99.1346C307.572 101.602 309.572 103.602 312.039 103.602Z" fill="white"/>
<path d="M328.995 103.602C331.462 103.602 333.462 101.602 333.462 99.1346C333.462 96.6675 331.462 94.6676 328.995 94.6676C326.528 94.6676 324.528 96.6675 324.528 99.1346C324.528 101.602 326.528 103.602 328.995 103.602Z" fill="white"/>
<path d="M295.039 103.602C297.506 103.602 299.506 101.602 299.506 99.1346C299.506 96.6675 297.506 94.6676 295.039 94.6676C292.572 94.6676 290.572 96.6675 290.572 99.1346C290.572 101.602 292.572 103.602 295.039 103.602Z" fill="white"/>
<path d="M654.116 168.635H329.785V183.09H654.116V168.635Z" fill="#E6E6E6"/>
<path d="M445.424 204.773H329.785V219.228H445.424V204.773Z" fill="#E6E6E6"/>
<path d="M560.16 240.909H329.785V255.364H560.16V240.909Z" fill="#E6E6E6"/>
<path d="M408.23 350.301H163.672V361.201H408.23V350.301Z" fill="#F2F2F2"/>
<path d="M250.868 377.55H163.672V388.45H250.868V377.55Z" fill="#F2F2F2"/>
<path d="M337.384 404.799H163.672V415.699H337.384V404.799Z" fill="#F2F2F2"/>
</svg>
