<svg width="117" height="117" viewBox="0 0 117 117" fill="none" xmlns="http://www.w3.org/2000/svg">
<path id="xl-mail" d="M78.973 87.4423C104.57 87.4423 116.427 73.6736 116.427 55.2764C116.427 23.1104 90.5225 0 58.3723 0C42.891 0 28.0438 6.15291 17.0969 17.1052C6.14993 28.0575 0 42.9119 0 58.4008C0 73.8896 6.14993 88.7441 17.0969 99.6964C28.0438 110.649 42.891 116.802 58.3723 116.802C70.2379 116.701 81.7806 112.923 91.4118 105.988C91.8905 105.65 92.2971 105.221 92.608 104.725C92.9188 104.228 93.1276 103.675 93.2221 103.096C93.3168 102.608 93.2837 102.104 93.126 101.633C92.9684 101.161 92.6914 100.739 92.3222 100.406C91.9396 100.086 91.4955 99.8465 91.0173 99.7037C90.539 99.561 90.0365 99.5175 89.5409 99.576C89.0452 99.6345 88.5667 99.7938 88.1348 100.044C87.7029 100.294 87.3266 100.63 87.0291 101.031C84.9119 103.817 78.5602 108.551 59.7908 108.975C31.3881 109.621 7.6327 86.9975 7.53743 58.5703C7.44215 30.3866 30.5836 8.12358 58.4147 7.81644C86.2457 7.50929 108.667 27.1774 108.667 54.662C108.667 72.1484 96.4932 80.272 81.8207 79.9542C77.1416 80.2614 76.1994 78.3973 76.824 71.8307C77.3321 66.4397 82.477 43.9966 84.3084 36.1483C84.4656 35.4972 84.4701 34.8184 84.3216 34.1652C84.173 33.512 83.8753 32.902 83.4519 32.383C83.0285 31.864 82.4909 31.4501 81.881 31.1736C81.2711 30.8971 80.6055 30.7655 79.9363 30.7891H79.6188C78.6536 30.9063 77.756 31.3451 77.0704 32.0349C76.3849 32.7246 75.9513 33.6251 75.8395 34.5914C75.6777 35.8562 75.5894 37.1293 75.5748 38.4043C72.7695 32.7803 66.2061 28.406 58.4041 28.0989C41.8578 28.406 27.5029 43.4034 26.8784 65.264C26.8784 79.9436 34.6804 88.3744 48.1037 88.3744C57.4724 88.3744 64.3323 82.7504 68.0799 77.4441C68.0481 77.4335 67.7411 86.8069 78.973 87.4423ZM49.3317 80.8863C40.8627 80.8863 35.9084 74.6374 35.9084 64.6497C35.9084 47.4705 47.4579 36.5402 58.3829 36.5402C68.0586 36.5402 71.8062 43.0963 72.1449 51.8448C72.1132 65.8783 63.0196 80.8757 49.3211 80.8757L49.3317 80.8863Z" fill="#00BFA6" fill-opacity="0.5"/>
</svg>
